<svg width="61" height="124" viewBox="0 0 61 124" fill="none" xmlns="http://www.w3.org/2000/svg"><path d="M0 86.273c0-.489.012-.985.035-1.486V2.306A2.313 2.313 0 0 1 2.353 0 2.313 2.313 0 0 1 4.67 2.308v82.528c0 .034-.003.066-.003.1-.282 6.212 1.376 11.077 4.912 14.485 6.93 6.683 18.854 5.919 18.973 5.911.055-.005.112-.007.166-.007H56.23v4.595H28.794c-1.322.081-14.308.646-22.447-7.204C2.132 98.652 0 93.126 0 86.273z" fill="#EB6259"/><path d="M59.996 105.982c1.339.77 1.339 2.694 0 3.463l-24.852 14.284c-1.339.77-3.012-.192-3.012-1.731V93.429c0-1.538 1.673-2.5 3.012-1.73l24.852 14.283z" fill="#EB6259"/></svg>