<svg width="138" height="149" viewBox="0 0 138 149" fill="none" xmlns="http://www.w3.org/2000/svg"><path d="M114.676 67.478a1.646 1.646 0 0 1-2.247.602L55.677 35.314a1.646 1.646 0 0 1-.602-2.247l8.232-14.259a1.645 1.645 0 0 1 2.247-.602l56.752 32.766a1.645 1.645 0 0 1 .602 2.247l-8.232 14.259z" fill="#F3F9FF"/><path d="M113.567 69.398a1.645 1.645 0 0 1-2.247.603L54.568 37.235a1.645 1.645 0 0 1-.602-2.248l10.476-18.145a1.645 1.645 0 0 1 2.247-.602l56.752 32.766a1.644 1.644 0 0 1 .602 2.248l-10.476 18.144zm-10.169 17.615c-.37.64-1.188.859-1.828.49l-8.978-5.184a1.338 1.338 0 0 1-.49-1.829l5.054-8.754c.37-.64 1.188-.86 1.828-.49l8.979 5.184c.64.37.859 1.188.489 1.828l-5.054 8.755zm-8.674 15.023c-.37.64-1.188.86-1.828.49l-8.978-5.183a1.338 1.338 0 0 1-.49-1.829l5.054-8.754c.37-.64 1.188-.86 1.829-.49l8.978 5.184c.64.37.859 1.188.49 1.828l-5.055 8.754zm-17.35 30.05c-.369.64-1.186.858-1.826.489l-8.978-5.184a1.337 1.337 0 0 1-.492-1.827l13.73-23.78a1.338 1.338 0 0 1 1.828-.489l8.978 5.184c.64.369.86 1.187.49 1.827l-13.73 23.78zm9.922-54.37c-.37.64-1.188.86-1.829.49l-8.977-5.184a1.338 1.338 0 0 1-.49-1.828l5.055-8.754c.37-.64 1.188-.86 1.827-.49l8.978 5.183c.64.37.86 1.188.49 1.828l-5.054 8.755zM78.622 92.74c-.37.64-1.188.86-1.829.49l-8.977-5.184a1.338 1.338 0 0 1-.49-1.828l5.055-8.754c.37-.64 1.188-.86 1.828-.49l8.977 5.183c.64.37.86 1.188.49 1.828l-5.054 8.755zm-8.675 15.025c-.37.64-1.187.859-1.828.489l-8.977-5.183a1.338 1.338 0 0 1-.49-1.828l5.054-8.755c.37-.64 1.188-.859 1.828-.49l8.977 5.184c.641.37.86 1.188.49 1.828l-5.054 8.755zm-8.674 15.024c-.37.64-1.187.859-1.828.489l-8.977-5.183a1.337 1.337 0 0 1-.49-1.827l5.054-8.756a1.338 1.338 0 0 1 1.828-.489l8.977 5.183c.64.37.86 1.189.49 1.828l-5.054 8.755zm9.92-54.37c-.369.64-1.187.86-1.827.49l-8.978-5.183a1.338 1.338 0 0 1-.49-1.828l5.055-8.755c.37-.64 1.188-.859 1.828-.49l8.978 5.184c.64.37.859 1.188.49 1.828l-5.055 8.755zM62.52 83.444c-.37.64-1.188.86-1.828.49l-8.978-5.183a1.338 1.338 0 0 1-.49-1.828l5.055-8.755c.37-.64 1.188-.86 1.827-.49l8.979 5.184c.64.37.859 1.188.49 1.828l-5.055 8.754zm-8.675 15.025c-.37.64-1.188.86-1.828.49l-8.978-5.184a1.338 1.338 0 0 1-.49-1.828l5.055-8.754c.37-.64 1.188-.86 1.828-.49l8.978 5.184c.64.37.86 1.187.49 1.827l-5.055 8.755zm-8.674 15.025c-.37.64-1.187.858-1.827.489l-8.979-5.184a1.337 1.337 0 0 1-.49-1.827l5.055-8.755a1.338 1.338 0 0 1 1.828-.49l8.978 5.184c.64.37.859 1.188.49 1.827l-5.055 8.756zm9.92-54.37c-.369.64-1.187.86-1.827.49l-8.978-5.184a1.338 1.338 0 0 1-.49-1.828l5.055-8.754c.37-.64 1.188-.86 1.828-.49l8.978 5.184c.64.37.859 1.187.49 1.827l-5.055 8.755zm-8.673 15.024c-.37.64-1.188.86-1.828.49l-8.978-5.184a1.338 1.338 0 0 1-.49-1.828l5.055-8.754c.37-.64 1.188-.86 1.828-.49l8.978 5.183c.64.37.859 1.188.49 1.828l-5.055 8.755zM37.743 89.17c-.37.64-1.188.86-1.827.49l-8.978-5.183a1.338 1.338 0 0 1-.49-1.828l5.054-8.755c.37-.64 1.188-.859 1.828-.49l8.978 5.184c.64.37.86 1.188.49 1.828l-5.055 8.754zm-8.674 15.025c-.37.64-1.187.859-1.827.489l-8.979-5.184a1.337 1.337 0 0 1-.49-1.826l5.055-8.756a1.338 1.338 0 0 1 1.828-.489l8.978 5.184c.64.37.859 1.188.49 1.827l-5.055 8.755zm105.446-59.695L65.055 4.397a3.375 3.375 0 0 0-4.61 1.235L6.686 98.742a3.375 3.375 0 0 0 1.236 4.61l69.46 40.103a3.375 3.375 0 0 0 4.61-1.234l53.758-93.111a3.375 3.375 0 0 0-1.236-4.61z" fill="#4C4C4C"/><path d="M62.09 3.808a2.51 2.51 0 0 0-3.427.918L3.81 99.737a2.511 2.511 0 0 0 .917 3.427l70.879 40.922a2.513 2.513 0 0 0 3.427-.919l54.854-95.01a2.511 2.511 0 0 0-.918-3.427L62.09 3.808zm12.58 141.897L3.79 104.784a4.384 4.384 0 0 1-1.601-5.982l54.854-95.01a4.383 4.383 0 0 1 5.98-1.603l70.879 40.922a4.384 4.384 0 0 1 1.603 5.98l-54.855 95.011a4.383 4.383 0 0 1-5.981 1.603z" fill="#231F20"/><path d="M47.42 43.563a.43.43 0 0 0-.588.158l-5.158 8.934a.43.43 0 0 0 .158.587l9.162 5.29a.43.43 0 0 0 .587-.158l5.158-8.934a.43.43 0 0 0-.157-.587l-9.162-5.29zm2.64 16.589l-9.163-5.29a2.303 2.303 0 0 1-.842-3.142l5.158-8.934a2.303 2.303 0 0 1 3.142-.842l9.162 5.29a2.302 2.302 0 0 1 .841 3.141L53.2 59.31a2.302 2.302 0 0 1-3.14.843zM63.85 53.05a.43.43 0 0 0-.587.157l-5.158 8.934a.43.43 0 0 0 .158.587l9.161 5.29a.43.43 0 0 0 .588-.157l5.158-8.934a.43.43 0 0 0-.158-.588l-9.161-5.29zm2.64 16.587l-9.162-5.29a2.303 2.303 0 0 1-.842-3.141l5.158-8.934a2.303 2.303 0 0 1 3.142-.842l9.161 5.29a2.303 2.303 0 0 1 .842 3.142l-5.158 8.934a2.303 2.303 0 0 1-3.142.841zM80.282 62.537a.43.43 0 0 0-.588.156l-5.158 8.934a.43.43 0 0 0 .158.588l9.16 5.29c.206.118.47.048.589-.158l5.158-8.933a.431.431 0 0 0-.158-.588l-9.161-5.29zm2.638 16.587l-9.161-5.29a2.303 2.303 0 0 1-.843-3.142l5.158-8.934a2.303 2.303 0 0 1 3.143-.84l9.16 5.288a2.304 2.304 0 0 1 .844 3.142l-5.159 8.934a2.304 2.304 0 0 1-3.142.842zM96.711 72.022a.43.43 0 0 0-.586.158l-5.158 8.934a.43.43 0 0 0 .156.587l9.163 5.29a.43.43 0 0 0 .587-.158l5.158-8.934a.43.43 0 0 0-.157-.587l-9.163-5.29zm2.64 16.588l-9.163-5.29a2.302 2.302 0 0 1-.84-3.141l5.157-8.934a2.302 2.302 0 0 1 3.141-.843l9.163 5.29a2.303 2.303 0 0 1 .842 3.142l-5.158 8.934a2.303 2.303 0 0 1-3.142.842zM38.569 58.894a.43.43 0 0 0-.588.157l-5.158 8.934a.43.43 0 0 0 .158.587l9.162 5.29a.43.43 0 0 0 .587-.158l5.158-8.934a.43.43 0 0 0-.157-.587l-9.162-5.29zm2.64 16.588l-9.163-5.29a2.303 2.303 0 0 1-.842-3.142l5.158-8.934a2.303 2.303 0 0 1 3.142-.842l9.162 5.29a2.302 2.302 0 0 1 .841 3.141L44.35 74.64a2.302 2.302 0 0 1-3.14.843zM55 68.38a.43.43 0 0 0-.588.158l-5.158 8.934a.43.43 0 0 0 .158.588l9.161 5.289a.43.43 0 0 0 .588-.157l5.158-8.934a.43.43 0 0 0-.158-.588L55 68.38zm2.638 16.589l-9.161-5.29a2.303 2.303 0 0 1-.842-3.142l5.158-8.934a2.303 2.303 0 0 1 3.142-.842l9.161 5.29a2.303 2.303 0 0 1 .842 3.142l-5.158 8.934a2.303 2.303 0 0 1-3.142.842zM71.43 77.867a.43.43 0 0 0-.587.156l-5.158 8.934a.43.43 0 0 0 .158.588l9.16 5.29c.206.118.47.048.589-.158l5.158-8.934a.431.431 0 0 0-.158-.587l-9.161-5.29zm2.639 16.587l-9.161-5.29a2.303 2.303 0 0 1-.843-3.142l5.158-8.934a2.303 2.303 0 0 1 3.143-.84l9.16 5.288a2.304 2.304 0 0 1 .843 3.142l-5.158 8.934a2.304 2.304 0 0 1-3.142.842zM29.717 74.225a.43.43 0 0 0-.587.158l-5.158 8.933a.43.43 0 0 0 .157.587l9.163 5.29a.43.43 0 0 0 .587-.157l5.157-8.934a.43.43 0 0 0-.156-.587l-9.163-5.29zm2.64 16.588l-9.162-5.29a2.303 2.303 0 0 1-.842-3.142l5.157-8.933a2.302 2.302 0 0 1 3.142-.842l9.163 5.29a2.301 2.301 0 0 1 .84 3.141l-5.157 8.933a2.302 2.302 0 0 1-3.14.843zM46.148 83.712a.43.43 0 0 0-.587.157l-5.158 8.933a.43.43 0 0 0 .157.588l9.162 5.29a.43.43 0 0 0 .588-.158l5.157-8.933A.43.43 0 0 0 55.31 89l-9.162-5.29zm2.64 16.587l-9.162-5.29a2.303 2.303 0 0 1-.842-3.142l5.157-8.933a2.302 2.302 0 0 1 3.142-.842l9.162 5.29a2.302 2.302 0 0 1 .842 3.142l-5.158 8.933a2.303 2.303 0 0 1-3.142.842zM62.58 93.199a.43.43 0 0 0-.589.157l-5.157 8.933a.43.43 0 0 0 .158.587l9.16 5.289c.206.119.47.049.589-.156l5.157-8.933a.43.43 0 0 0-.158-.588l-9.16-5.29zm2.638 16.586l-9.161-5.289a2.303 2.303 0 0 1-.843-3.142l5.158-8.933a2.302 2.302 0 0 1 3.142-.842l9.161 5.29a2.304 2.304 0 0 1 .843 3.142l-5.158 8.933a2.304 2.304 0 0 1-3.142.841zM79.009 102.684a.43.43 0 0 0-.587.158l-14.009 24.264a.43.43 0 0 0 .157.587l9.162 5.29a.43.43 0 0 0 .588-.157l14.009-24.265a.43.43 0 0 0-.158-.587l-9.162-5.29zm-6.212 31.919l-9.162-5.29a2.303 2.303 0 0 1-.841-3.142l14.009-24.264a2.301 2.301 0 0 1 3.14-.842l9.163 5.29a2.301 2.301 0 0 1 .842 3.141l-14.009 24.265a2.303 2.303 0 0 1-3.142.842zM20.866 89.556a.43.43 0 0 0-.587.157l-5.159 8.934a.43.43 0 0 0 .158.587l9.162 5.29a.429.429 0 0 0 .587-.158l5.158-8.933a.43.43 0 0 0-.156-.587l-9.163-5.29zm2.64 16.588l-9.163-5.29a2.303 2.303 0 0 1-.842-3.142l5.158-8.934a2.303 2.303 0 0 1 3.142-.842l9.163 5.29a2.302 2.302 0 0 1 .84 3.142l-5.157 8.933a2.301 2.301 0 0 1-3.141.843zM37.297 99.042a.43.43 0 0 0-.587.157l-5.159 8.934a.431.431 0 0 0 .158.588l9.162 5.289a.43.43 0 0 0 .587-.157l5.158-8.934a.432.432 0 0 0-.157-.588l-9.162-5.29zm2.639 16.588l-9.162-5.29a2.303 2.303 0 0 1-.842-3.142l5.158-8.934a2.303 2.303 0 0 1 3.142-.841l9.162 5.289a2.303 2.303 0 0 1 .841 3.142l-5.158 8.934a2.303 2.303 0 0 1-3.141.842zM53.728 108.529a.43.43 0 0 0-.588.157l-5.158 8.934a.43.43 0 0 0 .158.587l9.161 5.289c.205.119.47.049.588-.156l5.158-8.934a.431.431 0 0 0-.158-.588l-9.16-5.289zm2.638 16.587l-9.16-5.289a2.303 2.303 0 0 1-.844-3.142l5.158-8.934a2.304 2.304 0 0 1 3.143-.842l9.161 5.289a2.305 2.305 0 0 1 .843 3.143l-5.158 8.934a2.304 2.304 0 0 1-3.143.841zM63.758 15.892a.745.745 0 0 0-1.016.273L52.052 34.68a.745.745 0 0 0 .272 1.017l57.91 33.434a.746.746 0 0 0 1.017-.272l10.69-18.516a.745.745 0 0 0-.273-1.016l-57.91-33.435zm45.541 54.859l-57.91-33.435a2.617 2.617 0 0 1-.957-3.57l10.69-18.516a2.617 2.617 0 0 1 3.571-.957l57.91 33.434a2.617 2.617 0 0 1 .957 3.571l-10.69 18.516a2.618 2.618 0 0 1-3.571.957z" fill="#231F20"/></svg>