<svg width="111" height="158" viewBox="0 0 111 158" fill="none" xmlns="http://www.w3.org/2000/svg"><mask id="a" maskUnits="userSpaceOnUse" x=".652" y=".588" width="111" height="158" fill="#000"><path fill="#fff" d="M.652.588h111v158h-111z"/><path fill-rule="evenodd" clip-rule="evenodd" d="M2.16 111.228c27.177 27.395 64.853 44.361 106.492 44.361l-.001-150.001L2.586 111.653l-.427-.425z"/></mask><path fill-rule="evenodd" clip-rule="evenodd" d="M2.16 111.228c27.177 27.395 64.853 44.361 106.492 44.361l-.001-150.001L2.586 111.653l-.427-.425z" fill="#F5BB53"/><path d="M108.652 155.589v2h2v-2h-2zM2.159 111.228l1.414-1.415-2.833 2.823 1.42-1.408zM108.651 5.588h2V.759l-3.414 3.415 1.414 1.414zM2.586 111.653l-1.414 1.415 1.414 1.413L4 113.068l-1.414-1.415zm106.066 41.936c-41.084 0-78.255-16.738-105.073-43.77l-2.84 2.817c27.538 27.759 65.72 44.953 107.913 44.953v-4zM106.651 5.588l.001 150.001h4l-.001-150.001h-4zM4 113.068L110.066 7.002l-2.829-2.828L1.171 110.239 4 113.068zm-3.254-.426l.426.426 2.827-2.83-.426-.425-2.827 2.829z" fill="#E6ECF2" mask="url(#a)"/></svg>