<svg width="116" height="99" viewBox="0 0 116 99" fill="none" xmlns="http://www.w3.org/2000/svg"><path d="M72.572 53.798c-3.764 14.046-18.2 22.38-32.245 18.617-14.045-3.763-22.38-18.2-18.616-32.245 3.763-14.044 18.2-22.38 32.244-18.616 14.044 3.763 22.38 18.2 18.617 32.244z" fill="#9C8F78"/><path d="M55.129 11.508c-18.97-5.083-38.538 6.215-43.62 25.185-5.084 18.97 6.214 38.537 25.184 43.62 18.965 5.082 38.535-6.215 43.618-25.185 5.083-18.97-6.217-38.538-25.182-43.62zM36.209 82.12C16.243 76.77 4.352 56.174 9.702 36.209c5.35-19.966 25.945-31.857 45.91-26.507 19.97 5.35 31.855 25.945 26.506 45.91-5.35 19.966-25.94 31.858-45.91 26.508z" fill="#231F20"/><path d="M52.932 19.707c-14.448-3.871-29.354 4.734-33.225 19.182-3.871 14.449 4.734 29.354 19.182 33.225 14.449 3.872 29.35-4.735 33.221-19.183 3.872-14.448-4.73-29.353-19.178-33.224zM38.405 73.921C22.96 69.782 13.762 53.85 17.901 38.405c4.138-15.444 20.07-24.643 35.515-20.504 15.445 4.138 24.639 20.07 20.5 35.514-4.138 15.444-20.065 24.644-35.51 20.506zM79.965 61.56L98.781 66.6a3.31 3.31 0 0 0 4.054-2.34l1.549-5.779a3.311 3.311 0 0 0-2.341-4.054l-18.816-5.041a37.956 37.956 0 0 1-1.12 6.223 37.966 37.966 0 0 1-2.142 5.95zm18.332 6.847L78.39 63.073a.934.934 0 0 1-.607-.517.91.91 0 0 1 .017-.8 36.218 36.218 0 0 0 2.502-6.63 36.212 36.212 0 0 0 1.149-6.993.933.933 0 0 1 1.169-.845l19.907 5.334a5.184 5.184 0 0 1 3.663 6.344l-1.548 5.778a5.185 5.185 0 0 1-6.345 3.663z" fill="#231F20"/></svg>