<svg width="205" height="268" viewBox="0 0 205 268" fill="none" xmlns="http://www.w3.org/2000/svg"><path d="M59.496 43.136a.613.613 0 1 1 .317 1.185.613.613 0 0 1-.317-1.185zM61.638 51.131a.613.613 0 1 1 .317 1.185.613.613 0 0 1-.317-1.185zM63.78 59.125a.613.613 0 1 1 .317 1.185.613.613 0 0 1-.317-1.185zM65.922 67.12a.613.613 0 1 1 .317 1.185.613.613 0 0 1-.317-1.184zM68.065 75.116a.612.612 0 1 1 .317 1.185.614.614 0 0 1-.317-1.185zM70.207 83.109a.613.613 0 1 1 .316 1.185.613.613 0 0 1-.316-1.185zM72.349 91.104a.613.613 0 1 1 .317 1.185.613.613 0 0 1-.317-1.185zM74.49 99.098a.613.613 0 1 1 .318 1.185.613.613 0 0 1-.317-1.185zM76.633 107.093a.613.613 0 1 1 .317 1.184.613.613 0 0 1-.317-1.184zM78.775 115.088a.614.614 0 1 1 .317 1.186.614.614 0 0 1-.317-1.186zM80.917 123.082a.614.614 0 1 1 .316 1.186.614.614 0 0 1-.316-1.186zM83.06 131.078a.613.613 0 1 1 .317 1.184.613.613 0 0 1-.317-1.184zM85.202 139.072a.612.612 0 1 1 .317 1.185.614.614 0 0 1-.317-1.185zM87.344 147.066a.613.613 0 1 1 .317 1.185.613.613 0 0 1-.317-1.185zM89.486 155.061a.613.613 0 1 1 .317 1.184.613.613 0 0 1-.317-1.184zM91.628 163.055a.613.613 0 1 1 .317 1.184.613.613 0 0 1-.317-1.184zM47.754 46.283a.613.613 0 1 1 .317 1.184.613.613 0 0 1-.317-1.184zM49.896 54.278a.613.613 0 1 1 .317 1.185.613.613 0 0 1-.317-1.185zM52.038 62.272a.613.613 0 1 1 .317 1.185.613.613 0 0 1-.317-1.185zM54.18 70.266a.613.613 0 1 1 .317 1.185.613.613 0 0 1-.317-1.185zM56.323 78.261a.612.612 0 1 1 .317 1.185.614.614 0 0 1-.317-1.185zM58.465 86.255a.613.613 0 1 1 .316 1.185.613.613 0 0 1-.316-1.185zM60.607 94.25a.613.613 0 1 1 .317 1.185.613.613 0 0 1-.317-1.185zM62.749 102.245a.613.613 0 1 1 .317 1.185.613.613 0 0 1-.317-1.185zM64.891 110.24a.613.613 0 1 1 .317 1.184.613.613 0 0 1-.317-1.184zM67.033 118.235a.613.613 0 1 1 .318 1.184.613.613 0 0 1-.318-1.184zM69.175 126.228a.613.613 0 1 1 .318 1.184.613.613 0 0 1-.318-1.184zM71.317 134.223a.613.613 0 1 1 .318 1.184.613.613 0 0 1-.318-1.184zM73.46 142.218a.612.612 0 1 1-.434.751.614.614 0 0 1 .434-.751zM75.602 150.212a.614.614 0 1 1 .316 1.186.614.614 0 0 1-.316-1.186zM77.744 158.207a.614.614 0 1 1 .316 1.186.614.614 0 0 1-.316-1.186zM79.886 166.202a.613.613 0 1 1 .317 1.184.613.613 0 0 1-.317-1.184zM36.012 49.43a.614.614 0 1 1 .317 1.186.614.614 0 0 1-.317-1.187zM38.154 57.424a.614.614 0 1 1 .318 1.186.614.614 0 0 1-.318-1.186zM40.296 65.418a.614.614 0 1 1 .318 1.186.614.614 0 0 1-.318-1.186zM42.438 73.413a.614.614 0 1 1 .318 1.186.614.614 0 0 1-.318-1.186zM44.58 81.408a.613.613 0 1 1 .32 1.184.613.613 0 0 1-.32-1.184zM46.722 89.402a.614.614 0 1 1 .318 1.186.614.614 0 0 1-.318-1.186zM48.865 97.397a.614.614 0 1 1 .317 1.187.614.614 0 0 1-.317-1.187zM51.007 105.391a.615.615 0 1 1 .316 1.188.615.615 0 0 1-.316-1.188zM53.149 113.385a.615.615 0 1 1 .316 1.188.615.615 0 0 1-.316-1.188zM55.291 121.381a.613.613 0 1 1 .32 1.184.613.613 0 0 1-.32-1.184zM57.433 129.375a.613.613 0 1 1 .319 1.184.613.613 0 0 1-.319-1.184zM59.575 137.37a.614.614 0 1 1 .318 1.186.614.614 0 0 1-.318-1.186zM61.718 145.365a.613.613 0 1 1 .319 1.184.613.613 0 0 1-.32-1.184zM63.86 153.359a.614.614 0 1 1 .317 1.187.614.614 0 0 1-.317-1.187zM66.002 161.353a.613.613 0 1 1 .318 1.185.612.612 0 1 1-.318-1.185zM68.144 169.347a.615.615 0 1 1 .316 1.188.615.615 0 0 1-.316-1.188zM24.27 52.575a.614.614 0 1 1 .318 1.187.614.614 0 0 1-.317-1.187zM26.413 60.57a.614.614 0 1 1 .318 1.186.614.614 0 0 1-.318-1.186zM28.555 68.564a.614.614 0 1 1 .318 1.187.614.614 0 0 1-.318-1.187zM30.697 76.558a.614.614 0 1 1 .318 1.187.614.614 0 0 1-.318-1.187zM32.84 84.553a.613.613 0 1 1 .318 1.185.613.613 0 0 1-.319-1.185zM34.981 92.548a.614.614 0 1 1 .318 1.186.614.614 0 0 1-.318-1.186zM37.124 100.543a.613.613 0 1 1 .318 1.185.613.613 0 0 1-.318-1.185zM39.266 108.537a.614.614 0 1 1 .317 1.186.614.614 0 0 1-.317-1.186zM41.408 116.532a.614.614 0 1 1 .318 1.186.614.614 0 0 1-.318-1.186zM43.55 124.527a.614.614 0 1 1 .318 1.186.614.614 0 0 1-.318-1.186zM45.692 132.52a.615.615 0 1 1 .317 1.189.615.615 0 0 1-.317-1.189zM47.834 140.515a.615.615 0 1 1 .317 1.188.615.615 0 0 1-.317-1.188zM49.977 148.51a.614.614 0 1 1 .317 1.186.614.614 0 0 1-.317-1.186zM52.119 156.505a.613.613 0 1 1 .318 1.185.613.613 0 0 1-.318-1.185zM54.26 164.5a.613.613 0 1 1 .32 1.185.613.613 0 0 1-.32-1.185zM56.403 172.494a.614.614 0 1 1 .317 1.187.614.614 0 0 1-.317-1.187zM12.529 55.721a.614.614 0 1 1 .317 1.187.614.614 0 0 1-.317-1.187zM14.67 63.717a.614.614 0 1 1 .318 1.186.614.614 0 0 1-.317-1.187zM16.813 71.71a.614.614 0 1 1 .318 1.187.614.614 0 0 1-.318-1.186zM18.955 79.705a.614.614 0 1 1 .318 1.186.614.614 0 0 1-.318-1.186zM21.097 87.7a.613.613 0 1 1 .32 1.185.613.613 0 0 1-.32-1.185zM23.24 95.694a.614.614 0 1 1 .317 1.186.614.614 0 0 1-.318-1.186zM25.382 103.689a.614.614 0 1 1 .317 1.187.614.614 0 0 1-.317-1.187zM27.524 111.683a.615.615 0 1 1 .316 1.188.615.615 0 0 1-.316-1.188zM29.666 119.678a.615.615 0 1 1 .316 1.188.615.615 0 0 1-.316-1.188zM31.808 127.673a.613.613 0 1 1 .32 1.184.613.613 0 0 1-.32-1.184zM33.95 135.667a.613.613 0 1 1 .319 1.185.613.613 0 0 1-.319-1.185zM36.092 143.662a.614.614 0 1 1 .318 1.187.614.614 0 0 1-.318-1.187zM38.234 151.657a.613.613 0 1 1 .32 1.184.613.613 0 0 1-.32-1.184zM40.377 159.651a.614.614 0 1 1 .317 1.186.614.614 0 0 1-.318-1.186zM42.519 167.646a.614.614 0 1 1 .317 1.187.614.614 0 0 1-.317-1.187zM44.66 175.64a.615.615 0 1 1 .317 1.188.615.615 0 0 1-.316-1.188zM65.882 45.858a.614.614 0 1 1 .317 1.187.614.614 0 0 1-.317-1.187zM68.024 53.852a.614.614 0 1 1 .317 1.187.614.614 0 0 1-.317-1.187zM70.166 61.847a.614.614 0 1 1 .318 1.187.614.614 0 0 1-.318-1.187zM72.308 69.843a.613.613 0 1 1 .32 1.184.613.613 0 0 1-.32-1.184zM74.45 77.837a.614.614 0 1 1 .318 1.186.614.614 0 0 1-.318-1.186zM76.593 85.832a.614.614 0 1 1 .317 1.186.614.614 0 0 1-.317-1.186zM78.734 93.825a.614.614 0 1 1 .318 1.187.614.614 0 0 1-.318-1.187zM80.877 101.82a.614.614 0 1 1 .317 1.187.614.614 0 0 1-.317-1.187zM83.019 109.815a.614.614 0 1 1 .318 1.186.614.614 0 0 1-.318-1.186zM85.16 117.809a.615.615 0 1 1 .318 1.188.615.615 0 0 1-.317-1.188zM87.303 125.804a.615.615 0 1 1 .316 1.188.615.615 0 0 1-.316-1.188zM89.445 133.8a.613.613 0 1 1 .318 1.185.613.613 0 1 1-.318-1.185zM91.587 141.793a.613.613 0 1 1 .32 1.185.613.613 0 0 1-.32-1.185zM93.73 149.788a.613.613 0 1 1 .318 1.185.613.613 0 0 1-.318-1.185zM95.872 157.782a.614.614 0 1 1 .317 1.186.614.614 0 0 1-.317-1.186zM54.14 49.005a.614.614 0 1 1 .317 1.186.614.614 0 0 1-.317-1.186zM56.282 56.999a.614.614 0 1 1 .318 1.186.614.614 0 0 1-.318-1.186zM58.424 64.994a.614.614 0 1 1 .318 1.186.614.614 0 0 1-.318-1.186zM60.566 72.988a.613.613 0 1 1 .319 1.184.613.613 0 0 1-.319-1.184zM62.708 80.982a.614.614 0 1 1 .318 1.186.614.614 0 0 1-.318-1.186zM64.85 88.977a.614.614 0 1 1 .318 1.187.614.614 0 0 1-.318-1.187zM66.992 96.971a.614.614 0 1 1 .318 1.187.614.614 0 0 1-.318-1.187zM69.135 104.967a.613.613 0 1 1 .318 1.185.613.613 0 0 1-.318-1.185zM71.277 112.962a.613.613 0 1 1 .319 1.184.613.613 0 0 1-.32-1.184zM73.419 120.956a.613.613 0 1 1 .319 1.185.613.613 0 0 1-.32-1.185zM75.561 128.95a.614.614 0 1 1 .318 1.187.614.614 0 0 1-.318-1.187zM77.703 136.945a.613.613 0 1 1 .32 1.185.613.613 0 0 1-.32-1.185zM79.845 144.939a.614.614 0 1 1 .318 1.187.614.614 0 0 1-.318-1.187zM81.988 152.934a.613.613 0 1 1 .318 1.185.613.613 0 1 1-.318-1.185zM84.13 160.928a.615.615 0 1 1 .316 1.188.615.615 0 0 1-.316-1.188zM42.399 52.151a.614.614 0 1 1 .317 1.187.614.614 0 0 1-.317-1.187zM44.54 60.144a.614.614 0 1 1 .318 1.187.614.614 0 0 1-.317-1.187zM46.683 68.14A.614.614 0 1 1 47 69.325a.614.614 0 0 1-.318-1.187zM48.825 76.135a.613.613 0 1 1 .319 1.184.613.613 0 0 1-.319-1.184zM50.967 84.129a.614.614 0 1 1 .318 1.186.614.614 0 0 1-.318-1.186zM53.11 92.124a.614.614 0 1 1 .317 1.186.614.614 0 0 1-.318-1.186zM55.251 100.118a.614.614 0 1 1 .318 1.186.614.614 0 0 1-.318-1.186zM57.394 108.112a.614.614 0 1 1 .317 1.187.614.614 0 0 1-.317-1.187zM59.536 116.107a.614.614 0 1 1 .318 1.186.614.614 0 0 1-.318-1.186zM61.678 124.101a.615.615 0 1 1 .316 1.188.615.615 0 0 1-.316-1.188zM63.82 132.096a.615.615 0 1 1 .316 1.188.615.615 0 0 1-.316-1.188zM65.962 140.092a.613.613 0 1 1 .318 1.185.613.613 0 1 1-.318-1.185zM68.104 148.086a.613.613 0 1 1 .319 1.185.613.613 0 0 1-.319-1.185zM70.246 156.081a.613.613 0 1 1 .32 1.185.613.613 0 0 1-.32-1.185zM72.388 164.074a.614.614 0 1 1 .318 1.187.614.614 0 0 1-.318-1.187zM30.657 55.297a.614.614 0 1 1 .317 1.186.614.614 0 0 1-.317-1.186zM32.799 63.29a.614.614 0 1 1 .317 1.187.614.614 0 0 1-.317-1.186zM34.94 71.286a.614.614 0 1 1 .319 1.186.614.614 0 0 1-.318-1.186zM37.083 79.281a.613.613 0 1 1 .32 1.184.613.613 0 0 1-.32-1.184zM39.225 87.275a.614.614 0 1 1 .318 1.187.614.614 0 0 1-.318-1.187zM41.367 95.27a.614.614 0 1 1 .318 1.187.614.614 0 0 1-.318-1.187zM43.51 103.263a.615.615 0 1 1 .316 1.188.615.615 0 0 1-.317-1.188zM45.651 111.259a.613.613 0 1 1 .32 1.185.613.613 0 0 1-.32-1.185zM47.794 119.254a.613.613 0 1 1 .319 1.184.613.613 0 0 1-.32-1.184zM49.936 127.248a.613.613 0 1 1 .318 1.185.613.613 0 0 1-.318-1.185zM52.078 135.243a.614.614 0 1 1 .318 1.187.614.614 0 0 1-.318-1.187zM54.22 143.238a.613.613 0 1 1 .32 1.184.613.613 0 0 1-.32-1.184zM56.362 151.231a.614.614 0 1 1 .318 1.186.614.614 0 0 1-.318-1.186zM58.505 159.226a.613.613 0 1 1 .318 1.185.612.612 0 1 1-.319-1.185zM60.647 167.22a.615.615 0 1 1 .316 1.188.615.615 0 0 1-.316-1.188zM18.915 58.443a.614.614 0 1 1 .317 1.187.614.614 0 0 1-.317-1.187zM21.056 66.437a.614.614 0 1 1 .318 1.187.614.614 0 0 1-.317-1.187zM23.199 74.432a.614.614 0 1 1 .317 1.187.614.614 0 0 1-.317-1.187zM25.341 82.427a.613.613 0 1 1 .319 1.184.613.613 0 0 1-.319-1.184zM27.483 90.42a.614.614 0 1 1 .318 1.187.614.614 0 0 1-.318-1.186zM29.625 98.416a.614.614 0 1 1 .318 1.186.614.614 0 0 1-.318-1.186zM31.767 106.41a.614.614 0 1 1 .318 1.187.614.614 0 0 1-.318-1.187zM33.91 114.405a.614.614 0 1 1 .317 1.187.614.614 0 0 1-.317-1.187zM36.052 122.4a.614.614 0 1 1 .318 1.186.614.614 0 0 1-.318-1.186zM38.194 130.394a.615.615 0 1 1 .316 1.189.615.615 0 0 1-.316-1.189zM40.336 138.388a.615.615 0 1 1 .316 1.188.615.615 0 0 1-.316-1.188zM42.478 146.384a.612.612 0 1 1 .318 1.185.613.613 0 1 1-.318-1.185zM44.62 154.378a.613.613 0 1 1 .319 1.185.613.613 0 0 1-.319-1.185zM46.762 162.373a.613.613 0 1 1 .32 1.185.613.613 0 0 1-.32-1.185zM48.904 170.367a.614.614 0 1 1 .318 1.186.614.614 0 0 1-.318-1.186zM128.726 24.586a.613.613 0 1 1 .319 1.184.613.613 0 0 1-.319-1.184zM130.869 32.58a.614.614 0 1 1 .317 1.188.614.614 0 0 1-.317-1.187zM133.011 40.575a.615.615 0 1 1 .317 1.187.615.615 0 0 1-.317-1.187zM135.153 48.57a.614.614 0 1 1 .317 1.187.614.614 0 0 1-.317-1.187zM137.295 56.565a.613.613 0 1 1 .32 1.185.613.613 0 0 1-.32-1.185zM139.437 64.56a.614.614 0 1 1 .318 1.186.614.614 0 0 1-.318-1.187zM141.579 72.553a.614.614 0 1 1 .318 1.186.614.614 0 0 1-.318-1.186zM143.721 80.548a.614.614 0 1 1 .318 1.185.614.614 0 0 1-.318-1.185zM145.864 88.543a.614.614 0 1 1 .317 1.187.614.614 0 0 1-.317-1.187zM148.006 96.538a.615.615 0 1 1 .317 1.187.615.615 0 0 1-.317-1.187zM150.148 104.532a.615.615 0 1 1 .317 1.187.615.615 0 0 1-.317-1.187zM152.29 112.527a.614.614 0 1 1 .318 1.186.614.614 0 0 1-.318-1.186zM154.432 120.521a.613.613 0 1 1 .32 1.185.613.613 0 0 1-.32-1.185zM156.574 128.515a.614.614 0 1 1 .317 1.187.614.614 0 0 1-.317-1.187zM158.717 136.51a.614.614 0 1 1 0 0zM160.859 144.505a.614.614 0 1 1 .318 1.185.614.614 0 0 1-.318-1.185zM116.984 27.732a.613.613 0 1 1 .319 1.185.613.613 0 0 1-.319-1.185zM119.127 35.727a.614.614 0 1 1 .317 1.187.614.614 0 0 1-.317-1.187zM121.269 43.721a.614.614 0 1 1 .317 1.188.614.614 0 0 1-.317-1.188zM123.411 51.717a.615.615 0 1 1 .317 1.187.615.615 0 0 1-.317-1.188zM125.553 59.712a.613.613 0 1 1 .319 1.184.613.613 0 0 1-.319-1.184zM127.695 67.705a.614.614 0 1 1 .318 1.186.614.614 0 0 1-.318-1.186zM129.837 75.7a.614.614 0 1 1 .318 1.185.614.614 0 0 1-.318-1.185zM131.979 83.694a.614.614 0 1 1 .319 1.185.614.614 0 0 1-.319-1.185zM134.122 91.69a.614.614 0 1 1 .317 1.186.614.614 0 0 1-.317-1.187zM136.264 99.684a.614.614 0 1 1 0 0zM138.406 107.678a.615.615 0 0 1 .318 1.187.613.613 0 0 1-.751-.435.613.613 0 0 1 .433-.752zM140.548 115.674a.613.613 0 1 1 .319 1.184.613.613 0 0 1-.319-1.184zM142.69 123.668a.613.613 0 1 1 .32 1.183.613.613 0 0 1-.32-1.183zM144.832 131.662a.614.614 0 1 1 .318 1.185.614.614 0 0 1-.318-1.185zM146.975 139.657a.615.615 0 1 1 .317 1.187.615.615 0 0 1-.317-1.187zM149.117 147.651a.615.615 0 1 1 .317 1.187.615.615 0 0 1-.317-1.187zM105.243 30.879a.614.614 0 1 1 .318 1.185.614.614 0 0 1-.318-1.185zM107.386 38.873a.614.614 0 1 1 .317 1.187.614.614 0 0 1-.317-1.187zM109.528 46.867a.615.615 0 1 1 .317 1.187.615.615 0 0 1-.317-1.187zM111.67 54.862a.615.615 0 1 1 .317 1.188.615.615 0 0 1-.317-1.188zM113.812 62.857a.613.613 0 1 1 .32 1.185.613.613 0 0 1-.32-1.185zM115.954 70.851a.614.614 0 1 1 .317 1.188.614.614 0 0 1-.317-1.188zM118.096 78.846a.614.614 0 1 1 .318 1.185.614.614 0 0 1-.318-1.185zM120.238 86.84a.614.614 0 1 1 .319 1.186.614.614 0 0 1-.319-1.185zM122.381 94.835a.614.614 0 1 1 .317 1.187.614.614 0 0 1-.317-1.187zM124.523 102.83a.615.615 0 0 1 .752.433.615.615 0 0 1-1.186.318.614.614 0 0 1 .434-.751zM126.665 110.824a.615.615 0 1 1 .317 1.187.615.615 0 0 1-.317-1.187zM128.807 118.819a.615.615 0 1 1 .317 1.187.615.615 0 0 1-.317-1.187zM130.949 126.814a.613.613 0 1 1 .32 1.185.613.613 0 0 1-.32-1.185zM133.091 134.808a.614.614 0 1 1 .317 1.187.614.614 0 0 1-.317-1.187zM135.234 142.803a.614.614 0 1 1 0 0zM137.375 150.797a.613.613 0 1 1 .32 1.183.613.613 0 0 1-.32-1.183zM93.502 34.025a.613.613 0 1 1 .317 1.184.613.613 0 0 1-.317-1.184zM95.644 42.019a.613.613 0 1 1 .317 1.185.613.613 0 0 1-.317-1.185zM97.787 50.013a.613.613 0 1 1 .316 1.185.613.613 0 0 1-.316-1.185zM99.929 58.008a.614.614 0 1 1 .317 1.186.614.614 0 0 1-.317-1.186zM102.071 66.003a.612.612 0 1 1 .318 1.183.612.612 0 0 1-.318-1.183zM104.213 73.998a.614.614 0 1 1 .316 1.185.614.614 0 0 1-.316-1.186zM106.355 81.993a.613.613 0 1 1 .318 1.183.613.613 0 0 1-.318-1.183zM108.497 89.987a.613.613 0 0 1 .751.434.613.613 0 1 1-1.185.318.614.614 0 0 1 .434-.752zM110.639 97.98a.613.613 0 0 1 .751.435.612.612 0 1 1-1.185.318.615.615 0 0 1 .434-.752zM112.782 105.976a.612.612 0 1 1 .317 1.185.615.615 0 0 1-.317-1.185zM114.924 113.97a.613.613 0 1 1 .317 1.185.613.613 0 0 1-.317-1.185zM117.066 121.965a.614.614 0 1 1 .315 1.187.614.614 0 0 1-.315-1.187zM119.208 129.96a.613.613 0 1 1 .317 1.184.613.613 0 0 1-.317-1.184zM121.35 137.955a.613.613 0 1 1-.434.752.614.614 0 0 1 .434-.752zM123.493 145.95a.613.613 0 1 1 .317 1.185.613.613 0 0 1-.317-1.185zM125.634 153.943a.613.613 0 0 1 .751.434.613.613 0 1 1-1.185.318.614.614 0 0 1 .434-.752zM81.76 37.17a.613.613 0 1 1 .317 1.185.613.613 0 0 1-.317-1.185zM83.903 45.166a.613.613 0 1 1 .316 1.184.613.613 0 0 1-.316-1.184zM86.044 53.16a.613.613 0 1 1 .317 1.184.613.613 0 0 1-.317-1.184zM88.187 61.155a.613.613 0 1 1 .317 1.185.613.613 0 0 1-.317-1.185zM90.329 69.15a.612.612 0 1 1 .318 1.185.614.614 0 0 1-.318-1.185zM92.471 77.143a.613.613 0 1 1 .317 1.185.613.613 0 0 1-.317-1.185zM94.613 85.138a.613.613 0 1 1 .317 1.185.613.613 0 0 1-.317-1.185zM96.755 93.132a.613.613 0 1 1 .317 1.185.613.613 0 0 1-.317-1.185zM98.897 101.127a.614.614 0 1 1 .316 1.186.614.614 0 0 1-.316-1.186zM101.04 109.123a.613.613 0 1 1-.435.751.614.614 0 0 1 .435-.751zM103.182 117.117a.613.613 0 1 1 .317 1.185.613.613 0 0 1-.317-1.185zM105.324 125.112a.613.613 0 1 1 .317 1.185.613.613 0 0 1-.317-1.185zM107.466 133.106a.612.612 0 1 1 .318 1.185.614.614 0 1 1-.318-1.185zM109.608 141.1a.613.613 0 1 1 .317 1.184.613.613 0 0 1-.317-1.184zM111.75 149.095a.612.612 0 1 1 .318 1.185.613.613 0 1 1-.318-1.185zM113.892 157.089a.613.613 0 1 1 .317 1.185.613.613 0 0 1-.317-1.185zM70.018 40.317a.614.614 0 1 1 .318 1.187.614.614 0 0 1-.318-1.187zM72.16 48.312a.614.614 0 1 1 .318 1.187.614.614 0 0 1-.318-1.187zM74.302 56.306a.614.614 0 1 1 .318 1.187.614.614 0 0 1-.318-1.187zM76.445 64.3a.614.614 0 1 1 .317 1.187.614.614 0 0 1-.317-1.186zM78.587 72.296a.613.613 0 1 1 .319 1.184.613.613 0 0 1-.32-1.184zM80.729 80.29a.614.614 0 1 1 .318 1.186.614.614 0 0 1-.318-1.186zM82.871 88.285a.614.614 0 1 1 .318 1.187.614.614 0 0 1-.318-1.187zM85.013 96.279a.614.614 0 1 1 .318 1.187.614.614 0 0 1-.318-1.187zM87.155 104.274a.614.614 0 1 1 .318 1.187.614.614 0 0 1-.318-1.187zM89.298 112.268a.614.614 0 1 1 0 0zM91.44 120.262a.615.615 0 1 1 .316 1.188.615.615 0 0 1-.316-1.188zM93.582 128.258a.613.613 0 1 1 .319 1.185.613.613 0 0 1-.32-1.185zM95.724 136.253a.613.613 0 1 1 .318 1.185.614.614 0 0 1-.318-1.185zM97.866 144.247a.614.614 0 1 1 .318 1.187.614.614 0 0 1-.318-1.187zM100.008 152.242a.614.614 0 1 1 .318 1.185.614.614 0 0 1-.318-1.185zM102.15 160.236a.614.614 0 1 1 .318 1.185.614.614 0 0 1-.318-1.185zM135.112 27.308a.614.614 0 1 1 .318 1.186.614.614 0 0 1-.318-1.186zM137.254 35.301a.613.613 0 1 1 .319 1.185.613.613 0 0 1-.319-1.184zM139.397 43.297a.614.614 0 1 1 .317 1.187.614.614 0 0 1-.317-1.187zM141.539 51.292a.614.614 0 1 1 .318 1.186.614.614 0 0 1-.318-1.186zM143.681 59.286a.614.614 0 1 1 .317 1.187.614.614 0 0 1-.317-1.187zM145.823 67.281a.614.614 0 1 1 .318 1.186.614.614 0 0 1-.318-1.186zM147.965 75.275a.614.614 0 1 1 .318 1.186.614.614 0 0 1-.318-1.186zM150.107 83.27a.614.614 0 1 1 .319 1.184.614.614 0 0 1-.319-1.185zM152.25 91.264a.613.613 0 1 1 .318 1.185.613.613 0 0 1-.318-1.185zM154.392 99.258a.614.614 0 1 1 .317 1.188.614.614 0 0 1-.317-1.188zM156.534 107.254a.614.614 0 1 1 .318 1.185.614.614 0 0 1-.318-1.185zM158.676 115.249a.613.613 0 1 1 .32 1.185.613.613 0 0 1-.32-1.185zM160.818 123.243a.614.614 0 1 1 .318 1.186.614.614 0 0 1-.318-1.186zM162.96 131.238a.614.614 0 1 1 .318 1.185.614.614 0 0 1-.318-1.185zM165.102 139.231a.614.614 0 1 1 .318 1.185.614.614 0 0 1-.318-1.185zM123.371 30.454a.613.613 0 1 1 .317 1.185.613.613 0 0 1-.317-1.185zM125.513 38.448a.613.613 0 1 1 .317 1.185.613.613 0 0 1-.317-1.185zM127.656 46.443a.614.614 0 1 1 .315 1.187.614.614 0 0 1-.315-1.187zM129.798 54.438a.614.614 0 1 1 .317 1.185.614.614 0 0 1-.317-1.185zM131.94 62.432a.614.614 0 1 1 .316 1.187.614.614 0 0 1-.316-1.187zM134.082 70.427a.614.614 0 1 1 .316 1.186.614.614 0 0 1-.316-1.186zM136.224 78.421a.614.614 0 1 1 .316 1.186.614.614 0 0 1-.316-1.186zM138.366 86.415a.613.613 0 1 1 .317 1.186.613.613 0 0 1-.317-1.186zM140.509 94.41a.613.613 0 1 1 .316 1.185.613.613 0 0 1-.316-1.184zM142.651 102.405a.614.614 0 1 1 .316 1.186.614.614 0 0 1-.316-1.186zM144.793 110.4a.614.614 0 1 1 .316 1.186.614.614 0 0 1-.316-1.186zM146.935 118.395a.614.614 0 1 1 .317 1.186.614.614 0 0 1-.317-1.186zM149.077 126.389a.615.615 0 1 1 .315 1.188.615.615 0 0 1-.315-1.188zM151.219 134.384a.614.614 0 1 1 .316 1.186.614.614 0 0 1-.316-1.186zM153.361 142.377a.614.614 0 1 1 .315 1.187.614.614 0 0 1-.315-1.187zM111.63 33.6a.613.613 0 1 1 .318 1.183.613.613 0 0 1-.318-1.183zM113.772 41.594a.613.613 0 0 1 .751.435.612.612 0 1 1-1.185.317.614.614 0 0 1 .434-.752zM115.915 49.59a.614.614 0 1 1 .316 1.185.614.614 0 0 1-.316-1.186zM118.057 57.584a.612.612 0 1 1-.435.751.614.614 0 0 1 .435-.752zM120.199 65.578a.614.614 0 1 1 .316 1.185.614.614 0 0 1-.316-1.185zM122.341 73.573a.614.614 0 1 1 .316 1.185.614.614 0 0 1-.316-1.185zM124.483 81.567a.613.613 0 1 1 .317 1.185.613.613 0 0 1-.317-1.185zM126.625 89.562a.613.613 0 1 1 .317 1.184.613.613 0 0 1-.317-1.184zM128.767 97.557a.613.613 0 1 1 .318 1.184.613.613 0 0 1-.318-1.184zM130.909 105.551a.612.612 0 0 1 .751.435.614.614 0 1 1-.751-.435zM133.052 113.545a.614.614 0 1 1 .315 1.187.614.614 0 0 1-.315-1.187zM135.194 121.54a.614.614 0 1 1 .316 1.187.614.614 0 0 1-.316-1.187zM137.336 129.535a.613.613 0 1 1 .317 1.185.613.613 0 0 1-.317-1.185zM139.478 137.53a.613.613 0 1 1 .317 1.184.613.613 0 0 1-.317-1.184zM141.62 145.524a.613.613 0 1 1 .317 1.184.613.613 0 0 1-.317-1.184zM99.888 36.747a.613.613 0 1 1 .318 1.185.613.613 0 0 1-.318-1.185zM102.03 44.74a.614.614 0 1 1 .318 1.186.614.614 0 0 1-.318-1.186zM104.172 52.735a.614.614 0 1 1 .318 1.185.614.614 0 0 1-.318-1.185zM106.315 60.73a.612.612 0 1 1 .317 1.185.614.614 0 0 1-.317-1.185zM108.457 68.724a.614.614 0 1 1 .317 1.188.614.614 0 0 1-.317-1.188zM110.599 76.72a.614.614 0 1 1 .317 1.187.614.614 0 0 1-.317-1.188zM112.741 84.714a.614.614 0 1 1 .317 1.187.614.614 0 0 1-.317-1.187zM114.883 92.708a.614.614 0 1 1 .318 1.186.614.614 0 0 1-.318-1.186zM117.025 100.703a.614.614 0 1 1 .319 1.185.614.614 0 0 1-.319-1.185zM119.167 108.697a.614.614 0 1 1 .318 1.185.614.614 0 0 1-.318-1.185zM121.31 116.692a.615.615 0 1 1 .317 1.187.615.615 0 0 1-.317-1.187zM123.452 124.687a.614.614 0 1 1 .319 1.186.614.614 0 0 1-.319-1.186zM125.594 132.681a.615.615 0 0 1 .318 1.187.614.614 0 0 1-.318-1.187zM127.736 140.676a.615.615 0 1 1 .316 1.188.615.615 0 0 1-.316-1.188zM129.878 148.67a.614.614 0 1 1 .318 1.185.614.614 0 0 1-.318-1.185zM88.146 39.892a.614.614 0 1 1 .318 1.187.614.614 0 0 1-.318-1.187zM90.288 47.886a.614.614 0 1 1 .318 1.187.614.614 0 0 1-.318-1.187zM92.43 55.882a.614.614 0 1 1 .318 1.186.614.614 0 0 1-.318-1.186zM94.573 63.877a.613.613 0 1 1 .318 1.184.613.613 0 0 1-.318-1.184zM96.715 71.87a.614.614 0 1 1 .317 1.187.614.614 0 0 1-.317-1.186zM98.857 79.866a.614.614 0 1 1 .317 1.187.614.614 0 0 1-.317-1.187zM100.999 87.86a.614.614 0 1 1 .317 1.186.614.614 0 0 1-.317-1.187zM103.141 95.854a.615.615 0 1 1 .317 1.188.615.615 0 0 1-.317-1.188zM105.283 103.849a.614.614 0 1 1 .317 1.187.614.614 0 0 1-.317-1.187zM107.425 111.843a.614.614 0 1 1 .317 1.187.614.614 0 0 1-.317-1.187zM109.568 119.839a.614.614 0 1 1 .318 1.185.614.614 0 0 1-.318-1.185zM111.71 127.834a.614.614 0 1 1 .319 1.186.614.614 0 0 1-.319-1.186zM113.852 135.827a.615.615 0 1 1 .317 1.187.615.615 0 0 1-.317-1.187zM115.994 143.822a.614.614 0 1 1 .318 1.186.614.614 0 0 1-.318-1.186zM118.136 151.816a.615.615 0 1 1 .317 1.187.615.615 0 0 1-.317-1.187zM76.405 43.039a.614.614 0 1 1 .318 1.186.614.614 0 0 1-.318-1.186zM78.547 51.033a.614.614 0 1 1 .318 1.187.614.614 0 0 1-.318-1.187zM80.69 59.028a.614.614 0 1 1 .317 1.186.614.614 0 0 1-.318-1.186zM82.832 67.022a.613.613 0 1 1 .318 1.185.613.613 0 0 1-.319-1.185zM84.974 75.016a.614.614 0 1 1 .317 1.187.614.614 0 0 1-.317-1.187zM87.116 83.011a.614.614 0 1 1 .318 1.187.614.614 0 0 1-.318-1.186zM89.258 91.006a.614.614 0 1 1 .317 1.186.614.614 0 0 1-.317-1.186zM91.4 99a.614.614 0 1 1 .318 1.187.614.614 0 0 1-.318-1.186zM93.542 106.996a.614.614 0 1 1 .318 1.186.614.614 0 0 1-.318-1.186zM95.684 114.99a.614.614 0 1 1 .318 1.186.614.614 0 0 1-.318-1.186zM97.826 122.984a.614.614 0 1 1 .318 1.187.614.614 0 0 1-.318-1.187zM99.969 130.979a.613.613 0 1 1 .317 1.185.613.613 0 1 1-.317-1.185zM102.111 138.973a.615.615 0 0 1 .318 1.187.614.614 0 0 1-.318-1.187zM104.253 146.968a.615.615 0 0 1 .318 1.186.614.614 0 0 1-.318-1.186zM106.395 154.963a.614.614 0 1 1 .318 1.185.614.614 0 0 1-.318-1.185zM93.858 171.375a.614.614 0 1 1 .315 1.186.614.614 0 0 1-.316-1.186zM96 179.371a.613.613 0 1 1 .317 1.185.613.613 0 0 1-.317-1.185zM98.142 187.365a.613.613 0 1 1 .317 1.185.613.613 0 0 1-.317-1.185zM100.284 195.36a.613.613 0 1 1 .317 1.185.613.613 0 0 1-.317-1.185zM102.426 203.354a.612.612 0 1 1 .318 1.185.614.614 0 1 1-.318-1.185zM104.568 211.348a.613.613 0 1 1 .317 1.184.613.613 0 0 1-.317-1.184zM106.71 219.343a.612.612 0 1 1 .318 1.185.613.613 0 1 1-.318-1.185zM108.852 227.337a.613.613 0 1 1 .317 1.185.613.613 0 0 1-.317-1.185zM110.995 235.332a.614.614 0 1 1 .315 1.187.614.614 0 0 1-.315-1.187zM82.115 174.522a.613.613 0 1 1 .318 1.184.613.613 0 0 1-.318-1.184zM84.258 182.517a.613.613 0 1 1 .317 1.184.613.613 0 0 1-.317-1.184zM86.4 190.511a.613.613 0 1 1 .317 1.184.613.613 0 0 1-.317-1.184zM88.542 198.505a.614.614 0 1 1 .316 1.186.614.614 0 0 1-.316-1.186zM90.684 206.5a.613.613 0 1 1 .317 1.184.613.613 0 0 1-.317-1.184zM92.826 214.495a.613.613 0 1 1 .317 1.185.613.613 0 0 1-.317-1.185zM94.968 222.49a.613.613 0 1 1 .318 1.184.613.613 0 0 1-.318-1.184zM97.11 230.484a.613.613 0 1 1 .318 1.185.613.613 0 0 1-.318-1.185zM99.253 238.479a.614.614 0 1 1 .317 1.186.614.614 0 0 1-.317-1.186zM70.373 177.668a.613.613 0 1 1 .32 1.185.613.613 0 0 1-.32-1.185zM72.516 185.663a.614.614 0 1 1 .317 1.186.614.614 0 0 1-.317-1.186zM74.658 193.657a.614.614 0 1 1 .317 1.187.614.614 0 0 1-.317-1.187zM76.8 201.652a.614.614 0 1 1 .317 1.187.614.614 0 0 1-.317-1.187zM78.942 209.647a.613.613 0 1 1 .319 1.184.613.613 0 0 1-.319-1.184zM81.084 217.641a.615.615 0 1 1 .317 1.189.615.615 0 0 1-.317-1.189zM83.226 225.635a.615.615 0 1 1 .317 1.188.615.615 0 0 1-.317-1.188zM85.368 233.63a.613.613 0 1 1 .319 1.185.613.613 0 0 1-.319-1.185zM87.51 241.625a.613.613 0 1 1 .32 1.185.613.613 0 0 1-.32-1.185zM58.632 180.814A.614.614 0 1 1 58.95 182a.614.614 0 0 1-.318-1.186zM60.775 188.809a.613.613 0 1 1 .318 1.185.613.613 0 1 1-.319-1.185zM62.916 196.803a.615.615 0 1 1 .317 1.188.615.615 0 0 1-.316-1.188zM65.059 204.798a.613.613 0 1 1 .319 1.185.613.613 0 0 1-.32-1.185zM67.201 212.793a.612.612 0 1 1 .318 1.185.614.614 0 0 1-.318-1.185zM69.343 220.787a.614.614 0 1 1 .318 1.186.614.614 0 0 1-.318-1.186zM71.485 228.782a.614.614 0 1 1 .318 1.187.614.614 0 0 1-.318-1.187zM73.627 236.776a.614.614 0 1 1 .318 1.187.614.614 0 0 1-.318-1.187zM75.77 244.771a.614.614 0 1 1 .317 1.187.614.614 0 0 1-.318-1.187zM46.89 183.961a.613.613 0 1 1 .319 1.185.613.613 0 0 1-.319-1.185zM49.032 191.956a.614.614 0 1 1 .318 1.187.614.614 0 0 1-.318-1.187zM51.174 199.949a.614.614 0 1 1 .318 1.186.614.614 0 0 1-.318-1.186zM53.317 207.944a.614.614 0 1 1 .317 1.186.614.614 0 0 1-.317-1.186zM55.459 215.939a.613.613 0 1 1 .319 1.185.613.613 0 0 1-.32-1.185zM57.6 223.933a.615.615 0 1 1 .318 1.188.615.615 0 0 1-.317-1.188zM59.743 231.928a.615.615 0 1 1 .316 1.188.615.615 0 0 1-.316-1.188zM61.885 239.923a.613.613 0 1 1 .319 1.185.613.613 0 0 1-.319-1.185zM64.027 247.917a.613.613 0 1 1 .32 1.185.613.613 0 0 1-.32-1.185zM98.101 166.102a.615.615 0 1 1 .317 1.189.615.615 0 0 1-.317-1.189zM100.243 174.097a.614.614 0 1 1 .317 1.187.614.614 0 0 1-.317-1.187zM102.385 182.092a.613.613 0 1 1 .32 1.183.613.613 0 0 1-.32-1.183zM104.528 190.087a.614.614 0 1 1 .318 1.185.614.614 0 0 1-.318-1.185zM106.67 198.082a.613.613 0 1 1 .317 1.185.615.615 0 0 1-.317-1.185zM108.812 206.075a.615.615 0 1 1 .317 1.187.615.615 0 0 1-.317-1.187zM110.954 214.07a.614.614 0 1 1 .318 1.186.614.614 0 0 1-.318-1.186zM113.096 222.064a.614.614 0 1 1 .318 1.186.614.614 0 0 1-.318-1.186zM115.238 230.059a.614.614 0 1 1 .317 1.187.614.614 0 0 1-.317-1.187zM86.36 169.249a.613.613 0 1 1 .318 1.185.613.613 0 0 1-.319-1.185zM88.501 177.244a.614.614 0 1 1 .318 1.186.614.614 0 0 1-.318-1.186zM90.643 185.238a.614.614 0 1 1 .318 1.187.614.614 0 0 1-.318-1.187zM92.786 193.233a.614.614 0 1 1 .317 1.187.614.614 0 0 1-.317-1.187zM94.928 201.228a.614.614 0 1 1 .318 1.187.614.614 0 0 1-.318-1.187zM97.07 209.221a.615.615 0 1 1 .316 1.188.615.615 0 0 1-.316-1.188zM99.212 217.217a.613.613 0 1 1 .319 1.185.613.613 0 0 1-.319-1.185zM101.354 225.211a.614.614 0 1 1 .318 1.185.614.614 0 0 1-.318-1.185zM103.496 233.206a.614.614 0 1 1 .318 1.185.614.614 0 0 1-.318-1.185zM74.618 172.394a.615.615 0 1 1 .316 1.189.615.615 0 0 1-.316-1.189zM76.76 180.389a.615.615 0 1 1 .317 1.188.615.615 0 0 1-.317-1.188zM78.902 188.384a.613.613 0 1 1 .319 1.185.613.613 0 0 1-.319-1.185zM81.044 196.379a.613.613 0 1 1 .32 1.185.613.613 0 0 1-.32-1.185zM83.187 204.374a.612.612 0 1 1 .317 1.185.614.614 0 0 1-.317-1.185zM85.329 212.368a.614.614 0 1 1 .317 1.187.614.614 0 0 1-.317-1.187zM87.47 220.363a.614.614 0 1 1 .319 1.186.614.614 0 0 1-.318-1.186zM89.613 228.356a.614.614 0 1 1 .318 1.186.614.614 0 0 1-.318-1.186zM91.755 236.351a.615.615 0 1 1 .317 1.189.615.615 0 0 1-.317-1.189zM62.876 175.541a.613.613 0 1 1 .319 1.185.613.613 0 0 1-.32-1.185zM65.018 183.536a.614.614 0 1 1 .318 1.187.614.614 0 0 1-.318-1.187zM67.16 191.53a.614.614 0 1 1 .318 1.187.614.614 0 0 1-.318-1.187zM69.302 199.525a.614.614 0 1 1 .318 1.186.614.614 0 0 1-.318-1.186zM71.445 207.52a.614.614 0 1 1 .317 1.186.614.614 0 0 1-.317-1.186zM73.587 215.514a.615.615 0 1 1 .316 1.188.615.615 0 0 1-.316-1.188zM75.729 223.51a.613.613 0 1 1 .319 1.185.613.613 0 0 1-.32-1.185zM77.87 231.503a.613.613 0 1 1 .32 1.185.613.613 0 0 1-.32-1.185zM80.013 239.498a.614.614 0 1 1 .318 1.187.614.614 0 0 1-.318-1.187zM51.134 178.687a.614.614 0 1 1 .318 1.187.614.614 0 0 1-.318-1.187zM53.276 186.682a.615.615 0 1 1 .316 1.188.615.615 0 0 1-.316-1.188zM55.418 194.676a.615.615 0 1 1 .316 1.188.615.615 0 0 1-.316-1.188zM57.56 202.672a.613.613 0 1 1 .32 1.185.613.613 0 0 1-.32-1.185zM59.703 210.667a.612.612 0 1 1 .317 1.185.614.614 0 0 1-.317-1.185zM61.845 218.66a.614.614 0 1 1 .317 1.187.614.614 0 0 1-.317-1.187zM63.987 226.655a.614.614 0 1 1 .317 1.187.614.614 0 0 1-.317-1.187zM66.129 234.649a.614.614 0 1 1 .318 1.186.614.614 0 0 1-.318-1.186zM68.271 242.644a.615.615 0 1 1 .317 1.188.615.615 0 0 1-.317-1.188zM163.088 152.825a.614.614 0 1 1 .318 1.186.614.614 0 0 1-.318-1.186zM165.23 160.82a.614.614 0 1 1 .318 1.185.614.614 0 0 1-.318-1.185zM167.372 168.814a.614.614 0 1 1 .318 1.185.614.614 0 0 1-.318-1.185zM169.515 176.809a.614.614 0 1 1 0 0zM171.657 184.804a.615.615 0 1 1 .317 1.187.615.615 0 0 1-.317-1.187zM173.799 192.799a.614.614 0 1 1 .318 1.185.614.614 0 0 1-.318-1.185zM175.941 200.793a.614.614 0 1 1 .318 1.185.614.614 0 0 1-.318-1.185zM178.083 208.787a.615.615 0 1 1 .317 1.187.615.615 0 0 1-.317-1.187zM180.225 216.782a.614.614 0 1 1 .318 1.186.614.614 0 0 1-.318-1.186zM151.346 155.971a.615.615 0 0 1 .318 1.187.614.614 0 0 1-.318-1.187zM153.488 163.967a.613.613 0 1 1 .32 1.183.613.613 0 0 1-.32-1.183zM155.63 171.961a.613.613 0 1 1 .318 1.186.613.613 0 0 1-.318-1.186zM157.772 179.956a.614.614 0 1 1 .318 1.185.614.614 0 0 1-.318-1.185zM159.915 187.95a.612.612 0 1 1 .317 1.185.613.613 0 0 1-.317-1.185zM162.057 195.944a.615.615 0 1 1 .317 1.187.615.615 0 0 1-.317-1.187zM164.199 203.939a.615.615 0 1 1 .317 1.187.615.615 0 0 1-.317-1.187zM166.341 211.933a.615.615 0 0 1 .318 1.186.614.614 0 1 1-.318-1.186zM168.483 219.928a.615.615 0 0 1 .318 1.187.614.614 0 0 1-.318-1.187zM139.605 159.118a.615.615 0 1 1 .317 1.187.615.615 0 0 1-.317-1.187zM141.747 167.113a.614.614 0 1 1 .318 1.185.614.614 0 0 1-.318-1.185zM143.889 175.106a.614.614 0 1 1 .318 1.186.614.614 0 0 1-.318-1.186zM146.031 183.101a.614.614 0 1 1 .317 1.187.614.614 0 0 1-.317-1.187zM148.174 191.096a.613.613 0 1 1 .317 1.184.613.613 0 0 1-.317-1.184zM150.316 199.091a.614.614 0 1 1 .318 1.185.614.614 0 0 1-.318-1.185zM152.458 207.086a.614.614 0 1 1 .318 1.185.614.614 0 0 1-.318-1.185zM154.6 215.08a.615.615 0 1 1 .317 1.187.615.615 0 0 1-.317-1.187zM156.742 223.074a.614.614 0 1 1 .318 1.186.614.614 0 0 1-.318-1.186zM127.864 162.263a.613.613 0 1 1 .317 1.185.613.613 0 0 1-.317-1.185zM130.006 170.258a.614.614 0 1 1 .316 1.186.614.614 0 0 1-.316-1.186zM132.148 178.252a.614.614 0 1 1 .316 1.186.614.614 0 0 1-.316-1.186zM134.29 186.248a.613.613 0 1 1-.434.752.614.614 0 0 1 .434-.752zM136.433 194.243a.613.613 0 1 1-.435.751.612.612 0 0 1 .435-.751zM138.575 202.237a.613.613 0 1 1 .317 1.185.613.613 0 0 1-.317-1.185zM140.717 210.231a.613.613 0 1 1 .317 1.185.613.613 0 0 1-.317-1.185zM142.859 218.225a.613.613 0 1 1 .317 1.185.613.613 0 0 1-.317-1.185zM145.001 226.22a.613.613 0 1 1 .317 1.185.613.613 0 0 1-.317-1.185zM116.122 165.41a.613.613 0 1 1 .317 1.185.613.613 0 0 1-.317-1.185zM118.264 173.405a.613.613 0 1 1 .317 1.184.613.613 0 0 1-.317-1.184zM120.406 181.399a.613.613 0 1 1 .317 1.184.613.613 0 0 1-.317-1.184zM122.548 189.394a.613.613 0 0 1 .751.434.613.613 0 1 1-1.185.318.615.615 0 0 1 .434-.752zM124.691 197.389a.611.611 0 0 1 .75.434.614.614 0 1 1-.75-.434zM126.833 205.383a.614.614 0 1 1 .315 1.187.614.614 0 0 1-.315-1.187zM128.975 213.377a.614.614 0 1 1 .315 1.187.614.614 0 0 1-.315-1.187zM131.117 221.372a.613.613 0 1 1 .317 1.185.613.613 0 0 1-.317-1.185zM133.259 229.367a.613.613 0 1 1 .317 1.185.613.613 0 0 1-.317-1.185zM104.38 168.556a.615.615 0 0 1 .318 1.187.614.614 0 0 1-.318-1.187zM106.522 176.551a.615.615 0 0 1 .318 1.186.614.614 0 0 1-.318-1.186zM108.664 184.545a.614.614 0 1 1 .318 1.185.614.614 0 0 1-.318-1.185zM110.806 192.54a.614.614 0 1 1 .318 1.186.614.614 0 0 1-.318-1.186zM112.948 200.535a.613.613 0 1 1 .32 1.185.613.613 0 0 1-.32-1.185zM115.091 208.529a.613.613 0 1 1 .317 1.184.613.613 0 0 1-.317-1.184zM117.233 216.524a.615.615 0 1 1 .317 1.187.615.615 0 0 1-.317-1.187zM119.375 224.518a.614.614 0 1 1 .317 1.185.614.614 0 0 1-.317-1.185zM121.517 232.512a.615.615 0 0 1 .318 1.187.615.615 0 0 1-.318-1.187zM167.332 147.552a.615.615 0 0 1 .318 1.187.613.613 0 0 1-.751-.435.613.613 0 0 1 .433-.752zM169.474 155.548a.613.613 0 1 1 .319 1.184.613.613 0 0 1-.319-1.184zM171.616 163.541a.614.614 0 1 1 .318 1.185.614.614 0 0 1-.318-1.185zM173.758 171.536a.614.614 0 1 1 .318 1.186.614.614 0 0 1-.318-1.186zM175.901 179.531a.612.612 0 1 1 .317 1.185.613.613 0 0 1-.317-1.185zM178.042 187.525a.614.614 0 1 1 .318 1.185.614.614 0 0 1-.318-1.185zM180.185 195.52a.615.615 0 1 1 .317 1.187.615.615 0 0 1-.317-1.187zM182.327 203.514a.615.615 0 0 1 .318 1.187.613.613 0 0 1-.751-.435.613.613 0 0 1 .433-.752zM184.469 211.509a.615.615 0 0 1 .318 1.187.614.614 0 0 1-.318-1.187zM155.591 150.698a.614.614 0 1 1 .316 1.186.614.614 0 0 1-.316-1.186zM157.733 158.693a.614.614 0 1 1 .316 1.186.614.614 0 0 1-.316-1.186zM159.875 166.687a.614.614 0 1 1 .316 1.186.614.614 0 0 1-.316-1.186zM162.017 174.682a.614.614 0 1 1 .315 1.187.614.614 0 0 1-.315-1.187zM164.159 182.677a.613.613 0 1 1 .317 1.185.613.613 0 0 1-.317-1.185zM166.301 190.671a.614.614 0 1 1 .316 1.186.614.614 0 0 1-.316-1.186zM168.444 198.666a.615.615 0 1 1 .315 1.188.615.615 0 0 1-.315-1.188zM170.586 206.66a.614.614 0 1 1 .316 1.186.614.614 0 0 1-.316-1.186zM172.728 214.655a.614.614 0 1 1 .316 1.186.614.614 0 0 1-.316-1.186zM143.85 153.844a.613.613 0 1 1 .317 1.185.613.613 0 0 1-.317-1.185zM145.992 161.839a.614.614 0 1 1 .315 1.187.614.614 0 0 1-.315-1.187zM148.134 169.833a.614.614 0 1 1 .315 1.187.614.614 0 0 1-.315-1.187zM150.276 177.829a.613.613 0 1 1 .317 1.184.613.613 0 0 1-.317-1.184zM152.418 185.824a.612.612 0 1 1 .319 1.183.612.612 0 0 1-.319-1.183zM154.56 193.817a.613.613 0 0 1 .751.434.613.613 0 1 1-1.185.318.614.614 0 0 1 .434-.752zM156.703 201.812a.613.613 0 1 1 .317 1.185.613.613 0 0 1-.317-1.185zM158.845 209.806a.613.613 0 1 1 .317 1.185.613.613 0 0 1-.317-1.185zM160.987 217.801a.613.613 0 1 1 .317 1.185.613.613 0 0 1-.317-1.185zM132.108 156.99a.615.615 0 1 1 .317 1.187.615.615 0 0 1-.317-1.187zM134.25 164.985a.615.615 0 1 1 .317 1.187.615.615 0 0 1-.317-1.187zM136.392 172.979a.615.615 0 1 1 .317 1.187.615.615 0 0 1-.317-1.187zM138.534 180.974a.615.615 0 0 1 .318 1.187.615.615 0 0 1-.318-1.187zM140.676 188.969a.614.614 0 1 1 .318 1.186.614.614 0 0 1-.318-1.186zM142.818 196.964a.613.613 0 1 1 .319 1.184.613.613 0 0 1-.319-1.184zM144.96 204.959a.614.614 0 1 1 .32 1.186.614.614 0 0 1-.32-1.186zM147.102 212.952a.614.614 0 1 1 .318 1.185.614.614 0 0 1-.318-1.185zM149.245 220.947a.615.615 0 1 1 .317 1.187.615.615 0 0 1-.317-1.187zM120.365 160.136a.614.614 0 1 1 .317 1.187.614.614 0 0 1-.317-1.187zM122.508 168.132a.614.614 0 1 1 .318 1.185.614.614 0 0 1-.318-1.185zM124.65 176.126a.614.614 0 1 1 .318 1.185.614.614 0 0 1-.318-1.185zM126.792 184.121a.615.615 0 1 1 .317 1.187.615.615 0 0 1-.317-1.187zM128.934 192.116a.613.613 0 1 1 .32 1.185.613.613 0 0 1-.32-1.185zM131.076 200.11a.614.614 0 1 1 .318 1.186.614.614 0 0 1-.318-1.186zM133.218 208.105a.613.613 0 1 1 .318 1.185.613.613 0 1 1-.318-1.185zM135.36 216.098a.614.614 0 1 1 .317 1.187.614.614 0 0 1-.317-1.187zM137.503 224.093a.615.615 0 0 1 .318 1.187.614.614 0 0 1-.318-1.187zM108.624 163.283a.614.614 0 1 1 .318 1.185.614.614 0 0 1-.318-1.185zM110.767 171.278a.615.615 0 1 1 .317 1.187.615.615 0 0 1-.317-1.187zM112.909 179.271a.615.615 0 1 1 .317 1.187.615.615 0 0 1-.317-1.187zM115.051 187.266a.615.615 0 0 1 .318 1.187.615.615 0 0 1-.318-1.187zM117.193 195.261a.614.614 0 1 1 .318 1.186.614.614 0 0 1-.318-1.186zM119.335 203.256a.613.613 0 1 1 .319 1.184.613.613 0 0 1-.319-1.184zM121.477 211.251a.613.613 0 1 1 .32 1.183.613.613 0 0 1-.32-1.183zM123.619 219.245a.614.614 0 1 1 .318 1.185.614.614 0 0 1-.318-1.185zM125.762 227.24a.615.615 0 1 1 .317 1.187.615.615 0 0 1-.317-1.187z" fill="#E6ECF2"/><path d="M4.014 46.045l56.698 211.599 132.454-35.49-56.698-211.6L4.014 46.044zM59.148 259.03L1.966 45.626a.935.935 0 0 1 .661-1.145l134.26-35.975a.936.936 0 0 1 1.145.66l57.182 213.407a.935.935 0 0 1-.661 1.145l-134.26 35.975a.935.935 0 0 1-1.145-.662z" fill="#EDEFF2"/><path d="M31.62 33.502c-.241-.9-1.074-1.462-1.856-1.253-.782.21-1.222 1.114-.981 2.013l2.3 8.588c.242.9 1.075 1.462 1.857 1.252.782-.21 1.222-1.112.98-2.012l-2.3-8.588zm-2.342 9.832l-2.302-8.588c-.508-1.896.526-3.827 2.304-4.303 1.777-.476 3.638.679 4.146 2.575l2.301 8.588c.508 1.896-.525 3.826-2.303 4.302-1.778.477-3.638-.678-4.146-2.574zM44.537 30.04c-.241-.898-1.073-1.461-1.855-1.252-.783.21-1.223 1.114-.982 2.013l2.301 8.588c.242.9 1.074 1.462 1.857 1.252.782-.21 1.221-1.112.98-2.012l-2.301-8.588zm-2.342 9.833l-2.301-8.588c-.508-1.896.525-3.826 2.304-4.303 1.778-.476 3.637.679 4.145 2.575l2.301 8.588c.509 1.896-.524 3.826-2.302 4.303-1.779.476-3.639-.679-4.147-2.575zM18.701 36.964c-.24-.9-1.073-1.462-1.855-1.253-.782.21-1.222 1.113-.98 2.013l2.3 8.588c.242.9 1.073 1.462 1.856 1.252.782-.21 1.222-1.112.98-2.012l-2.3-8.588zm-2.34 9.832l-2.302-8.588c-.508-1.896.525-3.827 2.303-4.303 1.778-.477 3.638.679 4.146 2.575l2.3 8.588c.509 1.896-.524 3.826-2.302 4.302-1.778.477-3.638-.678-4.146-2.574zM57.455 26.579c-.24-.9-1.074-1.462-1.856-1.252-.782.21-1.221 1.113-.98 2.012l2.3 8.588c.242.9 1.074 1.462 1.856 1.253.782-.21 1.223-1.113.982-2.013l-2.302-8.588zm-2.342 9.832l-2.3-8.588c-.509-1.896.524-3.826 2.302-4.303 1.778-.476 3.639.679 4.147 2.575l2.3 8.588c.509 1.896-.525 3.826-2.303 4.303-1.778.476-3.638-.679-4.146-2.575zM70.373 23.118c-.241-.9-1.074-1.462-1.856-1.252-.782.21-1.222 1.113-.981 2.012l2.3 8.588c.242.9 1.075 1.462 1.857 1.252.782-.209 1.222-1.112.98-2.012l-2.3-8.588zM68.03 32.95l-2.302-8.588c-.508-1.896.526-3.826 2.304-4.303 1.778-.476 3.638.679 4.146 2.575l2.301 8.588c.508 1.896-.525 3.826-2.303 4.303-1.778.476-3.638-.679-4.146-2.575zM83.29 19.657c-.242-.9-1.074-1.462-1.856-1.252-.783.21-1.223 1.113-.982 2.012l2.301 8.588c.242.9 1.074 1.462 1.857 1.253.782-.21 1.222-1.113.98-2.013l-2.3-8.588zm-2.343 9.832l-2.301-8.588c-.508-1.896.525-3.826 2.304-4.303 1.778-.476 3.637.679 4.145 2.575l2.302 8.588c.508 1.896-.525 3.826-2.303 4.303-1.779.476-3.639-.679-4.147-2.575zM96.208 16.195c-.24-.9-1.074-1.462-1.856-1.252-.781.21-1.222 1.113-.98 2.012l2.3 8.588c.242.9 1.075 1.462 1.856 1.253.782-.21 1.223-1.113.981-2.013l-2.3-8.588zm-2.342 9.832l-2.3-8.588c-.509-1.896.525-3.826 2.302-4.302 1.778-.477 3.639.678 4.147 2.574l2.301 8.588c.508 1.896-.526 3.827-2.304 4.303-1.777.476-3.638-.678-4.146-2.575zM109.125 12.734c-.241-.9-1.074-1.462-1.856-1.252-.782.21-1.222 1.113-.981 2.012l2.301 8.588c.241.9 1.074 1.462 1.856 1.253.782-.21 1.222-1.113.981-2.013l-2.301-8.588zm-2.342 9.832l-2.301-8.588c-.508-1.896.525-3.826 2.303-4.303 1.779-.476 3.638.68 4.146 2.575l2.301 8.588c.508 1.896-.524 3.826-2.303 4.303-1.778.476-3.638-.678-4.146-2.575zM122.042 9.273c-.241-.899-1.073-1.462-1.855-1.252-.783.21-1.222 1.113-.981 2.012l2.301 8.588c.242.9 1.073 1.462 1.856 1.253.782-.21 1.222-1.112.98-2.013l-2.301-8.588zm-2.341 9.832l-2.301-8.588c-.508-1.896.525-3.826 2.303-4.302 1.778-.477 3.637.678 4.145 2.574l2.302 8.588c.508 1.896-.525 3.826-2.303 4.303-1.779.477-3.638-.679-4.146-2.575z" fill="#EDEFF2"/><path d="M66.995 257.897l1.258 4.697 132.454-35.491-56.698-211.6-3.993 1.07 55.198 206a.935.935 0 0 1-.661 1.145L66.995 257.897zm-.306 6.084l-1.743-6.503a.936.936 0 0 1 .662-1.145l127.558-34.179-55.198-206a.935.935 0 0 1 .661-1.145l5.799-1.554a.935.935 0 0 1 1.145.661l57.182 213.406a.936.936 0 0 1-.661 1.145l-134.26 35.975a.936.936 0 0 1-1.145-.661z" fill="#E6ECF2"/></svg>