<svg width="117" height="117" viewBox="0 0 117 117" fill="none" xmlns="http://www.w3.org/2000/svg"><path d="M71.666 16.663S53.742 25.357 55.024 54.42l6.088 1.632 10.554-39.388z" fill="#7CC767"/><path d="M71.666 16.663s11.176 16.49-4.465 41.019l-6.089-1.632 10.554-39.387zM50.558 95.442S68.482 86.75 67.2 57.682l-6.088-1.631-10.555 39.391z" fill="#7CC767"/><path d="M50.558 95.442s-11.176-16.49 4.466-41.022l6.088 1.631-10.554 39.391zM49.735 53c-3.134-3.79-5.324-7.478-6.836-10.922-13.175-2.011-21.195 3.411-21.195 3.411s4.233 8.71 16.649 13.556C41.384 56.82 45.125 54.72 49.735 53zM72.371 59.066c3.133 3.793 5.323 7.482 6.835 10.926 13.176 2.01 21.197-3.415 21.197-3.415s-4.234-8.706-16.65-13.552c-3.032 2.226-6.773 4.326-11.382 6.04z" fill="#7CC767"/><path d="M96.441 35.667S87.288 32.5 75.085 37.85c-.873 5.717-3.149 12.407-7.884 19.831.046 1.058.064 2.087.062 3.09 25.682-6.945 29.178-25.104 29.178-25.104zM55.024 54.42a66.203 66.203 0 0 1-.063-3.086C29.279 58.28 25.783 76.438 25.783 76.438s9.153 3.167 21.356-2.184c.873-5.716 3.149-12.407 7.885-19.835z" fill="#7CC767"/><path d="M55.024 54.419c-.389-8.797.986-15.729 3.088-21.116-7.893-10.736-17.404-12.569-17.404-12.569s-6.051 17.474 12.718 36.33c.5-.87 1.03-1.752 1.598-2.645zM67.201 57.682c.388 8.801-.987 15.733-3.09 21.12 7.894 10.736 17.404 12.569 17.404 12.569s6.052-17.474-12.717-36.33c-.5.87-1.03 1.752-1.597 2.641z" fill="#7CC767"/><path d="M52.995 55.741l4.497 1.205 9.83-36.686c-1.689 1.22-4.166 3.34-6.57 6.593-3.825 5.18-8.236 14.367-7.757 28.888zm4.956 3.444l-6.213-1.664a1.023 1.023 0 0 1-.757-.944c-.688-15.623 4.08-25.501 8.202-31.041 4.507-6.055 9.16-8.359 9.355-8.45a1.02 1.02 0 0 1 1.434 1.184l-10.77 40.193a1.022 1.022 0 0 1-1.251.722z" fill="#221E1F"/><path d="M59.467 57.477l4.497 1.204c4.337-6.976 9.019-17.461 7.727-28.895-.455-4.02-1.54-7.096-2.394-8.996l-9.83 36.687zm4.696 3.374l-6.212-1.665a1.022 1.022 0 0 1-.723-1.252l10.77-40.192c.103-.387.423-.678.818-.746.394-.064.79.106 1.015.437.123.177 3.002 4.499 3.877 11.996.8 6.858-.01 17.797-8.418 30.983-.24.376-.696.554-1.127.439z" fill="#221E1F"/><path d="M58.938 59.45L49.11 96.134c1.69-1.219 4.166-3.336 6.57-6.593 3.824-5.176 8.236-14.367 7.756-28.884l-4.497-1.205zM47.181 99.38a1.02 1.02 0 0 1-.723-1.252l10.77-40.193a1.022 1.022 0 0 1 1.252-.722l6.212 1.664c.431.116.738.495.758.94.688 15.623-4.081 25.505-8.202 31.041-4.506 6.055-9.16 8.359-9.356 8.454-.225.11-.478.13-.711.068z" fill="#221E1F"/><path d="M52.466 57.716c-4.336 6.976-9.017 17.458-7.726 28.892.455 4.024 1.54 7.095 2.394 8.995l9.829-36.682-4.497-1.205zM47.181 99.38a1.024 1.024 0 0 1-.582-.415c-.122-.18-3-4.502-3.876-12-.8-6.854.01-17.797 8.418-30.983a1.02 1.02 0 0 1 1.126-.434l6.213 1.664c.545.147.869.707.723 1.252l-10.77 40.193a1.02 1.02 0 0 1-1.252.722zM19.39 47.795c.538.868 1.557 2.352 3.165 4.056 2.287 2.424 6.258 5.79 12.293 8.241 2.988-2.132 6.373-3.963 10.084-5.453-2.468-3.15-4.484-6.428-6.006-9.769-10.238-1.418-17.244 1.69-19.536 2.925zM34.727 62.24c-.036-.01-.071-.024-.106-.037-12.896-5.03-17.355-13.957-17.538-14.336a1.02 1.02 0 0 1 .346-1.291c.348-.237 8.674-5.738 22.356-3.647.346.055.64.282.78.603 1.644 3.737 3.94 7.408 6.829 10.904.21.255.284.596.199.916-.086.32-.32.575-.63.69-4.248 1.584-8.073 3.614-11.366 6.033-.25.182-.572.244-.87.165zM71.376 61.724c2.469 3.146 4.485 6.424 6.007 9.765 10.238 1.418 17.245-1.69 19.535-2.92-.537-.873-1.558-2.357-3.163-4.06-2.288-2.425-6.259-5.791-12.293-8.242-2.989 2.132-6.374 3.963-10.086 5.457zm5.038 11.685a1.031 1.031 0 0 1-.672-.578c-1.642-3.741-3.938-7.412-6.826-10.907a1.017 1.017 0 0 1-.2-.913c.085-.32.32-.578.63-.694 4.248-1.583 8.073-3.614 11.365-6.029.282-.208.651-.257.978-.131 12.895 5.03 17.354 13.956 17.536 14.335a1.014 1.014 0 0 1-.346 1.291c-.347.237-8.672 5.739-22.355 3.647-.037-.006-.074-.012-.11-.021z" fill="#221E1F"/><path d="M65.462 60.14c.02.505.035 1.009.043 1.523 12.384-3.635 19.226-9.923 22.813-14.637 2.948-3.874 4.227-7.332 4.703-8.914-2.654-.635-10.14-1.777-19.627 2.227-1.086 6.523-3.752 13.181-7.932 19.802zM64.227 64a1.028 1.028 0 0 1-.758-.99 66.292 66.292 0 0 0-.062-3.103c-.01-.21.046-.419.159-.596 4.246-6.658 6.903-13.335 7.897-19.844.053-.346.28-.64.6-.78 10.92-4.788 19.537-3.08 21.917-2.442.407.108.62.187.62.187.479.166.766.658.67 1.157-.038.197-.986 4.928-5.248 10.575-3.898 5.16-11.446 12.096-25.263 15.834-.176.046-.36.048-.532.002zM50.926 54.73C29.994 60.874 24.518 74.621 23.41 78.282c2.655.635 10.139 1.777 19.625-2.228 1.086-6.523 3.753-13.18 7.932-19.797a69.099 69.099 0 0 1-.042-1.527zM22.45 80.15h-.001c-.406-.11-.62-.183-.62-.183a1.03 1.03 0 0 1-.669-1.161c.038-.198.985-4.93 5.247-10.571 3.9-5.164 11.447-12.101 25.264-15.839.307-.083.636-.016.89.175.253.195.4.497.4.814-.003 1.07.018 2.083.063 3.102.009.21-.047.42-.16.596-4.246 6.658-6.903 13.336-7.897 19.845-.053.345-.28.64-.6.779-10.92 4.789-19.536 3.081-21.917 2.443z" fill="#221E1F"/><path d="M38.116 23.4c-.38 1.608-1 5.238-.385 10.07.75 5.877 3.532 14.744 12.438 24.084.265-.442.529-.87.799-1.297-.31-7.824.71-14.923 3.03-21.115C47.786 26.93 40.733 24.177 38.117 23.4zm11.992 36.816a1.042 1.042 0 0 1-.46-.267C39.551 49.803 36.483 40.022 35.687 33.604c-.868-7.02.677-11.592.743-11.782.166-.48.66-.762 1.158-.667 0 0 .223.039.63.148 2.381.638 10.698 3.467 17.76 13.075.209.28.257.648.13.974-2.393 6.134-3.431 13.245-3.083 21.134.009.21-.047.42-.16.596a66.734 66.734 0 0 0-1.605 2.655 1.029 1.029 0 0 1-1.152.479zM62.432 81.251c6.213 8.212 13.267 10.965 15.884 11.743.378-1.605.999-5.239.383-10.072-.75-5.871-3.53-14.742-12.438-24.082-.263.441-.528.87-.799 1.3.31 7.82-.71 14.92-3.03 21.111zm15.781 13.84c-2.38-.638-10.698-3.468-17.76-13.075a1.016 1.016 0 0 1-.13-.975c2.394-6.134 3.431-13.245 3.083-21.134-.009-.21.047-.419.16-.596a64.218 64.218 0 0 0 1.605-2.655c.159-.275.438-.463.754-.505.315-.038.633.068.858.293C76.88 66.59 79.948 76.371 80.743 82.793c.87 7.017-.676 11.588-.742 11.778a1.03 1.03 0 0 1-1.16.671s-.221-.042-.628-.151z" fill="#221E1F"/><path d="M45.083 55.738l-27.346-7.327a1.022 1.022 0 1 1 .53-1.974l27.345 7.327a1.022 1.022 0 1 1-.53 1.974zM98.04 69.928l-27.344-7.327a1.022 1.022 0 1 1 .529-1.974l27.344 7.327a1.023 1.023 0 0 1-.529 1.974z" fill="#221E1F"/><path d="M30.18 78.974c.215.057.408.185.546.366A34.612 34.612 0 0 0 44.983 90.25c.3.123.524.382.603.695.737 2.927 1.718 5.01 2.293 6.074 1.033-.638 2.93-1.953 5.038-4.127.225-.232.546-.345.867-.305 5.987.783 12.11-.03 17.706-2.353.299-.123.64-.1.918.068 2.639 1.584 4.84 2.372 5.97 2.709.28-1.186.692-3.48.639-6.537a1.017 1.017 0 0 1 .397-.825 34.573 34.573 0 0 0 10.86-14.191c.123-.298.38-.52.692-.602 2.894-.732 4.954-1.703 6.012-2.27-.632-1.024-1.931-2.892-4.07-4.976a1.03 1.03 0 0 1-.298-.867c.797-5.986-.001-12.112-2.31-17.72a1.014 1.014 0 0 1 .068-.913c1.575-2.621 2.363-4.81 2.715-5.981-1.147-.27-3.447-.69-6.524-.64a1.024 1.024 0 0 1-.83-.4 34.606 34.606 0 0 0-14.156-10.89 1.028 1.028 0 0 1-.6-.694c-.737-2.94-1.722-5.028-2.298-6.096-1.031.638-2.92 1.947-5.024 4.113a1.022 1.022 0 0 1-.869.3 34.616 34.616 0 0 0-17.802 2.323 1.028 1.028 0 0 1-.914-.067c-2.603-1.552-4.774-2.324-5.889-2.661-.277 1.174-.681 3.419-.64 6.413.004.323-.145.63-.402.828a34.555 34.555 0 0 0-10.978 14.28c-.122.296-.38.52-.694.6-2.891.732-4.951 1.704-6.01 2.275.632 1.02 1.93 2.892 4.068 4.975.232.223.343.545.3.864a34.586 34.586 0 0 0 2.367 17.858c.126.296.101.637-.064.914-1.533 2.573-2.305 4.72-2.652 5.875 1.133.27 3.4.682 6.43.643a.932.932 0 0 1 .278.033zm17.063 20.42a1.037 1.037 0 0 1-.583-.413c-.072-.109-1.734-2.598-2.928-7.04A36.661 36.661 0 0 1 29.42 80.987c-3.342-.006-5.748-.511-6.912-.823a9.768 9.768 0 0 1-.615-.182 1.03 1.03 0 0 1-.67-1.161c.024-.125.607-3.037 2.886-7.001a36.613 36.613 0 0 1-2.378-17.93c-3.218-3.232-4.53-5.89-4.585-6.007a1.018 1.018 0 0 1 .346-1.29c.106-.074 2.57-1.716 6.974-2.91A36.635 36.635 0 0 1 35.49 29.344c.007-4.568.96-7.382 1.002-7.506a1.025 1.025 0 0 1 1.16-.667s.22.043.624.15c1.164.313 3.5 1.074 6.397 2.743a36.668 36.668 0 0 1 17.873-2.333c3.255-3.25 5.939-4.575 6.054-4.629a1.018 1.018 0 0 1 1.294.347c.073.108 1.74 2.603 2.936 7.058a36.661 36.661 0 0 1 14.208 10.934c3.388-.006 5.826.504 7.007.82.405.109.617.186.617.186.48.167.767.659.67 1.158-.025.128-.615 3.093-2.949 7.115a36.654 36.654 0 0 1 2.32 17.787c3.216 3.232 4.529 5.886 4.586 6.003.22.457.074 1.005-.346 1.29-.108.074-2.573 1.72-6.974 2.91a36.658 36.658 0 0 1-10.901 14.24c.01 4.65-.96 7.513-1.004 7.637-.166.48-.661.762-1.16.671 0 0-.221-.042-.626-.15-1.18-.317-3.547-1.095-6.48-2.79a36.696 36.696 0 0 1-17.77 2.36c-3.264 3.265-5.956 4.592-6.073 4.65-.228.107-.481.129-.712.067zm22.74-85.116c-24.23-6.493-49.22 7.925-55.71 32.146-6.489 24.217 7.944 49.202 32.174 55.695 24.23 6.492 49.221-7.93 55.71-32.147 6.49-24.22-7.943-49.202-32.173-55.694zm-24.065 89.815c-25.32-6.784-40.401-32.892-33.62-58.198 6.78-25.307 32.895-40.376 58.215-33.591 25.319 6.784 40.4 32.891 33.619 58.198-6.78 25.306-32.895 40.375-58.214 33.591z" fill="#4C4C4C"/></svg>