<svg width="93" height="93" viewBox="0 0 93 93" fill="none" xmlns="http://www.w3.org/2000/svg"><path d="M37.176 15.564l12.453 29.548 12.087-29.7c-6.459-5.18-16.716-6.007-24.54.152z" fill="#7CC767"/><path d="M19.93 33.026l29.7 12.086-12.454-29.547c-8.23.903-16.069 7.572-17.246 17.46z" fill="#7CC767"/><path d="M20.082 57.565l29.547-12.453L19.93 33.025c-5.18 6.46-6.007 16.716.152 24.54zM37.543 74.811l12.086-29.699-29.547 12.453c.904 8.231 7.572 16.068 17.461 17.246z" fill="#7CC767"/><path d="M62.083 74.66L49.629 45.111l-12.086 29.7c6.458 5.18 16.716 6.006 24.54-.153z" fill="#7CC767"/><path d="M62.083 74.66c8.23-.905 16.068-7.573 17.246-17.462l-29.7-12.086L62.083 74.66z" fill="#7CC767"/><path d="M79.177 32.658L49.629 45.112l29.699 12.086c5.181-6.458 6.008-16.716-.151-24.54z" fill="#7CC767"/><path d="M61.716 15.412l-12.087 29.7 29.547-12.454c-.903-8.23-7.571-16.068-17.46-17.246z" fill="#7CC767"/><path d="M34.482 16.202l11.55 27.401 11.214-27.555c-3.179-2.35-7.149-3.637-11.259-3.637-4.156 0-8.118 1.308-11.505 3.791zm11.565 30.779a.934.934 0 0 1-.862-.571L32.477 16.26a.937.937 0 0 1 .283-1.098c3.841-3.023 8.414-4.621 13.227-4.621 4.774 0 9.383 1.588 12.978 4.471.323.259.437.7.281 1.082L46.913 46.4a.935.935 0 0 1-.86.582h-.006z" fill="#333"/><path d="M16.766 33.12l27.542 11.21-11.554-27.414c-7.058 1.078-14.549 6.846-15.988 16.204zm29.28 13.861a.923.923 0 0 1-.352-.069L15.389 34.58a.936.936 0 0 1-.576-.977c1.316-11.05 10.264-17.739 18.424-18.635a.934.934 0 0 1 .963.566l12.708 30.15a.936.936 0 0 1-.862 1.298z" fill="#333"/><path d="M16.05 34.848c-4.23 5.753-5.448 15.128.152 22.763l27.401-11.55L16.05 34.848zm-.153 24.841a.936.936 0 0 1-.735-.356c-6.884-8.744-5.286-19.802-.15-26.205a.936.936 0 0 1 1.082-.28L46.4 45.18a.936.936 0 0 1 .011 1.727L16.26 59.616a.927.927 0 0 1-.363.073z" fill="#333"/><path d="M16.916 59.339c1.078 7.058 6.846 14.549 16.204 15.988l11.21-27.542-27.414 11.554zm16.798 17.948a.827.827 0 0 1-.111-.007c-11.051-1.315-17.74-10.264-18.636-18.424a.935.935 0 0 1 .566-.963l30.15-12.708a.937.937 0 0 1 1.23 1.214L34.579 76.704a.933.933 0 0 1-.865.583z" fill="#333"/><path d="M34.847 76.045c3.179 2.35 7.15 3.638 11.26 3.638 4.155 0 8.118-1.309 11.504-3.79L46.062 48.49 34.847 76.045zm11.26 5.508c-4.775 0-9.384-1.588-12.979-4.472A.936.936 0 0 1 32.847 76l12.334-30.305a.936.936 0 0 1 .86-.583h.006c.375 0 .715.226.861.572l12.708 30.151a.934.934 0 0 1-.283 1.098c-3.84 3.022-8.414 4.621-13.226 4.621z" fill="#333"/><path d="M47.785 47.763L59.34 75.177c7.058-1.078 14.548-6.846 15.988-16.204l-27.543-11.21zm10.969 29.369a.936.936 0 0 1-.861-.572L45.185 46.41a.935.935 0 0 1 1.214-1.229l30.305 12.333c.39.159.626.559.576.977-1.315 11.05-10.264 17.739-18.423 18.635a.902.902 0 0 1-.103.006z" fill="#333"/><path d="M48.49 46.032l27.555 11.214c4.228-5.753 5.446-15.129-.153-22.764L48.49 46.032zm27.862 13.283a.928.928 0 0 1-.353-.069L45.694 46.912a.934.934 0 0 1-.01-1.727l30.15-12.708a.934.934 0 0 1 1.098.283c6.883 8.744 5.285 19.802.15 26.205a.934.934 0 0 1-.73.35z" fill="#333"/><path d="M58.973 16.766L47.764 44.308l27.413-11.554c-1.077-7.058-6.846-14.55-16.204-15.988zM46.047 46.98a.935.935 0 0 1-.866-1.287l12.333-30.305a.941.941 0 0 1 .977-.576c11.05 1.316 17.739 10.264 18.635 18.424a.935.935 0 0 1-.566.963L46.41 46.908a.941.941 0 0 1-.363.073zM41.154 18.182a.936.936 0 0 1-.905-.7l-1.938-7.503a.936.936 0 0 1 1.81-.468l1.939 7.502a.935.935 0 0 1-.906 1.17zM50.565 18.182a.935.935 0 0 1-.906-1.169l1.938-7.502a.935.935 0 0 1 1.81.468l-1.937 7.503a.936.936 0 0 1-.905.7zM22.222 30.077a.93.93 0 0 1-.474-.13l-6.674-3.935a.935.935 0 1 1 .949-1.611l6.675 3.935a.934.934 0 0 1 .33 1.28.934.934 0 0 1-.806.461zM28.878 23.423a.937.937 0 0 1-.807-.461l-3.934-6.674a.935.935 0 0 1 1.611-.95l3.934 6.675a.934.934 0 0 1-.804 1.41zM9.744 53.812a.934.934 0 0 1-.904-.701.934.934 0 0 1 .671-1.14l7.502-1.938a.936.936 0 0 1 .468 1.811L9.98 53.782a.947.947 0 0 1-.235.03zM17.248 42.464a.953.953 0 0 1-.235-.03l-7.502-1.937a.934.934 0 1 1 .468-1.81l7.502 1.937a.935.935 0 0 1-.233 1.84zM25.206 77.48a.935.935 0 0 1-.805-1.41l3.935-6.674a.934.934 0 1 1 1.611.949l-3.935 6.675a.933.933 0 0 1-.806.46zM15.814 68.085a.934.934 0 0 1-.476-1.74l6.675-3.934a.934.934 0 0 1 1.28.33.937.937 0 0 1-.33 1.28l-6.675 3.936a.93.93 0 0 1-.474.129zM52.876 83.283a.936.936 0 0 1-.905-.701l-1.937-7.502a.935.935 0 1 1 1.81-.468l1.938 7.502a.935.935 0 0 1-.906 1.169zM39.591 83.283a.935.935 0 0 1-.905-1.169l1.938-7.502a.935.935 0 1 1 1.81.468l-1.938 7.502a.935.935 0 0 1-.905.701zM76.544 67.821a.93.93 0 0 1-.474-.129l-6.674-3.935a.935.935 0 1 1 .95-1.61l6.674 3.934a.934.934 0 0 1-.476 1.74zM67.152 77.215a.933.933 0 0 1-.806-.46l-3.935-6.675a.935.935 0 0 1 1.611-.949l3.935 6.674a.936.936 0 0 1-.805 1.41zM74.846 42.09a.935.935 0 0 1-.233-1.841l7.501-1.937a.935.935 0 0 1 .468 1.81L75.08 42.06a.945.945 0 0 1-.234.03zM82.349 53.437a.953.953 0 0 1-.235-.03l-7.501-1.937a.935.935 0 0 1 .467-1.811l7.502 1.937a.935.935 0 0 1-.233 1.84z" fill="#333"/><path d="M62.951 23.158a.936.936 0 0 1-.805-1.41l3.935-6.674a.934.934 0 1 1 1.611.949l-3.935 6.675a.933.933 0 0 1-.806.46zM69.606 29.812a.935.935 0 0 1-.475-1.741l6.674-3.934a.936.936 0 1 1 .95 1.61l-6.675 3.935a.928.928 0 0 1-.474.13z" fill="#333"/><path d="M46.047 1.87C21.687 1.87 1.87 21.687 1.87 46.046s19.817 44.177 44.177 44.177c24.359 0 44.176-19.818 44.176-44.177 0-24.359-19.817-44.176-44.176-44.176zm0 90.223C20.656 92.093 0 71.436 0 46.046 0 20.656 20.656 0 46.047 0c25.39 0 46.046 20.656 46.046 46.046S71.437 92.093 46.047 92.093z" fill="#333"/></svg>