<svg width="410" height="377" viewBox="0 0 410 377" fill="none" xmlns="http://www.w3.org/2000/svg"><path d="M341.766 217.945L109.613 83.911l20.366-67.276 259.866 150.033-48.079 51.277zM398 158.944L132.592 5.711a6.756 6.756 0 0 0-9.228 2.472L102.296 80.23c-1.568 4.418-.758 7.361 2.473 9.227l234.616 135.456c3.231 1.865 6.112.95 9.227-2.472l51.86-54.269a6.755 6.755 0 0 0-2.472-9.228z" fill="#BCBEC0"/><path d="M267.948 302.801L73.915 190.776l40.19-69.612 194.033 112.025-40.19 69.612zm-87.657-3.718l-59.328-34.253 15.467-26.789 59.328 34.253-15.467 26.789zm153.405-70.412l-32.791-18.932-3.32 5.75-162.875-94.036 3.32-5.75-32.792-18.932a6.754 6.754 0 0 0-9.227 2.473L28.246 216.617a6.754 6.754 0 0 0 2.471 9.227l228.459 131.9a6.753 6.753 0 0 0 9.227-2.472l67.766-117.373a6.756 6.756 0 0 0-2.473-9.228z" fill="#A7A9AC"/><path d="M303.795 280.118a1.429 1.429 0 1 0-1.43 2.474 1.429 1.429 0 0 0 1.43-2.474zM304.171 269.52a1.429 1.429 0 1 0-1.43 2.474 1.429 1.429 0 0 0 1.43-2.474zM301.076 274.881a1.428 1.428 0 1 0-1.43 2.472 1.428 1.428 0 0 0 1.43-2.472zM300.744 285.402a1.43 1.43 0 1 0-1.429 2.477 1.43 1.43 0 0 0 1.429-2.477zM297.648 290.763a1.43 1.43 0 1 0-1.428 2.474 1.43 1.43 0 0 0 1.428-2.474zM294.553 296.125a1.428 1.428 0 1 0-1.43 2.473 1.428 1.428 0 0 0 1.43-2.473zM291.457 301.487a1.43 1.43 0 1 0-1.429 2.476 1.43 1.43 0 0 0 1.429-2.476zM288.362 306.847a1.43 1.43 0 1 0-1.428 2.477 1.43 1.43 0 0 0 1.428-2.477zM298.025 280.166a1.428 1.428 0 1 0-1.43 2.471 1.428 1.428 0 0 0 1.43-2.471zM294.929 285.528a1.429 1.429 0 1 0-1.43 2.474 1.429 1.429 0 0 0 1.43-2.474zM291.834 290.888a1.429 1.429 0 1 0-1.43 2.474 1.429 1.429 0 0 0 1.43-2.474zM288.738 296.251a1.429 1.429 0 1 0-1.43 2.474 1.429 1.429 0 0 0 1.43-2.474zM285.643 301.612a1.429 1.429 0 1 0-1.43 2.474 1.429 1.429 0 0 0 1.43-2.474z" fill="#231F20"/><path d="M387.379 170.11L130.369 21.725 113.078 83.32l229.603 132.561 44.698-45.772z" fill="#F3F9FF"/><path d="M101.672 95.614a5.964 5.964 0 0 0-8.138 2.18L24.385 217.563a5.965 5.965 0 0 0 2.181 8.139l233.121 134.592a5.966 5.966 0 0 0 8.139-2.18l69.148-119.769a5.965 5.965 0 0 0-2.18-8.139L101.672 95.614zm157.08 266.3L25.631 227.321c-3.738-2.158-5.023-6.955-2.865-10.693L91.914 96.859c2.159-3.738 6.956-5.023 10.693-2.865l233.122 134.593c3.737 2.158 5.023 6.954 2.865 10.693l-69.149 119.769c-2.158 3.737-6.955 5.023-10.693 2.865z" fill="#231F20"/><path d="M133.49 119.648l164.58 95.02 4.992-8.646-164.58-95.02-4.992 8.646zm164.455 97.107L131.746 120.8a.935.935 0 0 1-.343-1.277l5.927-10.266a.936.936 0 0 1 1.278-.342l166.199 95.955c.447.258.6.829.342 1.277l-5.927 10.266a.933.933 0 0 1-1.277.342z" fill="#231F20"/><path d="M119.472 9.334L99.916 79.427l-.02.062c-1.442 4.06-.791 6.619 2.109 8.293L341.41 226.003c2.814 1.625 5.283.924 8.256-2.343l50.948-52.009a5.964 5.964 0 0 0-2.236-8.039L127.553 7.252a5.965 5.965 0 0 0-8.081 2.082zm221.003 218.288L101.07 89.402c-3.721-2.149-4.686-5.587-2.948-10.508l19.582-70.182a.95.95 0 0 1 .091-.215c2.158-3.739 6.955-5.023 10.693-2.865l270.825 156.36c3.737 2.158 5.023 6.955 2.865 10.694a.91.91 0 0 1-.142.185l-51.01 52.073c-3.562 3.914-6.922 4.773-10.551 2.678z" fill="#231F20"/><path d="M107.582 82.487l235.624 136.038 45.816-47.629-263.1-151.901-18.34 63.492zM342.905 220.51L106.013 83.74a.937.937 0 0 1-.431-1.068l18.875-65.344a.935.935 0 0 1 1.366-.55l265.169 153.096a.935.935 0 0 1 .206 1.457l-47.152 49.018a.934.934 0 0 1-1.141.161zM71.454 190.386l196.374 113.377 40.075-69.413L111.53 120.973l-40.076 69.413zm196.248 115.465L69.709 191.539a.935.935 0 0 1-.342-1.278l41.011-71.032a.934.934 0 0 1 1.277-.343l197.993 114.312a.934.934 0 0 1 .342 1.277l-41.01 71.032a.936.936 0 0 1-1.278.344z" fill="#231F20"/><path d="M109.738 140.105l8.975 5.182 5.182-8.975-8.975-5.181-5.182 8.974zm8.065 6.816l-9.024-5.21a1.844 1.844 0 0 1-.674-2.517l5.21-9.023a1.844 1.844 0 0 1 2.516-.674l9.024 5.21a1.844 1.844 0 0 1 .674 2.515l-5.21 9.024a1.845 1.845 0 0 1-2.516.675zM100.474 156.151l16.702 9.643 5.182-8.974-16.702-9.643-5.182 8.974zm15.793 11.277l-16.752-9.671a1.844 1.844 0 0 1-.675-2.516l5.211-9.025a1.844 1.844 0 0 1 2.516-.673l16.751 9.672a1.843 1.843 0 0 1 .674 2.514l-5.211 9.025a1.842 1.842 0 0 1-2.514.674zM91.21 172.197l25.142 14.516 5.181-8.975-25.141-14.516-5.182 8.975zm24.231 16.149l-25.19-14.543a1.844 1.844 0 0 1-.675-2.516l5.21-9.024a1.843 1.843 0 0 1 2.516-.674l25.19 14.543a1.843 1.843 0 0 1 .674 2.516l-5.21 9.024a1.843 1.843 0 0 1-2.515.674zM81.947 188.242l8.974 5.182 5.181-8.974-8.975-5.182-5.18 8.974zm8.064 6.816l-9.024-5.21a1.844 1.844 0 0 1-.674-2.516l5.21-9.024a1.843 1.843 0 0 1 2.515-.673l9.024 5.21a1.843 1.843 0 0 1 .674 2.515l-5.21 9.024a1.844 1.844 0 0 1-2.515.674zM125.513 149.213l8.974 5.181 5.181-8.975-8.973-5.181-5.182 8.975zm8.064 6.815l-9.024-5.21a1.844 1.844 0 0 1-.673-2.516l5.21-9.024a1.843 1.843 0 0 1 2.514-.674l9.024 5.21a1.843 1.843 0 0 1 .674 2.515l-5.21 9.024a1.843 1.843 0 0 1-2.515.675zM97.721 197.35l8.974 5.181 5.181-8.973-8.974-5.181-5.18 8.973zm8.064 6.815l-9.024-5.21a1.842 1.842 0 0 1-.674-2.514l5.21-9.024a1.843 1.843 0 0 1 2.515-.674l9.024 5.21a1.844 1.844 0 0 1 .674 2.515l-5.21 9.024a1.843 1.843 0 0 1-2.515.673zM141.287 158.32l8.975 5.182 5.181-8.975-8.974-5.182-5.182 8.975zm8.065 6.816l-9.024-5.21a1.844 1.844 0 0 1-.674-2.517l5.21-9.024a1.842 1.842 0 0 1 2.515-.673l9.024 5.21a1.843 1.843 0 0 1 .674 2.515l-5.21 9.024a1.843 1.843 0 0 1-2.515.675zM124.168 169.831l8.974 5.181 5.182-8.974-8.975-5.182-5.181 8.975zm8.065 6.815l-9.025-5.21a1.843 1.843 0 0 1-.674-2.515l5.21-9.025a1.844 1.844 0 0 1 2.515-.674l9.025 5.211a1.844 1.844 0 0 1 .674 2.515l-5.211 9.024a1.842 1.842 0 0 1-2.514.674zM122.759 190.412l8.974 5.181 5.182-8.974-8.975-5.182-5.181 8.975zm8.064 6.815l-9.024-5.21a1.843 1.843 0 0 1-.674-2.515l5.21-9.024a1.843 1.843 0 0 1 2.516-.674l9.024 5.21a1.844 1.844 0 0 1 .673 2.516l-5.21 9.024a1.843 1.843 0 0 1-2.515.673zM113.495 206.457l8.975 5.181 5.181-8.973-8.975-5.182-5.181 8.974zm8.065 6.815l-9.024-5.21a1.843 1.843 0 0 1-.675-2.515l5.21-9.024a1.844 1.844 0 0 1 2.516-.673l9.024 5.21a1.844 1.844 0 0 1 .674 2.515l-5.21 9.024a1.843 1.843 0 0 1-2.515.673zM157.062 167.427l8.973 5.181 5.182-8.974-8.974-5.181-5.181 8.974zm8.063 6.815l-9.024-5.21a1.842 1.842 0 0 1-.673-2.515l5.21-9.024a1.843 1.843 0 0 1 2.515-.674l9.024 5.21a1.844 1.844 0 0 1 .674 2.515l-5.21 9.024a1.843 1.843 0 0 1-2.516.674zM139.943 178.938l8.973 5.181 5.182-8.974-8.974-5.181-5.181 8.974zm8.064 6.815l-9.024-5.21a1.843 1.843 0 0 1-.674-2.515l5.21-9.024a1.843 1.843 0 0 1 2.515-.674l9.024 5.21a1.844 1.844 0 0 1 .674 2.515l-5.211 9.024a1.842 1.842 0 0 1-2.514.674zM138.533 199.519l8.974 5.181 5.181-8.974-8.973-5.181-5.182 8.974zm8.064 6.815l-9.024-5.21a1.844 1.844 0 0 1-.674-2.515l5.21-9.024a1.844 1.844 0 0 1 2.516-.674l9.024 5.21a1.843 1.843 0 0 1 .673 2.515l-5.21 9.024a1.843 1.843 0 0 1-2.515.674zM129.27 215.564l8.973 5.181 5.181-8.973-8.973-5.181-5.181 8.973zm8.063 6.815l-9.024-5.21a1.843 1.843 0 0 1-.673-2.515l5.21-9.024a1.841 1.841 0 0 1 2.514-.673l9.024 5.21a1.842 1.842 0 0 1 .674 2.514l-5.21 9.024a1.843 1.843 0 0 1-2.515.674zM172.835 176.535l8.975 5.181 5.182-8.974-8.975-5.182-5.182 8.975zm8.065 6.815l-9.025-5.21a1.844 1.844 0 0 1-.673-2.516l5.21-9.024a1.844 1.844 0 0 1 2.515-.674l9.025 5.211a1.843 1.843 0 0 1 .673 2.515l-5.21 9.024a1.842 1.842 0 0 1-2.515.674zM155.716 188.046l8.975 5.181 5.181-8.974-8.974-5.182-5.182 8.975zm8.065 6.815l-9.025-5.21a1.844 1.844 0 0 1-.674-2.515l5.211-9.025a1.844 1.844 0 0 1 2.515-.674l9.025 5.211a1.841 1.841 0 0 1 .673 2.514l-5.21 9.025a1.843 1.843 0 0 1-2.515.674zM154.307 208.627l8.975 5.181 5.181-8.974-8.974-5.182-5.182 8.975zm8.065 6.815l-9.025-5.21a1.844 1.844 0 0 1-.674-2.515l5.21-9.024a1.843 1.843 0 0 1 2.515-.675l9.025 5.211a1.843 1.843 0 0 1 .674 2.515l-5.21 9.024a1.843 1.843 0 0 1-2.515.674zM145.043 224.672l56.69 32.73 5.181-8.974-56.69-32.73-5.181 8.974zm55.78 34.363l-56.74-32.758a1.844 1.844 0 0 1-.674-2.515l5.21-9.024a1.844 1.844 0 0 1 2.515-.674l56.74 32.759a1.842 1.842 0 0 1 .674 2.515l-5.21 9.024a1.842 1.842 0 0 1-2.515.673zM188.61 185.642l8.974 5.181 5.181-8.974-8.973-5.181-5.182 8.974zm8.064 6.815l-9.024-5.21a1.843 1.843 0 0 1-.673-2.515l5.21-9.024a1.843 1.843 0 0 1 2.515-.674l9.024 5.21a1.843 1.843 0 0 1 .673 2.515l-5.21 9.024a1.843 1.843 0 0 1-2.515.674zM171.491 197.153l8.974 5.181 5.181-8.975-8.973-5.181-5.182 8.975zm8.064 6.815l-9.024-5.21a1.844 1.844 0 0 1-.674-2.515l5.211-9.025a1.841 1.841 0 0 1 2.514-.673l9.024 5.21a1.842 1.842 0 0 1 .674 2.514l-5.21 9.025a1.843 1.843 0 0 1-2.515.674zM170.082 217.734l8.974 5.181 5.181-8.974-8.974-5.181-5.181 8.974zm8.064 6.815l-9.024-5.21a1.843 1.843 0 0 1-.674-2.515l5.21-9.024a1.842 1.842 0 0 1 2.515-.674l9.024 5.21a1.843 1.843 0 0 1 .674 2.515l-5.21 9.024a1.843 1.843 0 0 1-2.515.674zM204.384 194.749l8.974 5.181 5.182-8.974-8.975-5.182-5.181 8.975zm8.065 6.815l-9.025-5.21a1.844 1.844 0 0 1-.674-2.516l5.21-9.024a1.844 1.844 0 0 1 2.515-.674l9.025 5.211a1.844 1.844 0 0 1 .674 2.515l-5.21 9.024a1.843 1.843 0 0 1-2.515.674zM187.265 206.26l8.974 5.181 5.182-8.975-8.975-5.181-5.181 8.975zm8.064 6.815l-9.024-5.21a1.843 1.843 0 0 1-.674-2.515l5.21-9.025a1.843 1.843 0 0 1 2.515-.674l9.025 5.21a1.844 1.844 0 0 1 .674 2.515l-5.211 9.025a1.843 1.843 0 0 1-2.515.674zM185.855 226.841l8.975 5.181 5.182-8.975-8.975-5.181-5.182 8.975zm8.065 6.815l-9.025-5.21a1.843 1.843 0 0 1-.673-2.515l5.21-9.024a1.843 1.843 0 0 1 2.515-.675l9.025 5.211a1.842 1.842 0 0 1 .673 2.515l-5.21 9.024a1.843 1.843 0 0 1-2.515.674zM220.158 203.856l8.974 5.181 5.182-8.974-8.974-5.181-5.182 8.974zm8.064 6.815l-9.024-5.21a1.844 1.844 0 0 1-.673-2.516l5.21-9.023a1.842 1.842 0 0 1 2.515-.674l9.024 5.21a1.843 1.843 0 0 1 .674 2.515l-5.21 9.023a1.844 1.844 0 0 1-2.516.675zM203.039 215.368l8.974 5.181 5.182-8.975-8.974-5.181-5.182 8.975zm8.064 6.815l-9.024-5.21a1.844 1.844 0 0 1-.674-2.515l5.211-9.025a1.844 1.844 0 0 1 2.515-.674l9.024 5.21a1.844 1.844 0 0 1 .674 2.515l-5.211 9.025a1.844 1.844 0 0 1-2.515.674zM201.63 235.948l8.974 5.181 5.181-8.975-8.973-5.181-5.182 8.975zm8.064 6.815l-9.024-5.21a1.844 1.844 0 0 1-.674-2.515l5.21-9.024a1.843 1.843 0 0 1 2.515-.675l9.024 5.21a1.843 1.843 0 0 1 .674 2.516l-5.21 9.024a1.843 1.843 0 0 1-2.515.674zM235.932 212.964l8.975 5.181 5.181-8.974-8.974-5.182-5.182 8.975zm8.065 6.815l-9.025-5.21a1.844 1.844 0 0 1-.673-2.516l5.21-9.024a1.844 1.844 0 0 1 2.515-.674l9.024 5.211a1.842 1.842 0 0 1 .674 2.514l-5.21 9.024a1.843 1.843 0 0 1-2.515.675zM218.813 224.474l8.975 5.182 5.181-8.975-8.974-5.181-5.182 8.974zm8.064 6.815l-9.024-5.21a1.843 1.843 0 0 1-.674-2.514l5.211-9.025a1.843 1.843 0 0 1 2.515-.674l9.024 5.21a1.843 1.843 0 0 1 .674 2.515l-5.21 9.025a1.844 1.844 0 0 1-2.516.673zM217.404 245.055l8.974 5.182 5.182-8.975-8.975-5.181-5.181 8.974zm8.065 6.816l-9.025-5.211a1.842 1.842 0 0 1-.674-2.514l5.21-9.024a1.843 1.843 0 0 1 2.515-.675l9.025 5.21a1.844 1.844 0 0 1 .673 2.516l-5.21 9.024a1.843 1.843 0 0 1-2.514.674zM208.14 261.1l8.975 5.182 5.181-8.974-8.975-5.181-5.181 8.973zm8.065 6.816l-9.025-5.211a1.843 1.843 0 0 1-.674-2.514l5.21-9.024a1.843 1.843 0 0 1 2.515-.674l9.025 5.21a1.844 1.844 0 0 1 .674 2.515l-5.21 9.024a1.844 1.844 0 0 1-2.515.674zM251.707 222.071l8.974 5.181 5.181-8.975-8.974-5.181-5.181 8.975zm8.064 6.815l-9.024-5.21a1.843 1.843 0 0 1-.674-2.516l5.21-9.024a1.843 1.843 0 0 1 2.515-.674l9.024 5.21a1.843 1.843 0 0 1 .674 2.515l-5.21 9.024a1.843 1.843 0 0 1-2.515.675zM234.587 233.582l8.975 5.181 5.181-8.974-8.975-5.182-5.181 8.975zm8.065 6.815l-9.024-5.21a1.843 1.843 0 0 1-.675-2.515l5.21-9.025a1.844 1.844 0 0 1 2.516-.673l9.024 5.21a1.843 1.843 0 0 1 .674 2.515l-5.211 9.024a1.842 1.842 0 0 1-2.514.674zM233.179 254.163l8.973 5.181 5.182-8.975-8.974-5.181-5.181 8.975zm8.063 6.815l-9.023-5.21a1.842 1.842 0 0 1-.674-2.515l5.21-9.024a1.842 1.842 0 0 1 2.515-.675l9.024 5.21a1.844 1.844 0 0 1 .673 2.516l-5.21 9.024a1.844 1.844 0 0 1-2.515.674zM223.915 270.208l8.974 5.181 5.181-8.974-8.974-5.181-5.181 8.974zm8.064 6.815l-9.024-5.21a1.843 1.843 0 0 1-.674-2.515l5.21-9.024a1.843 1.843 0 0 1 2.515-.674l9.024 5.21a1.844 1.844 0 0 1 .674 2.515l-5.21 9.024a1.844 1.844 0 0 1-2.515.674zM267.481 231.177l8.974 5.182 5.182-8.975-8.975-5.181-5.181 8.974zm8.064 6.816l-9.024-5.211a1.843 1.843 0 0 1-.674-2.515l5.21-9.024a1.843 1.843 0 0 1 2.515-.674l9.025 5.21a1.844 1.844 0 0 1 .674 2.515l-5.21 9.024a1.845 1.845 0 0 1-2.516.675zM239.689 279.315l8.974 5.182 5.181-8.974-8.974-5.181-5.181 8.973zm8.064 6.816l-9.024-5.211a1.843 1.843 0 0 1-.674-2.515l5.21-9.024a1.843 1.843 0 0 1 2.515-.673l9.024 5.21a1.843 1.843 0 0 1 .674 2.515l-5.21 9.024a1.844 1.844 0 0 1-2.515.674zM283.255 240.286l8.974 5.181 5.182-8.975-8.974-5.181-5.182 8.975zm8.064 6.815l-9.024-5.21a1.843 1.843 0 0 1-.673-2.516l5.21-9.024a1.843 1.843 0 0 1 2.515-.674l9.024 5.21a1.842 1.842 0 0 1 .673 2.515l-5.209 9.024a1.844 1.844 0 0 1-2.516.675zM250.489 242.763l32.476 18.75 5.182-8.975-32.476-18.75-5.182 8.975zm31.566 20.383l-32.526-18.779a1.843 1.843 0 0 1-.674-2.514l5.211-9.025a1.842 1.842 0 0 1 2.514-.674l32.527 18.779a1.843 1.843 0 0 1 .673 2.515l-5.21 9.025a1.843 1.843 0 0 1-2.515.673zM248.56 263.044l25.141 14.515 5.181-8.975-25.14-14.515-5.182 8.975zm24.231 16.149L247.6 264.649a1.844 1.844 0 0 1-.674-2.515l5.21-9.024a1.843 1.843 0 0 1 2.515-.675l25.191 14.544a1.843 1.843 0 0 1 .674 2.516l-5.21 9.024a1.843 1.843 0 0 1-2.515.674zM255.463 288.423l8.974 5.181 5.181-8.974-8.974-5.181-5.181 8.974zm8.064 6.815l-9.024-5.21a1.843 1.843 0 0 1-.674-2.515l5.21-9.024a1.843 1.843 0 0 1 2.515-.674l9.024 5.21a1.842 1.842 0 0 1 .674 2.515l-5.21 9.024a1.843 1.843 0 0 1-2.515.674zM304.296 259.133a1.428 1.428 0 1 0-1.428 2.473 1.428 1.428 0 0 0 1.428-2.473zM301.201 264.495a1.429 1.429 0 1 0-1.429 2.475 1.429 1.429 0 0 0 1.429-2.475zM298.106 269.855a1.43 1.43 0 1 0-1.428 2.477 1.43 1.43 0 0 0 1.428-2.477zM295.01 275.217a1.43 1.43 0 1 0-1.428 2.478 1.43 1.43 0 0 0 1.428-2.478zM291.959 280.502a1.428 1.428 0 1 0-1.43 2.473 1.428 1.428 0 0 0 1.43-2.473zM288.864 285.863a1.429 1.429 0 1 0-1.43 2.474 1.429 1.429 0 0 0 1.43-2.474zM285.768 291.224a1.43 1.43 0 0 0-1.952.523 1.43 1.43 0 0 0 2.476 1.429 1.43 1.43 0 0 0-.524-1.952zM282.673 296.587a1.428 1.428 0 1 0-1.43 2.472 1.428 1.428 0 0 0 1.43-2.472zM279.578 301.947a1.429 1.429 0 1 0 0 0zM101.157 120.404a1.428 1.428 0 1 0-1.43 2.473 1.428 1.428 0 0 0 1.43-2.473zM98.06 125.766a1.428 1.428 0 1 0-1.429 2.472 1.428 1.428 0 0 0 1.43-2.472zM94.966 131.127a1.429 1.429 0 1 0-1.429 2.473 1.429 1.429 0 0 0 1.429-2.473zM91.87 136.489a1.428 1.428 0 1 0-1.43 2.472 1.428 1.428 0 0 0 1.43-2.472zM88.775 141.85a1.429 1.429 0 1 0-1.43 2.475 1.429 1.429 0 0 0 1.43-2.475zM85.68 147.211a1.428 1.428 0 1 0-1.43 2.472 1.428 1.428 0 0 0 1.43-2.472zM82.584 152.573a1.429 1.429 0 1 0-1.43 2.475 1.429 1.429 0 0 0 1.43-2.475zM95.34 120.529a1.428 1.428 0 1 0-1.43 2.473 1.428 1.428 0 0 0 1.43-2.473zM92.246 125.889a1.43 1.43 0 1 0-1.429 2.478 1.43 1.43 0 0 0 1.429-2.478zM89.15 131.252a1.428 1.428 0 1 0-1.43 2.473 1.428 1.428 0 0 0 1.43-2.473zM86.055 136.613a1.429 1.429 0 1 0-1.43 2.475 1.429 1.429 0 0 0 1.43-2.475zM82.96 141.974a1.428 1.428 0 1 0-1.428 2.474 1.427 1.427 0 1 0 1.427-2.474zM79.864 147.336a1.428 1.428 0 1 0-1.43 2.473 1.428 1.428 0 0 0 1.43-2.473zM92.542 115.43a1.43 1.43 0 1 0-1.429 2.476 1.43 1.43 0 0 0 1.43-2.476zM89.447 120.793a1.428 1.428 0 1 0-1.43 2.473 1.428 1.428 0 0 0 1.43-2.473zM86.351 126.153a1.428 1.428 0 1 0-1.43 2.473 1.428 1.428 0 0 0 1.43-2.473zM83.256 131.515a1.429 1.429 0 1 0-1.43 2.475 1.429 1.429 0 0 0 1.43-2.475zM80.16 136.877a1.428 1.428 0 1 0-1.43 2.473 1.428 1.428 0 0 0 1.43-2.473zM77.065 142.238a1.43 1.43 0 1 0-1.429 2.475 1.43 1.43 0 0 0 1.43-2.475zM73.97 147.599a1.43 1.43 0 0 0-1.43 2.475 1.428 1.428 0 1 0 1.43-2.475zM79.533 157.857a1.429 1.429 0 1 0-1.43 2.475 1.429 1.429 0 0 0 1.43-2.475zM76.437 163.219a1.429 1.429 0 1 0-1.429 2.475 1.429 1.429 0 0 0 1.43-2.475zM73.342 168.58a1.428 1.428 0 1 0-1.43 2.472 1.428 1.428 0 0 0 1.43-2.472zM70.246 173.942a1.429 1.429 0 1 0-1.429 2.475 1.429 1.429 0 0 0 1.43-2.475zM67.151 179.303a1.429 1.429 0 1 0-1.429 2.475 1.429 1.429 0 0 0 1.43-2.475zM76.813 152.621a1.428 1.428 0 1 0-1.43 2.473 1.428 1.428 0 0 0 1.43-2.473zM73.717 157.982a1.428 1.428 0 1 0-1.43 2.474 1.428 1.428 0 0 0 1.43-2.474zM70.622 163.343a1.43 1.43 0 1 0-1.429 2.478 1.43 1.43 0 0 0 1.429-2.478zM67.526 168.706a1.428 1.428 0 1 0-1.43 2.473 1.428 1.428 0 0 0 1.43-2.473zM64.43 174.066a1.429 1.429 0 1 0-1.428 2.475 1.429 1.429 0 0 0 1.429-2.475zM70.919 152.883a1.43 1.43 0 1 0-1.428 2.477 1.43 1.43 0 0 0 1.428-2.477zM67.823 158.246a1.43 1.43 0 1 0-1.429 2.475 1.43 1.43 0 0 0 1.429-2.475zM64.728 163.606a1.428 1.428 0 1 0-1.43 2.474 1.428 1.428 0 0 0 1.43-2.474zM61.632 168.968a1.43 1.43 0 0 0-1.428 2.475 1.428 1.428 0 0 0 1.428-2.475zM58.537 174.33a1.43 1.43 0 1 0-1.43 2.475 1.43 1.43 0 0 0 1.43-2.475zM119.463 265.951l58.92 34.017 14.847-25.716-58.92-34.018-14.847 25.717zm58.795 36.104l-60.54-34.952a.934.934 0 0 1-.342-1.277l15.782-27.337a.937.937 0 0 1 1.278-.342l60.539 34.953c.447.258.6.83.342 1.277l-15.782 27.336a.935.935 0 0 1-1.277.342z" fill="#231F20"/><path d="M127.354 252.283l10.286 5.939 6.956-12.049-10.286-5.939-6.956 12.049zm10.16 8.026l-11.905-6.874a.935.935 0 0 1-.342-1.277l7.891-13.669a.937.937 0 0 1 1.278-.342l11.905 6.874c.447.258.6.83.342 1.277l-7.891 13.668a.936.936 0 0 1-1.278.343z" fill="#231F20"/><path d="M119.463 265.951l10.286 5.939 6.956-12.048-10.286-5.939-6.956 12.048zm10.16 8.026l-11.905-6.874a.934.934 0 0 1-.342-1.277l7.891-13.668a.935.935 0 0 1 1.277-.342l11.905 6.874a.934.934 0 0 1 .342 1.277l-7.891 13.667a.934.934 0 0 1-1.277.343z" fill="#231F20"/></svg>