<svg width="40" height="40" viewBox="0 0 40 40" fill="none" xmlns="http://www.w3.org/2000/svg"><path fill-rule="evenodd" clip-rule="evenodd" d="M20 40c11.046 0 20-8.954 20-20S31.046 0 20 0 0 8.954 0 20s8.954 20 20 20z" fill="#0976B4"/><path fill-rule="evenodd" clip-rule="evenodd" d="M12.209 14.839c1.377 0 2.493-1.018 2.493-2.275 0-1.259-1.116-2.278-2.493-2.278-1.378 0-2.495 1.02-2.495 2.278 0 1.257 1.117 2.275 2.495 2.275zM10.286 29.474h4.473V16.572h-4.473v12.902zM21.038 22.297c0-1.48.7-2.926 2.373-2.926 1.674 0 2.086 1.447 2.086 2.891v7.046h4.453v-7.334c0-5.096-3.012-5.974-4.865-5.974-1.851 0-2.872.626-4.047 2.143v-1.736h-4.466v12.901h4.466v-7.01z" fill="#fff"/></svg>