<svg width="150" height="40" viewBox="0 0 150 40" fill="none" xmlns="http://www.w3.org/2000/svg"><path d="M10.931 27.375C3.765 23.87 1.351 14.957 5.008 7.08a16.42 16.42 0 0 1 5.668-6.7 18.404 18.404 0 0 0-8.9 8.942C-2.53 18.58 1.451 29.585 10.666 33.9c9.215 4.316 20.175.308 24.48-8.951C38.934 16.8 36.324 7.005 29.34 2.197 22.357-2.61 12.509 1.002 9.369 9.03c3.039-2.2 7.14-2.728 10.773-1.027 5.346 2.504 7.656 8.888 5.159 14.26-2.368 5.092-8.935 7.771-14.37 5.112zM55.604 30.968c5.324 0 10.114-2.956 10.114-8.58 0-4.805-3.726-7.063-7.984-8.253l-3.153-.903c-2.949-.821-3.153-2.3-3.153-2.997 0-1.89 1.678-3.244 3.89-3.244 2.457 0 3.849 1.56 3.849 3.572h5.692c0-5.378-4.095-8.622-9.418-8.622-5.406 0-9.746 3.367-9.746 8.417 0 2.545 1.105 6.281 7.289 7.924l3.44.985c2.415.739 3.562 1.847 3.562 3.407 0 2.012-1.68 3.326-4.218 3.326-2.62 0-4.586-1.683-4.627-3.736h-5.692c0 5.009 4.136 8.704 10.155 8.704zM71.825 8.058c1.883 0 3.398-1.436 3.398-3.243 0-1.806-1.515-3.202-3.398-3.202-1.843 0-3.399 1.396-3.399 3.202 0 1.807 1.556 3.243 3.399 3.243zm-2.662 22.54h5.364V11.466h-5.364v19.132zM97.568 30.598l-7.493-10.387 6.306-8.745h-6.306l-2.948 4.393-3.03-4.393H77.75l6.306 8.745-7.576 10.387h6.306l4.3-6.117 4.217 6.117h6.265zM99.556 30.598h5.364V1.243h-5.364v29.355zM128.411 20.704c0-5.871-4.463-9.73-9.909-9.73-5.487 0-10.155 3.859-10.155 10.058 0 5.912 4.299 9.936 10.155 9.936 3.358 0 6.715-1.314 8.517-3.736l-3.153-3.162c-1.146 1.355-3.071 2.135-4.996 2.135-2.579 0-4.381-1.231-4.954-3.448h14.413c.041-.863.082-1.52.082-2.053zm-14.495-1.437c.573-2.587 2.498-3.613 4.668-3.613 2.416 0 4.299 1.355 4.463 3.613h-9.131zM143.593 11.466l-4.381 11.044-4.505-11.044h-5.896l7.534 17.326L131.841 40h5.733l11.793-28.534h-5.774z" fill="#fff"/><path d="M12.888 22.825c2.843 1.338 6.224.096 7.552-2.775 1.327-2.87.1-6.282-2.744-7.62-2.842-1.338-6.223-.095-7.551 2.775-1.328 2.87-.1 6.282 2.743 7.62z" fill="#fff"/></svg>