<svg width="95" height="96" viewBox="0 0 95 96" fill="none" xmlns="http://www.w3.org/2000/svg"><path d="M33.954 71.575l4.451 16.611-21.063-12.16 16.612-4.45z" fill="#C38F31"/><path d="M3.116 19.13l14.027 52.35 19.042-5.102 5.102 19.042 52.35-14.027L74.509 0 3.116 19.13z" fill="#F5BB53"/><path d="M21.326 92.918l71.042-19.036L73.332 2.84 2.29 21.875l19.036 71.043zm72.43-17.472l-72.849 19.52a.935.935 0 0 1-1.145-.661L.242 21.455a.936.936 0 0 1 .661-1.144L73.753.79a.935.935 0 0 1 1.144.661l19.52 72.85a.934.934 0 0 1-.66 1.144z" fill="#231F20"/><path d="M17.88 74.952l20.728 11.967-4.38-16.347-16.348 4.38zM40.338 89.76a.938.938 0 0 1-.709-.093L14.991 75.442a.933.933 0 0 1 .225-1.712l19.43-5.207a.935.935 0 0 1 1.146.661l5.206 19.43a.935.935 0 0 1-.66 1.146z" fill="#231F20"/></svg>