<svg width="77" height="102" viewBox="0 0 77 102" fill="none" xmlns="http://www.w3.org/2000/svg"><path fill="#F5BB53" d="M70.913 63.872l-4.236 4.245-51.601-51.705 4.236-4.244z"/><path d="M16.95 13.818l9.512 10.553 2.848-2.854-10.532-9.53-1.827 1.831zm9.133 11.655l-.018-.019L15.87 14.143a.512.512 0 0 1 .017-.703l2.512-2.517c.192-.192.5-.2.702-.018L30.39 21.12a.51.51 0 0 1 .018.74l-3.606 3.613a.509.509 0 0 1-.72 0z" fill="#E6ECF2"/><path d="M27.163 25.112L67.939 65.97a2.04 2.04 0 0 0 2.886 0 2.05 2.05 0 0 0 0-2.892L30.049 22.22l-2.886 2.892zm40.055 41.58L26.083 25.473a.51.51 0 0 1 0-.721l3.606-3.614c.199-.199.521-.199.72 0l41.136 41.218a3.073 3.073 0 0 1 0 4.335 3.058 3.058 0 0 1-4.327 0zM17.678 3.525c-3.054.282-5.397 1.338-6.969 3.143-1.919 2.203-2.166 4.939-2.185 5.984l7.532.62 2.18-2.184-.558-7.563zM7.662 13.484a.51.51 0 0 1-.148-.324c-.012-.165-.261-4.076 2.428-7.163 1.843-2.115 4.593-3.302 8.174-3.53a.51.51 0 0 1 .54.472l.613 8.307a.512.512 0 0 1-.149.399L16.61 14.16a.508.508 0 0 1-.402.148l-8.227-.677a.509.509 0 0 1-.318-.148z" fill="#E6ECF2"/><path d="M17.145 12.903l-6.7-6.713a.51.51 0 0 1 .72-.722l6.7 6.714a.51.51 0 0 1-.72.721z" fill="#E6ECF2"/><path d="M8.297 9.557a.51.51 0 0 1 .578-.822l8.264 3.932a.51.51 0 0 1-.437.921L8.44 9.657a.51.51 0 0 1-.142-.1zM17.655 12.391a.496.496 0 0 1-.097-.137L13.57 4.037a.51.51 0 0 1 .916-.446l3.988 8.216a.51.51 0 0 1-.819.584zM27.163 25.112l1.84 1.844 2.886-2.892-1.84-1.843-2.886 2.891zm1.48 2.927l-2.56-2.566a.51.51 0 0 1 0-.721l3.606-3.614c.199-.199.521-.199.72 0l2.56 2.566c.2.199.2.522 0 .721l-3.606 3.614c-.199.2-.521.199-.72 0z" fill="#E6ECF2"/><path d="M13.99 36.73a5.673 5.673 0 0 1-2.07 7.742 5.65 5.65 0 0 1-7.726-2.075 5.673 5.673 0 0 1 2.07-7.741 5.65 5.65 0 0 1 7.725 2.075z" fill="#EB4C42"/><path d="M21.29 49.402a5.673 5.673 0 0 1-2.07 7.741 5.65 5.65 0 0 1-7.726-2.074 5.673 5.673 0 0 1 2.07-7.741 5.649 5.649 0 0 1 7.726 2.074z" fill="#F5BB53"/><path d="M14.928 69.976a5.673 5.673 0 0 1-2.07 7.742 5.65 5.65 0 0 1-7.726-2.075 5.673 5.673 0 0 1 2.07-7.741 5.65 5.65 0 0 1 7.726 2.074z" fill="#49596B"/><path d="M28.59 62.073a5.673 5.673 0 0 1-2.07 7.741 5.65 5.65 0 0 1-7.725-2.074 5.673 5.673 0 0 1 2.07-7.741 5.65 5.65 0 0 1 7.725 2.074z" fill="#7CC767"/><path d="M35.891 74.742a5.673 5.673 0 0 1-2.07 7.741 5.65 5.65 0 0 1-7.725-2.074 5.673 5.673 0 0 1 2.07-7.742 5.65 5.65 0 0 1 7.725 2.075z" fill="#3B7FD1"/><path d="M.327 44.635a5.673 5.673 0 0 1-2.07 7.74 5.65 5.65 0 0 1-7.726-2.073 5.674 5.674 0 0 1 2.07-7.742 5.65 5.65 0 0 1 7.726 2.075z" fill="#EB6259"/><path d="M-17.286 44.79c-.73.422-.98 1.36-.56 2.09l30.193 52.4c.421.731 1.357.983 2.087.56l28.415-16.438c.73-.422.98-1.36.559-2.09l-30.193-52.4a1.527 1.527 0 0 0-2.086-.56L-17.286 44.79zm60.644 39.496l-28.415 16.438a2.545 2.545 0 0 1-3.478-.934l-30.192-52.4a2.557 2.557 0 0 1 .932-3.484L10.62 27.468a2.546 2.546 0 0 1 3.477.934l30.193 52.4a2.557 2.557 0 0 1-.932 3.484z" fill="#E6ECF2"/><path d="M-14.264 46.463a1.395 1.395 0 0 0-.509 1.901l27.455 47.65a1.389 1.389 0 0 0 1.898.51l25.839-14.949a1.395 1.395 0 0 0 .508-1.901l-27.455-47.65a1.389 1.389 0 0 0-1.898-.509l-25.839 14.948zm55.146 35.916L15.043 97.327a2.315 2.315 0 0 1-3.163-.85l-27.455-47.649a2.325 2.325 0 0 1 .848-3.169L11.11 30.711a2.315 2.315 0 0 1 3.163.85L41.729 79.21a2.325 2.325 0 0 1-.847 3.169z" fill="#4C4C4C"/><path d="M-8.08 44.02a5.284 5.284 0 0 0-1.926 7.203 5.262 5.262 0 0 0 7.188 1.93A5.284 5.284 0 0 0-.892 45.95a5.262 5.262 0 0 0-7.188-1.93zm5.77 10.016c-2.998 1.735-6.847.702-8.578-2.303-1.732-3.005-.7-6.861 2.299-8.596 2.999-1.735 6.847-.702 8.579 2.303 1.731 3.005.7 6.861-2.3 8.596zM5.861 35.956a5.284 5.284 0 0 0-1.926 7.202 5.262 5.262 0 0 0 7.188 1.93 5.284 5.284 0 0 0 1.926-7.202 5.262 5.262 0 0 0-7.188-1.93zm5.771 10.016c-2.999 1.735-6.847.702-8.579-2.303-1.731-3.006-.7-6.862 2.299-8.597 3-1.735 6.847-.701 8.579 2.304 1.732 3.005.7 6.86-2.299 8.596zM-.63 56.95a5.284 5.284 0 0 0-1.927 7.202 5.262 5.262 0 0 0 7.188 1.93 5.284 5.284 0 0 0 1.926-7.202A5.262 5.262 0 0 0-.63 56.95zm5.77 10.016c-2.999 1.735-6.847.702-8.579-2.303-1.731-3.005-.7-6.861 2.3-8.596 2.998-1.736 6.847-.702 8.578 2.303 1.732 3.005.7 6.86-2.299 8.596zM13.31 48.885a5.284 5.284 0 0 0-1.925 7.202 5.262 5.262 0 0 0 7.188 1.93 5.285 5.285 0 0 0 1.925-7.202 5.262 5.262 0 0 0-7.187-1.93zM19.083 58.9c-3 1.734-6.848.701-8.58-2.304-1.73-3.005-.7-6.861 2.3-8.596 2.999-1.735 6.847-.702 8.579 2.303 1.731 3.005.7 6.861-2.3 8.596zM6.819 69.879a5.284 5.284 0 0 0-1.926 7.202 5.262 5.262 0 0 0 7.188 1.93 5.284 5.284 0 0 0 1.926-7.202 5.262 5.262 0 0 0-7.188-1.93zm5.771 10.016c-3 1.735-6.847.701-8.579-2.304-1.732-3.005-.7-6.86 2.299-8.596 2.999-1.735 6.847-.702 8.579 2.303 1.731 3.006.7 6.862-2.299 8.597zM20.76 61.813a5.284 5.284 0 0 0-1.926 7.203 5.262 5.262 0 0 0 7.188 1.93 5.284 5.284 0 0 0 1.926-7.203 5.262 5.262 0 0 0-7.188-1.93zm5.771 10.016c-2.999 1.735-6.847.702-8.579-2.303-1.731-3.005-.7-6.861 2.3-8.596 2.998-1.735 6.847-.702 8.578 2.303 1.732 3.005.7 6.861-2.299 8.596zM14.269 82.809a5.284 5.284 0 0 0-1.926 7.202 5.262 5.262 0 0 0 7.188 1.93 5.284 5.284 0 0 0 1.925-7.203 5.262 5.262 0 0 0-7.187-1.93zm5.77 10.015c-2.998 1.735-6.847.702-8.578-2.303-1.732-3.005-.7-6.861 2.299-8.596 2.999-1.735 6.847-.702 8.579 2.303 1.731 3.005.7 6.861-2.3 8.596zM28.21 74.742a5.284 5.284 0 0 0-1.926 7.202 5.262 5.262 0 0 0 7.188 1.93 5.285 5.285 0 0 0 1.926-7.202 5.262 5.262 0 0 0-7.188-1.93zm5.771 10.016c-2.999 1.735-6.847.702-8.579-2.303-1.731-3.005-.7-6.861 2.299-8.596 2.999-1.735 6.847-.702 8.579 2.303 1.731 3.005.7 6.86-2.299 8.596z" fill="#E6ECF2"/></svg>