<svg width="165" height="70" viewBox="0 0 165 70" fill="none" xmlns="http://www.w3.org/2000/svg"><path d="M34.966 0C15.655 0 0 15.67 0 35s15.655 35 34.966 35c19.312 0 34.966-15.67 34.966-35S54.278 0 34.966 0z" fill="#fff"/><path d="M16.354 31.459l-1.863-1.76c-.762.912-1.482 1.42-2.626 1.42-1.397 0-2.307-1.187-2.307-2.967 0-1.823.91-2.988 2.307-2.988 1.186 0 1.885.657 2.541 1.59l1.927-1.95c-.931-1.42-2.286-2.46-4.404-2.46-3.091 0-5.336 2.396-5.336 5.808s2.308 5.786 5.209 5.786c2.202 0 3.473-1.038 4.552-2.48zM50.324 22.345c-1.038-.025-1.779.445-2.287.975v-.742h-2.922v11.127h2.922v-6.02c0-1.928.74-2.415 1.885-2.415.607 0 1.144.255 2.147 1.128.217-.992.618-1.87 1.167-2.591-1.079-1.023-1.9-1.438-2.912-1.462zM17.5 34.419c-1.059 0-1.8.445-2.35.933v-.7h-2.923v15.217l2.923-1.462v-3.264c.529.487 1.376.869 2.35.869 2.753 0 4.32-2.332 4.32-5.658 0-4.155-1.949-5.935-4.32-5.935zm-.381 8.837c-.847 0-1.525-.34-1.97-.953v-4.196c.424-.551.89-.933 1.8-.933 1.144 0 1.906.954 1.906 3.243 0 1.864-.614 2.84-1.736 2.84zM42.989 34.419c-1.165 0-2.097.445-2.605.975v-.742h-2.922v11.126h2.922v-6.082c0-1.929.7-2.522 1.906-2.522 1.207 0 1.884.593 1.884 2.586v6.018h2.922v-6.272c0-3.137-1.27-5.087-4.107-5.087zM36.952 25.333H38.8v5.256c0 1.95 1.164 3.349 2.964 3.349.91 0 1.924-.27 2.628-.789v-2.857c-.72.615-1.06.848-1.59.848-.7 0-1.08-.276-1.08-1.335v-4.472h2.668v-2.756h-2.668v-2.445L38.8 21.594v.983h-3.437c.797.615 1.308 1.543 1.59 2.756zM33.49 36.842v8.91h2.922V36.85c-.379.296-.837.51-1.444.513a2.233 2.233 0 0 1-1.478-.527" fill="#333"/><path d="M36.412 33.128v-5.697c0-3.136-1.27-5.086-4.108-5.086-1.165 0-2.096.445-2.604.975v-.742h-2.922v11.127H29.7v-6.083c0-1.928.698-2.522 1.905-2.522s1.885.593 1.885 2.586v5.462c.389-.345.898-.525 1.47-.525.556 0 1.066.195 1.452.507M27.613 34.419c-2.9 0-5.018 2.395-5.018 5.808 0 3.41 2.118 5.785 5.018 5.785 2.901 0 5.04-2.375 5.04-5.785 0-3.413-2.139-5.808-5.04-5.808zm0 8.774c-1.397 0-2.053-1.25-2.053-2.966 0-1.718.656-2.99 2.053-2.99 1.398 0 2.076 1.294 2.076 2.99 0 1.546-.678 2.966-2.076 2.966zM21.572 33.938c1.482 0 3.091-.657 3.98-1.801l-2.074-1.738c-.424.487-1.102.784-1.906.784-1.059 0-2.181-.572-2.287-2.098h6.649c.021-.212.042-.509.042-.933 0-3.18-1.715-5.807-4.68-5.807-2.815 0-4.954 2.395-4.954 5.807 0 3.518 2.033 5.786 5.23 5.786zm-.424-9.05c1.313 0 1.906.996 1.99 1.992h-3.81c.105-1.123.762-1.992 1.82-1.992zM53.53 43.233c-.699 0-1.08-.275-1.08-1.335v-4.473h2.668V34.67h-2.667v-2.445l-2.923 1.462v.983h-3.436c.797.614 1.307 1.542 1.589 2.755h1.847v5.257c0 1.95 1.165 3.35 2.965 3.35.91 0 1.924-.27 2.627-.79v-2.856c-.72.614-1.06.847-1.59.847zM62.25 29.068H55.6c.106 1.526 1.229 2.098 2.288 2.098.804 0 1.481-.297 1.905-.784l2.075 1.738c-.89 1.144-2.499 1.802-3.98 1.802-3.198 0-5.23-2.268-5.23-5.787 0-3.412 2.138-5.807 4.954-5.807 2.964 0 4.68 2.628 4.68 5.807 0 .424-.022.721-.043.933zm-4.786-4.197c-1.06 0-1.715.87-1.821 1.993h3.811c-.085-.997-.677-1.993-1.99-1.993z" fill="#333"/><path d="M76.022 34.077l-.784-1.664c1.727-.24 2.19-.656 2.19-1.952-.415.368-.974.704-1.774.704-1.79 0-3.261-1.344-3.261-4.48 0-2.513 1.183-4.274 3.26-4.274.737 0 1.377.288 1.776.656v-.48h2.206v6.978c0 2.768-.67 4.192-3.613 4.512zm1.407-8.865c-.336-.464-.847-.72-1.487-.72-.847 0-1.31.735-1.31 2.144 0 1.728.575 2.449 1.438 2.449.688 0 1.04-.289 1.359-.705v-3.168zM88.379 30.992h-2.27l-3.022-8.401h2.43l1.232 3.888c.208.64.43 1.44.527 1.84.095-.415.32-1.183.527-1.84l1.231-3.888h2.367l-3.022 8.401zM98.185 27.5h-5.02c.08 1.152.927 1.585 1.727 1.585.607 0 1.119-.225 1.439-.593l1.567 1.313c-.671.864-1.887 1.36-3.006 1.36-2.415 0-3.95-1.712-3.95-4.369 0-2.576 1.616-4.385 3.742-4.385 2.238 0 3.533 1.985 3.533 4.385 0 .32-.015.544-.032.704zm-3.613-3.169c-.8 0-1.295.657-1.375 1.505h2.878c-.064-.752-.512-1.505-1.503-1.505zM108.06 30.991v-4.544c0-1.505-.512-1.953-1.423-1.953s-1.439.448-1.439 1.905v4.592h-2.206v-10.45l2.206-1.104v3.713c.383-.4 1.087-.736 1.967-.736 2.141 0 3.101 1.472 3.101 3.84v4.737h-2.206zM114.777 31.165c-2.19 0-3.789-1.793-3.789-4.369 0-2.576 1.599-4.385 3.789-4.385 2.191 0 3.805 1.809 3.805 4.385 0 2.576-1.614 4.369-3.805 4.369zm0-6.625c-1.055 0-1.551.96-1.551 2.256 0 1.296.496 2.24 1.551 2.24s1.567-1.071 1.567-2.24c0-1.28-.512-2.256-1.567-2.256zM129.07 30.989v-4.545c0-1.504-.432-1.953-1.343-1.953-.912 0-1.36.449-1.36 1.905v4.593h-2.205v-4.545c0-1.504-.433-1.953-1.344-1.953-.91 0-1.359.449-1.359 1.905v4.593h-2.206v-8.402h2.206v.56c.385-.4.961-.736 1.839-.736 1.071 0 1.695.304 2.319 1.072.575-.592 1.279-1.072 2.669-1.072 2.143 0 2.99 1.473 2.99 3.84v4.738h-2.206zM139.209 27.5h-5.021c.08 1.152.927 1.585 1.726 1.585.608 0 1.12-.225 1.44-.593l1.567 1.313c-.672.864-1.887 1.36-3.007 1.36-2.414 0-3.949-1.712-3.949-4.369 0-2.576 1.615-4.385 3.742-4.385 2.238 0 3.533 1.985 3.533 4.385 0 .32-.016.544-.031.704zm-3.614-3.169c-.8 0-1.296.657-1.375 1.505h2.877c-.063-.752-.511-1.505-1.502-1.505zM140.038 30.987V20.76l2.207-1.104v11.33h-2.207zM150.284 27.5h-5.021c.081 1.152.928 1.585 1.727 1.585.608 0 1.119-.225 1.44-.593l1.566 1.313c-.672.864-1.887 1.36-3.006 1.36-2.413 0-3.949-1.712-3.949-4.369 0-2.576 1.615-4.385 3.741-4.385 2.239 0 3.534 1.985 3.534 4.385 0 .32-.016.544-.032.704zm-3.613-3.169c-.8 0-1.295.657-1.376 1.505h2.878c-.064-.752-.511-1.505-1.502-1.505zM154.154 31.165c-1.327 0-2.623-.383-3.518-.976l.736-1.68c.895.496 1.838.767 2.91.767.863 0 1.119-.207 1.119-.64 0-.384-.304-.575-1.231-.848-2.015-.608-3.31-1.104-3.31-2.881 0-1.744 1.392-2.496 3.358-2.496 1.055 0 2.206.32 3.101.816l-.703 1.745c-.832-.449-1.743-.672-2.446-.672-.895 0-1.136.176-1.136.544 0 .351.256.495 1.743.976 1.503.496 2.798 1.04 2.798 2.72 0 1.937-1.534 2.625-3.421 2.625zM161.285 31.165c-1.328 0-2.622-.383-3.518-.976l.736-1.68c.896.496 1.839.767 2.91.767.863 0 1.118-.207 1.118-.64 0-.384-.303-.575-1.23-.848-2.015-.608-3.31-1.104-3.31-2.881 0-1.744 1.39-2.496 3.358-2.496 1.055 0 2.206.32 3.101.816l-.703 1.745c-.832-.449-1.743-.672-2.446-.672-.895 0-1.135.176-1.135.544 0 .351.255.495 1.742.976 1.503.496 2.798 1.04 2.798 2.72 0 1.937-1.535 2.625-3.421 2.625zM76.47 45.48h-2.174l1.118-2.96-3.26-8.402h2.43l1.374 4.05c.224.64.448 1.44.544 1.84.095-.417.32-1.184.544-1.84l1.374-4.05h2.367L76.47 45.481zM84.078 42.694c-2.19 0-3.79-1.791-3.79-4.369 0-2.576 1.6-4.385 3.79-4.385s3.804 1.809 3.804 4.386-1.614 4.368-3.804 4.368zm0-6.625c-1.056 0-1.551.96-1.551 2.256 0 1.297.495 2.24 1.551 2.24 1.055 0 1.567-1.07 1.567-2.24 0-1.28-.512-2.256-1.567-2.256zM93.616 42.52v-.56c-.383.4-1.087.736-1.967.736-2.141 0-3.1-1.472-3.1-3.841v-4.737h2.205v4.545c0 1.504.512 1.953 1.424 1.953.911 0 1.438-.449 1.438-1.904v-4.594h2.207v8.402h-2.207zM101.722 42.519v-4.546c0-1.504-.511-1.952-1.422-1.952-.912 0-1.44.448-1.44 1.904v4.594h-2.206v-8.402h2.206v.56c.383-.4 1.087-.737 1.966-.737 2.143 0 3.102 1.473 3.102 3.84v4.739h-2.206zM108.223 45.607l-.783-1.664c1.726-.24 2.19-.656 2.19-1.953-.415.368-.975.704-1.774.704-1.792 0-3.263-1.344-3.263-4.48 0-2.513 1.184-4.274 3.263-4.274.734 0 1.374.289 1.774.657v-.48h2.206v6.977c0 2.769-.671 4.194-3.613 4.513zm1.407-8.866c-.335-.464-.847-.72-1.487-.72-.847 0-1.311.736-1.311 2.145 0 1.728.576 2.449 1.44 2.449.687 0 1.038-.289 1.358-.705v-3.169zM120.825 42.694c-.735 0-1.374-.287-1.774-.655v2.464l-2.206 1.104v-11.49h2.206v.528c.416-.368.975-.705 1.774-.705 1.791 0 3.262 1.345 3.262 4.482 0 2.512-1.183 4.273-3.262 4.273zm-.416-6.673c-.686 0-1.038.288-1.358.704v3.169c.336.464.848.72 1.487.72.847 0 1.311-.736 1.311-2.144 0-1.729-.575-2.45-1.44-2.45zM131.89 39.03h-5.02c.08 1.152.927 1.585 1.726 1.585.608 0 1.12-.225 1.439-.593l1.568 1.312c-.672.864-1.887 1.36-3.007 1.36-2.414 0-3.949-1.712-3.949-4.369 0-2.576 1.615-4.385 3.742-4.385 2.238 0 3.532 1.985 3.532 4.386 0 .32-.015.543-.031.704zm-3.614-3.169c-.798 0-1.295.656-1.375 1.504h2.879c-.064-.752-.512-1.504-1.504-1.504zM136.306 42.694c-2.189 0-3.789-1.791-3.789-4.369 0-2.576 1.6-4.385 3.789-4.385 2.191 0 3.806 1.809 3.806 4.386s-1.615 4.368-3.806 4.368zm0-6.625c-1.055 0-1.55.96-1.55 2.256 0 1.297.495 2.24 1.55 2.24 1.055 0 1.567-1.07 1.567-2.24 0-1.28-.512-2.256-1.567-2.256zM144.723 42.694c-.735 0-1.375-.287-1.774-.655v2.464l-2.206 1.104v-11.49h2.206v.528c.415-.368.975-.705 1.774-.705 1.791 0 3.262 1.345 3.262 4.482 0 2.512-1.183 4.273-3.262 4.273zm-.415-6.673c-.687 0-1.04.288-1.359.704v3.169c.336.464.848.72 1.487.72.847 0 1.311-.736 1.311-2.144 0-1.729-.576-2.45-1.439-2.45zM148.728 42.52V32.296l2.206-1.105v11.33h-2.206zM158.881 39.03h-5.02c.08 1.152.927 1.585 1.727 1.585.607 0 1.119-.225 1.438-.593l1.567 1.312c-.671.864-1.887 1.36-3.005 1.36-2.415 0-3.95-1.712-3.95-4.369 0-2.576 1.615-4.385 3.742-4.385 2.238 0 3.533 1.985 3.533 4.386 0 .32-.016.543-.032.704zm-3.613-3.169c-.799 0-1.295.656-1.375 1.504h2.878c-.064-.752-.512-1.504-1.503-1.504zM77.445 54.984v-.56c-.4.416-1.103.736-1.887.736-1.566 0-3.133-.96-3.133-2.993 0-1.855 1.502-2.784 3.405-2.784.767 0 1.263.16 1.615.336v-.416c0-.592-.4-1.072-1.198-1.072-1.008 0-1.536.144-2.303.56l-.847-1.537c.974-.56 1.79-.849 3.15-.849 2.03 0 3.404 1.058 3.404 2.946v5.633h-2.206zm0-3.52c-.383-.24-.752-.353-1.535-.353-.832 0-1.279.384-1.279 1.056 0 .593.336 1.12 1.28 1.12.719 0 1.294-.367 1.534-.767v-1.056zM87.227 45.208c-.656 0-.816.208-.816.673v.703h1.423v2.082H86.41v6.322h-2.206v-6.322h-1.007v-2.081h1.007v-1.008c0-1.57.864-2.209 2.398-2.209.544 0 1.007.08 1.39.24v1.776a1.601 1.601 0 0 0-.766-.176zM93.534 54.988v-.56c-.384.4-1.086.736-1.966.736-2.142 0-3.102-1.472-3.102-3.84v-4.739h2.207v4.546c0 1.505.511 1.952 1.422 1.952.912 0 1.44-.447 1.44-1.904v-4.594h2.206v8.403h-2.207zM101.775 54.647c-.368.288-1.023.512-1.712.512-1.359 0-2.237-1.056-2.237-2.529v-3.969h-1.407V46.58h1.407v-2.16l2.206-1.105v3.265h2.015v2.081h-2.015v3.377c0 .8.288 1.008.815 1.008.4 0 .704-.175 1.247-.64l-.319 2.241zM107.75 54.988v-.56c-.384.4-1.087.736-1.967.736-2.142 0-3.102-1.472-3.102-3.84v-4.739h2.206v4.546c0 1.505.512 1.952 1.424 1.952.91 0 1.439-.447 1.439-1.904v-4.594h2.206v8.403h-2.206zM115.77 49.158c-.351-.32-.784-.544-1.279-.544-.862 0-1.423.369-1.423 1.825v4.545h-2.206v-8.403h2.206v.561c.384-.4.943-.737 1.727-.737.72 0 1.263.29 1.551.593l-.576 2.16zM123.383 51.495h-5.021c.081 1.153.928 1.585 1.727 1.585.607 0 1.119-.224 1.439-.591l1.567 1.31c-.672.865-1.887 1.361-3.006 1.361-2.414 0-3.949-1.712-3.949-4.368 0-2.577 1.615-4.387 3.741-4.387 2.239 0 3.533 1.986 3.533 4.387 0 .32-.016.544-.031.703zm-3.613-3.168c-.8 0-1.296.656-1.376 1.504h2.878c-.064-.753-.511-1.504-1.502-1.504zM80.521 23.226v7.762h2.207v-7.762a1.82 1.82 0 0 1-1.103.38c-.41 0-.793-.144-1.104-.38zM81.625 22.86c-.597 0-1.1-.505-1.1-1.103 0-.597.503-1.102 1.1-1.102.596 0 1.1.505 1.1 1.102 0 .598-.504 1.102-1.1 1.102z" fill="#fff"/></svg>