<svg width="99" height="99" viewBox="0 0 99 99" fill="none" xmlns="http://www.w3.org/2000/svg"><path d="M9.434 83.972l4.96 4.96L96.12 7.207l-4.961-4.96L9.434 83.971zm4.96 7.217a.931.931 0 0 1-.661-.274L7.45 84.633a.933.933 0 0 1 0-1.322L90.498.263a.962.962 0 0 1 1.322 0l6.283 6.283a.935.935 0 0 1 0 1.322L15.055 90.915a.93.93 0 0 1-.661.274z" fill="#333"/><path d="M8.343 85.525l-5.138 9.636 9.636-5.138-4.498-4.498zM.936 98.366a.934.934 0 0 1-.826-1.375l7.177-13.459a.933.933 0 0 1 1.486-.22l6.282 6.281a.933.933 0 0 1-.221 1.486l-13.46 7.177a.93.93 0 0 1-.438.11z" fill="#333"/><path d="M4.755 92.255l-1.55 2.906 2.906-1.55-1.356-1.356zm-3.82 6.111a.934.934 0 0 1-.825-1.375l3.588-6.73a.94.94 0 0 1 .688-.485.93.93 0 0 1 .798.264l3.142 3.141a.94.94 0 0 1 .264.799.94.94 0 0 1-.485.688l-6.73 3.588a.931.931 0 0 1-.44.11z" fill="#333"/></svg>