<svg width="111" height="155" viewBox="0 0 111 155" fill="none" xmlns="http://www.w3.org/2000/svg"><path d="M108.766 30.61L37.962 11.64 9.763 116.877l70.805 18.972 28.198-105.238z" fill="#4C4C4C"/><path d="M42.36 3.635a5.202 5.202 0 0 0-6.366 3.675L3.635 128.075a5.203 5.203 0 0 0 3.675 6.365l60.404 16.185a5.202 5.202 0 0 0 6.365-3.675l32.359-120.764a5.202 5.202 0 0 0-3.675-6.365L42.359 3.635zm24.87 148.797L6.826 136.246c-3.764-1.008-6.006-4.891-4.997-8.655L34.188 6.826a7.075 7.075 0 0 1 8.655-4.997l60.404 16.185a7.074 7.074 0 0 1 4.997 8.656L75.886 147.434c-1.009 3.765-4.892 6.006-8.656 4.998z" fill="#F3F9FF"/><path d="M34.937 133.38a1.06 1.06 0 0 0-.548 2.047l9.382 2.514a1.06 1.06 0 0 0 .548-2.047l-9.382-2.514zm8.35 6.367l-9.382-2.514a2.932 2.932 0 0 1-2.071-3.587 2.932 2.932 0 0 1 3.587-2.072l9.382 2.513a2.933 2.933 0 0 1 2.071 3.589 2.932 2.932 0 0 1-3.587 2.071zM6.103 118.865l70.444 18.875 28.29-105.58-70.444-18.875-28.29 105.58zm70.863 20.924l-72.25-19.36a.935.935 0 0 1-.661-1.145L32.829 11.898a.936.936 0 0 1 1.145-.66l72.25 19.358a.935.935 0 0 1 .661 1.146L78.112 139.127a.935.935 0 0 1-1.146.662z" fill="#F3F9FF"/></svg>