<svg width="208" height="240" viewBox="0 0 208 240" fill="none" xmlns="http://www.w3.org/2000/svg"><path d="M2.538 196.201l150.279 40.267 51.959-193.91L54.496 2.29 2.538 196.201zm150.698 42.315L1.151 197.765a.935.935 0 0 1-.662-1.145L52.932.903a.935.935 0 0 1 1.145-.661l152.085 40.751a.934.934 0 0 1 .661 1.145l-52.442 195.717a.935.935 0 0 1-1.145.661z" fill="#4C4C4C"/><path fill="#4C4C4C" d="M58.655 7.286l144.89 38.823-51.718 193.02L6.936 200.304z"/><path fill="#F3F9FF" d="M62.315 20.946l131.366 35.2-45.552 170.002-131.366-35.2zM76.823 9.304l108.184 28.988-2.33 8.693L74.494 17.997z"/><path d="M89.755 20.165l-2.208 8.242a5.32 5.32 0 0 0 3.757 6.508l65.281 17.492a5.32 5.32 0 0 0 6.509-3.758l2.208-8.241-2.915-.781-2.209 8.241a2.298 2.298 0 0 1-2.812 1.624L92.086 32a2.298 2.298 0 0 1-1.623-2.812l2.208-8.241-2.916-.782zM156.1 54.213l-65.28-17.492c-3.827-1.025-6.106-4.972-5.08-8.798l2.45-9.145a.935.935 0 0 1 1.145-.661l4.722 1.265a.935.935 0 0 1 .661 1.145l-2.45 9.145c-.06.227.074.46.3.521l65.281 17.492a.427.427 0 0 0 .522-.3l2.45-9.145a.936.936 0 0 1 1.146-.661l4.721 1.265a.935.935 0 0 1 .661 1.145l-2.45 9.144c-1.025 3.826-4.972 6.106-8.799 5.08z" fill="#231F20"/><path d="M75.726 14.47L180.3 42.492l1.623-6.057L77.349 8.414l-1.623 6.057zm104.993 30.07L74.339 16.034a.936.936 0 0 1-.662-1.145l2.107-7.864a.935.935 0 0 1 1.145-.661L183.31 34.87a.935.935 0 0 1 .661 1.145l-2.107 7.863a.936.936 0 0 1-1.145.661zM92.924 27.223l-.656 2.45c-.06.227.074.46.301.521l65.281 17.492a.427.427 0 0 0 .522-.301l.656-2.45-66.104-17.712zm64.442 22.27L92.086 32a2.299 2.299 0 0 1-1.624-2.812l.898-3.353a.935.935 0 0 1 1.145-.661l67.911 18.196a.936.936 0 0 1 .661 1.145l-.899 3.353a2.298 2.298 0 0 1-2.812 1.623z" fill="#231F20"/><path d="M16.012 187.364l129.555 34.714 45.187-168.642-25.198-6.752-.656 2.45c-1.025 3.826-4.973 6.105-8.799 5.08l-65.28-17.492c-3.827-1.026-6.106-4.973-5.08-8.799l.656-2.45-25.198-6.751-45.187 168.642zm129.974 36.762L14.625 188.928a.934.934 0 0 1-.661-1.145L59.635 17.335a.935.935 0 0 1 1.145-.661l27.004 7.235c.5.134.794.647.66 1.145l-.898 3.353a5.32 5.32 0 0 0 3.758 6.508l65.281 17.492a5.321 5.321 0 0 0 6.509-3.757l.898-3.353a.935.935 0 0 1 1.145-.661l27.004 7.236a.936.936 0 0 1 .662 1.145l-45.672 170.448a.934.934 0 0 1-1.145.661z" fill="#231F20"/><path d="M134.003 194.735l-4.38 16.346 20.727-11.966-16.347-4.38zm-6.11 19.188a.932.932 0 0 1-.661-1.145l5.207-19.431a.935.935 0 0 1 1.145-.661l19.431 5.207a.936.936 0 1 1 .226 1.713l-24.637 14.224a.94.94 0 0 1-.711.093z" fill="#231F20"/><path d="M127.893 213.923l-111.93-29.992a.935.935 0 1 1 .485-1.806l111.929 29.991a.935.935 0 1 1-.484 1.807zM168.146 79.063L67.966 52.219a.935.935 0 1 1 .483-1.806L168.63 77.256a.934.934 0 1 1-.484 1.807zM163.817 95.22L63.636 68.376a.935.935 0 1 1 .484-1.806L164.3 93.414a.935.935 0 0 1-.484 1.806zM159.488 111.376L59.307 84.533a.935.935 0 1 1 .484-1.807l100.181 26.844a.935.935 0 1 1-.484 1.806zM155.158 127.534l-100.18-26.843a.935.935 0 0 1 .483-1.806l100.181 26.843a.934.934 0 1 1-.484 1.806zM150.829 143.691l-100.18-26.844a.935.935 0 0 1 .483-1.806l100.181 26.843a.934.934 0 1 1-.484 1.807zM125.473 154.214l-79.154-21.21a.935.935 0 0 1 .484-1.806l79.154 21.209a.936.936 0 0 1-.484 1.807z" fill="#231F20"/></svg>