<svg width="40" height="40" viewBox="0 0 40 40" fill="none" xmlns="http://www.w3.org/2000/svg"><path fill-rule="evenodd" clip-rule="evenodd" d="M20 40c11.046 0 20-8.954 20-20S31.046 0 20 0 0 8.954 0 20s8.954 20 20 20z" fill="#55ACEE"/><path fill-rule="evenodd" clip-rule="evenodd" d="M29.161 12.35c-.564.362-1.86.887-2.5.887v.002a4.008 4.008 0 0 0-6.804 3.664c-3.002-.08-6.286-1.585-8.263-4.16-1.215 2.104-.163 4.443 1.216 5.296-.472.035-1.341-.055-1.75-.454-.028 1.396.644 3.246 3.092 3.918-.472.253-1.306.18-1.67.126.128 1.18 1.779 2.72 3.584 2.72-.644.744-3.064 2.094-5.78 1.664a12.043 12.043 0 0 0 6.27 1.773c6.466 0 11.488-5.241 11.218-11.706l-.002-.022.002-.05-.003-.06a6.914 6.914 0 0 0 1.943-2.051c-.327.18-1.309.54-2.222.63.586-.316 1.455-1.352 1.67-2.177z" fill="#fff"/></svg>