<svg width="14" height="14" viewBox="0 0 14 14" fill="none" xmlns="http://www.w3.org/2000/svg"><path fill-rule="evenodd" clip-rule="evenodd" d="M14 7A7 7 0 1 1 0 7a7 7 0 0 1 14 0zm-11.563.313C2.381 5.825 3.684 4.45 5.174 4.432c.76-.065 1.498.23 2.073.71-.236.26-.476.516-.732.756-.506-.307-1.115-.542-1.706-.334-.954.272-1.531 1.398-1.178 2.33.292.975 1.477 1.51 2.406 1.1.48-.172.798-.615.937-1.092a50.802 50.802 0 0 0-.739-.008H6.22c-.3-.002-.6-.003-.9-.012-.001-.327-.003-.654-.001-.982h.288c.823-.002 1.648-.003 2.472.004.056.803-.062 1.663-.584 2.308-.716.92-2.037 1.19-3.112.83-1.141-.375-1.97-1.524-1.946-2.729zm7.433-1.24h.82l.003.412.003.412c.269.003.54.004.809.006h.015v.82l-.824.005c-.003.255-.004.508-.005.763v.062H9.868l-.003-.394-.002-.43-.712-.005h-.113v-.822c.275-.001.549-.002.825-.005 0-.274.004-.55.006-.824z" fill="#D3CFE5"/></svg>