<svg width="130" height="130" viewBox="0 0 130 130" fill="none" xmlns="http://www.w3.org/2000/svg"><path d="M32.588 16.36c-2.575 0-4.902.43-6.918 1.277a13.083 13.083 0 0 0-4.865 3.503c-2.495 2.878-3.814 6.919-3.814 11.687 0 4.896 1.432 8.95 4.14 11.728 2.407 2.468 5.748 3.828 9.408 3.828 1.254 0 3.368-.178 5.197-.679 1.38-.378 3.027-1.063 3.027-2.176 0-.615-.511-1.762-1.488-1.762-.35 0-.746.142-1.247.323-.951.343-2.389.86-4.806.86-3.692 0-6.438-1.232-8.165-3.663-1.445-2.034-2.178-4.896-2.178-8.505 0-3.859.83-6.915 2.468-9.086 1.953-2.589 5.062-3.902 9.24-3.902 3.823 0 6.716 1.095 8.6 3.255 1.822 2.09 2.745 5.226 2.745 9.323 0 1.124-.077 2.743-.448 4.077-.434 1.562-1.16 2.355-2.16 2.355-.897 0-1.392-.666-1.605-2.153v-7.694c0-4.236-3.696-6.132-7.359-6.132-3.087 0-6.54 1.318-6.54 3.082 0 .759.61 2.217 1.443 2.217.296 0 .597-.156.978-.353.714-.37 1.691-.876 3.482-.876 2.493 0 3.654 1.003 3.654 3.155v.65h-1.424c-6.177 0-9.18 1.843-9.18 5.632 0 3.64 2.874 5.268 5.72 5.268 2.226 0 4.03-.971 5.673-3.055.467 1.966 2.384 3.282 4.795 3.282 2.195 0 3.977-1.066 5.153-3.083 1.056-1.812 1.614-4.33 1.614-7.283 0-9.455-5.66-15.1-15.14-15.1zm3.016 18.333c0 1.868-1.99 3.7-4.018 3.7-1.29 0-2.06-.804-2.06-2.152 0-1.97 1.626-2.927 4.973-2.927h1.105v1.38z" fill="#004880"/><path d="M116.193 66.058h-8.027v-30.42c0-11.058-8.992-20.053-20.045-20.053S68.075 24.58 68.075 35.637v62.43c0 8.924-7.258 16.186-16.18 16.186h-1.422c-8.922 0-16.18-7.262-16.18-16.187V64.683C51.238 63.68 64.72 49.572 64.72 32.371c0-6.926-2.156-13.532-6.233-19.104a1.932 1.932 0 1 0-3.119 2.284c3.59 4.905 5.487 10.721 5.487 16.82 0 15.718-12.782 28.506-28.495 28.506-15.712 0-28.496-12.788-28.496-28.506S16.648 3.866 32.36 3.866a28.426 28.426 0 0 1 19.108 7.359 1.932 1.932 0 1 0 2.593-2.868A32.284 32.284 0 0 0 32.36 0C14.516 0 0 14.522 0 32.371c0 17.2 13.48 31.309 30.428 32.312v33.383c0 11.057 8.992 20.052 20.045 20.052h1.422c11.053 0 20.045-8.995 20.045-20.052V35.637c0-8.925 7.259-16.186 16.18-16.186 8.923 0 16.182 7.26 16.182 16.186v30.42h-8.028c-7.612 0-13.806 6.196-13.806 13.811v9.384a1.932 1.932 0 1 0 3.865 0v-9.384c0-5.483 4.46-9.945 9.941-9.945h8.028v4.922c-2.79.834-4.83 3.424-4.83 6.482v11.597c0 3.73 3.033 6.766 6.762 6.766 3.729 0 6.763-3.035 6.763-6.766V81.327c0-3.058-2.04-5.648-4.831-6.482v-4.922h8.028c5.481 0 9.941 4.462 9.941 9.945v26.358c0 10.977-8.927 19.908-19.901 19.908s-19.901-8.931-19.901-19.908v-9.887a1.932 1.932 0 1 0-3.865 0v9.887c0 13.109 10.662 23.774 23.766 23.774C119.339 130 130 119.335 130 106.226V79.868c-.001-7.615-6.194-13.81-13.807-13.81zm-7.061 15.27v11.596c0 1.6-1.3 2.9-2.898 2.9a2.902 2.902 0 0 1-2.898-2.9V81.327c0-1.598 1.3-2.899 2.898-2.899s2.898 1.3 2.898 2.9z" fill="#004880"/></svg>