<svg width="130" height="130" viewBox="0 0 130 130" fill="none" xmlns="http://www.w3.org/2000/svg"><path d="M128.411 49.096l-16.057-2.964a52.291 52.291 0 0 0-7.757-13.761l5.533-15.763c.316-.902-.042-1.907-.851-2.387L85.722.266a1.897 1.897 0 0 0-2.44.436L72.748 13.493a50.172 50.172 0 0 0-15.496 0l-2.54-3.083a1.897 1.897 0 0 0-2.72-.235 2.016 2.016 0 0 0-.229 2.792l3.246 3.941a1.904 1.904 0 0 0 1.808.672 46.425 46.425 0 0 1 16.365 0 1.905 1.905 0 0 0 1.808-.672l10.2-12.384 20.76 12.3-5.357 15.263a2.022 2.022 0 0 0 .338 1.945 48.341 48.341 0 0 1 8.187 14.527 1.946 1.946 0 0 0 1.473 1.273l15.547 2.87v24.596l-15.547 2.87a1.944 1.944 0 0 0-1.472 1.273 48.323 48.323 0 0 1-8.188 14.522 2.023 2.023 0 0 0-.338 1.946l5.357 15.267-20.76 12.299-10.2-12.386a1.902 1.902 0 0 0-1.808-.673 46.4 46.4 0 0 1-16.364 0 1.905 1.905 0 0 0-1.809.673L44.81 125.475l-20.76-12.299 5.357-15.267a2.02 2.02 0 0 0-.339-1.946 48.325 48.325 0 0 1-8.187-14.522 1.945 1.945 0 0 0-1.473-1.273l-15.546-2.87V52.702l15.547-2.87a1.945 1.945 0 0 0 1.473-1.273 48.353 48.353 0 0 1 8.187-14.527 2.02 2.02 0 0 0 .338-1.945L24.05 16.824 44.81 4.526l2.143 2.602c.688.836 1.906.941 2.721.235a2.017 2.017 0 0 0 .229-2.792L46.718.703a1.897 1.897 0 0 0-2.44-.437L20.72 14.222a2.005 2.005 0 0 0-.85 2.386l5.532 15.763a52.306 52.306 0 0 0-7.757 13.76L1.59 49.097c-.92.17-1.589.99-1.589 1.95v27.909c0 .958.67 1.78 1.589 1.95l16.057 2.963a52.264 52.264 0 0 0 7.756 13.758l-5.532 15.766a2.006 2.006 0 0 0 .851 2.387l23.557 13.955c.81.48 1.837.296 2.44-.437l10.534-12.793c5.12.803 10.38.802 15.495 0l10.535 12.793a1.91 1.91 0 0 0 1.475.703c.33 0 .663-.087.965-.266l23.557-13.955a2.006 2.006 0 0 0 .851-2.387l-5.532-15.766a52.28 52.28 0 0 0 7.756-13.758l16.057-2.964c.92-.17 1.589-.99 1.589-1.95V51.047c-.001-.96-.67-1.78-1.589-1.95z" fill="#004880"/><path d="M65 23.328c-1.599 0-3.195.095-4.74.282C39.806 26.051 24.384 43.845 24.384 65c0 21.154 15.422 38.947 35.871 41.388a39.61 39.61 0 0 0 4.743.283c22.395 0 40.614-18.694 40.614-41.671 0-22.978-18.22-41.672-40.614-41.672zm-.001 79.38c-1.447 0-2.891-.085-4.294-.255-18.504-2.209-32.459-18.31-32.459-37.454 0-19.144 13.955-35.245 32.462-37.454 1.4-.17 2.843-.255 4.291-.255 20.265 0 36.753 16.916 36.753 37.71 0 20.792-16.488 37.708-36.753 37.708z" fill="#004880"/><path d="M64.999 30.78c-18.39 0-33.35 15.352-33.35 34.22s14.96 34.219 33.35 34.219c6.683 0 13.132-2.021 18.648-5.845.884-.613 1.116-1.844.52-2.75a1.9 1.9 0 0 0-2.681-.533 28.816 28.816 0 0 1-16.487 5.166c-16.26 0-29.49-13.573-29.49-30.257S48.74 34.743 65 34.743c16.26 0 29.49 13.573 29.49 30.257 0 8.082-3.068 15.68-8.638 21.395a2.017 2.017 0 0 0 0 2.801 1.896 1.896 0 0 0 2.73 0C94.882 82.733 98.35 74.14 98.35 65c0-18.869-14.961-34.22-33.351-34.22z" fill="#004880"/><path d="M84.535 53.927a1.905 1.905 0 0 0-2.624-.775c-.933.53-1.271 1.735-.755 2.692 3.954 7.337 2.676 16.607-3.109 22.543a2.017 2.017 0 0 0 0 2.801 1.9 1.9 0 0 0 2.73 0c6.996-7.177 8.54-18.388 3.758-27.261zM76.16 45.17c-8.725-5.177-19.802-3.679-26.937 3.642-4.215 4.324-6.536 10.073-6.536 16.188 0 6.115 2.321 11.864 6.536 16.188a1.9 1.9 0 0 0 2.73 0 2.017 2.017 0 0 0 0-2.801c-7.194-7.381-7.194-19.392 0-26.773 5.901-6.055 15.06-7.294 22.275-3.014a1.904 1.904 0 0 0 2.637-.723c.534-.947.218-2.16-.704-2.707z" fill="#004880"/><path d="M80.202 49.402a1.896 1.896 0 0 0-2.73 0l-8.467 8.687a7.701 7.701 0 0 0-9.546 1.226c-3.056 3.135-3.056 8.235 0 11.37a7.711 7.711 0 0 0 5.54 2.352 7.712 7.712 0 0 0 5.542-2.352c2.584-2.651 2.982-6.71 1.194-9.795l8.467-8.687a2.018 2.018 0 0 0 0-2.801zM67.81 67.884a3.91 3.91 0 0 1-5.621 0c-1.55-1.59-1.55-4.178 0-5.768a3.91 3.91 0 0 1 5.621 0c1.55 1.59 1.55 4.178 0 5.768z" fill="#004880"/></svg>