<svg width="113" height="130" viewBox="0 0 113 130" fill="none" xmlns="http://www.w3.org/2000/svg"><path d="M56.494 106.687c-.854 0-1.55-.7-1.55-1.561 0-1.146-.92-2.075-2.057-2.075a2.066 2.066 0 0 0-2.057 2.075 5.714 5.714 0 0 0 3.606 5.314v.89c0 1.146.92 2.075 2.057 2.075a2.066 2.066 0 0 0 2.058-2.075v-.89a5.715 5.715 0 0 0 3.607-5.314c0-4-3.23-5.53-4.784-6.264-1.897-.897-2.416-1.436-2.416-2.507 0-.86.695-1.561 1.549-1.561s1.549.7 1.549 1.561c0 1.146.92 2.075 2.057 2.075a2.066 2.066 0 0 0 2.058-2.075 5.714 5.714 0 0 0-3.607-5.314v-.89c0-1.145-.92-2.074-2.057-2.074a2.066 2.066 0 0 0-2.058 2.074v.89a5.715 5.715 0 0 0-3.607 5.315c0 4 3.231 5.528 4.784 6.263 1.897.897 2.416 1.436 2.416 2.507 0 .86-.694 1.561-1.548 1.561z" fill="#004880"/><path d="M56.5 71.48c-16.003 0-29.021 13.127-29.021 29.26 0 16.134 13.018 29.26 29.02 29.26s29.02-13.126 29.02-29.26c0-16.133-13.018-29.26-29.02-29.26zm0 54.371c-13.734 0-24.906-11.264-24.906-25.11 0-13.847 11.172-25.111 24.905-25.111 13.734 0 24.906 11.264 24.906 25.11 0 13.847-11.172 25.111-24.906 25.111z" fill="#004880"/><path d="M56.5 79.779c-4.742 0-9.384 1.66-13.07 4.673a21.101 21.101 0 0 0-7.209 11.684 2.075 2.075 0 0 0 1.555 2.48 2.057 2.057 0 0 0 2.46-1.569c1.697-7.602 8.538-13.12 16.264-13.12 9.195 0 16.676 7.543 16.676 16.813s-7.48 16.813-16.676 16.813c-7.727 0-14.567-5.517-16.264-13.12a2.057 2.057 0 0 0-2.46-1.568 2.075 2.075 0 0 0-1.555 2.48 21.103 21.103 0 0 0 7.21 11.684 20.708 20.708 0 0 0 13.07 4.673c11.463 0 20.79-9.403 20.79-20.962 0-11.558-9.327-20.961-20.79-20.961zM110.942 0H2.058A2.066 2.066 0 0 0 0 2.074v5.532c0 2.144 1.25 4.773 2.907 6.116l30.825 24.98c1.276 1.034 2.438 3.48 2.438 5.131v21.424c0 1.146.921 2.075 2.058 2.075h36.544a2.066 2.066 0 0 0 2.058-2.075V43.833c0-1.651 1.162-4.097 2.439-5.131l30.824-24.98C111.75 12.379 113 9.75 113 7.606V2.074A2.066 2.066 0 0 0 110.942 0zm-2.057 7.606c0 .894-.679 2.322-1.37 2.882L76.69 35.468c-2.266 1.837-3.975 5.433-3.975 8.365v19.35h-32.43v-19.35c0-2.932-1.709-6.529-3.975-8.365L5.485 10.488c-.692-.56-1.37-1.988-1.37-2.882V4.15h104.77v3.457z" fill="#004880"/><path d="M31.655 12.447h66.15a2.066 2.066 0 0 0 2.058-2.075 2.066 2.066 0 0 0-2.058-2.074h-66.15a2.066 2.066 0 0 0-2.058 2.074c0 1.146.921 2.075 2.058 2.075zM15.195 12.447h8.23a2.066 2.066 0 0 0 2.057-2.075c0-1.146-.92-2.074-2.057-2.074h-8.23a2.066 2.066 0 0 0-2.058 2.074c0 1.146.921 2.075 2.058 2.075zM66.938 38.385H46.063a2.066 2.066 0 0 0-2.058 2.074c0 1.146.921 2.074 2.058 2.074h20.875a2.066 2.066 0 0 0 2.057-2.074 2.066 2.066 0 0 0-2.057-2.075z" fill="#004880"/></svg>