<svg width="130" height="130" viewBox="0 0 130 130" fill="none" xmlns="http://www.w3.org/2000/svg"><path d="M124.447 56.74C128.08 51.262 130 45.078 130 38.858c0-8.025-3.094-15.724-8.947-22.264a1.935 1.935 0 0 0-2.88 2.58c5.207 5.82 7.96 12.626 7.96 19.684 0 5.535-1.65 10.832-4.908 15.743-3.147 4.745-7.757 8.955-13.332 12.175a1.934 1.934 0 0 0-.92 2.093c.911 4.119 3.219 11.099 8.872 16.235-2.923.156-7.02-.305-10.95-3.073a1.935 1.935 0 0 0-2.226 3.164c4.287 3.019 8.699 3.81 12.146 3.81 3.643 0 6.209-.884 6.41-.956a1.934 1.934 0 0 0 .348-3.48c-6.495-3.9-9.309-10.72-10.498-15.19 5.533-3.413 10.136-7.76 13.372-12.639zM116.018 11.825C106.57 4.2 93.875 0 80.27 0 67.08 0 54.657 3.984 45.294 11.218c-9.512 7.348-14.751 17.164-14.751 27.64a1.934 1.934 0 1 0 3.866 0c0-19.293 20.574-34.99 45.863-34.99 12.723 0 24.556 3.895 33.319 10.968a1.933 1.933 0 1 0 2.427-3.01zM84.706 52.221C75.342 44.987 62.92 41.003 49.73 41.003c-13.192 0-25.614 3.984-34.978 11.218C5.238 59.569 0 69.385 0 79.861c0 6.22 1.92 12.404 5.554 17.882 3.234 4.878 7.838 9.226 13.37 12.64-1.188 4.469-4.002 11.29-10.497 15.188a1.934 1.934 0 0 0 .347 3.482c.14.05 2.72.947 6.4.947 1.12 0 2.34-.083 3.623-.298 4.84-.809 11.502-3.687 16.377-12.672a62.766 62.766 0 0 0 14.554 1.689c13.192 0 25.614-3.984 34.978-11.218 9.512-7.349 14.75-17.165 14.75-27.64 0-10.476-5.238-20.292-14.75-27.64zm-34.978 62.63c-5.162 0-10.233-.654-15.073-1.941a1.932 1.932 0 0 0-2.234 1.02c-5.371 11.016-13.453 12.469-18.286 12.196 5.668-5.138 7.98-12.13 8.892-16.254a1.934 1.934 0 0 0-.92-2.093c-5.575-3.22-10.185-7.43-13.332-12.174-3.257-4.912-4.909-10.209-4.909-15.744 0-19.293 20.574-34.989 45.862-34.989 25.289 0 45.863 15.696 45.863 34.99 0 19.293-20.574 34.988-45.862 34.988z" fill="#004880"/><path d="M76.598 79.329a9.857 9.857 0 0 0-4.003-7.93 9.857 9.857 0 0 0 4.003-7.93c0-5.44-4.422-9.864-9.859-9.864H32.717c-5.436 0-9.859 4.425-9.859 9.864a9.857 9.857 0 0 0 4.004 7.93 9.858 9.858 0 0 0-4.004 7.93 9.857 9.857 0 0 0 4.004 7.93 9.857 9.857 0 0 0-4.004 7.93c0 5.439 4.423 9.864 9.86 9.864h8.02a1.934 1.934 0 0 0 0-3.869h-8.02a6 6 0 0 1-5.993-5.995 6 6 0 0 1 5.992-5.996H66.74a6 6 0 0 1 5.993 5.996 6 6 0 0 1-5.993 5.995H47.182a1.934 1.934 0 0 0 0 3.869h19.557c5.437 0 9.86-4.425 9.86-9.864a9.857 9.857 0 0 0-4.004-7.93 9.856 9.856 0 0 0 4.003-7.93zm-49.873-15.86a6 6 0 0 1 5.992-5.996H66.74a6 6 0 0 1 5.993 5.996 6 6 0 0 1-5.993 5.996H32.717a6 6 0 0 1-5.992-5.996zm40.014 21.855H32.717a6 6 0 0 1-5.992-5.995 6 6 0 0 1 5.992-5.996H66.74a6.001 6.001 0 0 1 5.993 5.995 6.001 6.001 0 0 1-5.993 5.996z" fill="#004880"/><path d="M67.448 94.074a1.95 1.95 0 0 0-2.055-.76c-1.615.414-1.967 2.631-.548 3.515a1.95 1.95 0 0 0 2.39-.273 1.957 1.957 0 0 0 .213-2.482zM60.408 93.53a1.952 1.952 0 0 0-2.256.193c-.733.63-.874 1.736-.345 2.538.946 1.44 3.212.923 3.512-.743a1.949 1.949 0 0 0-.911-1.989zM66.957 77.732c-1.449-.986-3.426.406-2.953 2.111a1.954 1.954 0 0 0 1.863 1.42c.806 0 1.548-.522 1.82-1.282a1.953 1.953 0 0 0-.73-2.249zM58.42 77.67a1.95 1.95 0 0 0-.792 2.398 1.951 1.951 0 0 0 1.834 1.193 1.946 1.946 0 0 0 1.754-1.237c.655-1.683-1.253-3.272-2.795-2.353zM67.653 62.73c-.646-1.562-2.923-1.561-3.57 0a1.949 1.949 0 0 0 .598 2.265 1.955 1.955 0 0 0 2.106.174c.856-.46 1.245-1.539.866-2.439zM61.199 62.73c-.653-1.578-2.97-1.55-3.587.045a1.952 1.952 0 0 0 .576 2.19c.641.524 1.56.578 2.26.138a1.948 1.948 0 0 0 .75-2.373z" fill="#004880"/></svg>