<svg width="108" height="130" viewBox="0 0 108 130" fill="none" xmlns="http://www.w3.org/2000/svg"><path d="M107.278 115.722l-17.127-41.55a2.06 2.06 0 0 0-2.697-1.123 2.078 2.078 0 0 0-1.117 2.71l15.483 37.563-14.123-4.113a2.06 2.06 0 0 0-2.382.992l-7.093 12.943L61.609 82.84c19.174-3.716 33.703-20.704 33.703-41.041C95.312 18.75 76.652 0 53.718 0 30.782 0 12.123 18.751 12.123 41.799a41.713 41.713 0 0 0 8.228 24.93L.157 115.722a2.082 2.082 0 0 0 .37 2.177c.528.594 1.35.831 2.112.609l16.662-4.852 8.367 15.27a2.063 2.063 0 0 0 1.922 1.071 2.065 2.065 0 0 0 1.794-1.278l16.001-38.82a2.078 2.078 0 0 0-1.117-2.711 2.06 2.06 0 0 0-2.697 1.123l-14.358 34.833-7.093-12.943a2.06 2.06 0 0 0-2.382-.992l-14.123 4.113L23.34 70.32c7.596 8.165 18.403 13.278 30.378 13.278 1.236 0 2.458-.058 3.667-.165l18.667 45.286A2.065 2.065 0 0 0 77.959 130c.75 0 1.444-.409 1.808-1.074l8.368-15.27 16.661 4.852a2.058 2.058 0 0 0 2.113-.609 2.084 2.084 0 0 0 .369-2.177zM16.251 41.799c0-20.76 16.808-37.65 37.466-37.65 20.66 0 37.466 16.89 37.466 37.65 0 20.76-16.807 37.65-37.466 37.65-20.658 0-37.466-16.89-37.466-37.65z" fill="#004880"/><path d="M77.57 34.01a2.068 2.068 0 0 0-1.622-1.404l-13.89-2.343-6.51-12.552a2.063 2.063 0 0 0-1.83-1.115c-.77 0-1.476.43-1.831 1.115l-6.51 12.552-13.89 2.343a2.067 2.067 0 0 0-1.622 1.404 2.081 2.081 0 0 0 .49 2.095l9.868 10.1-2.076 14a2.08 2.08 0 0 0 .829 1.983 2.057 2.057 0 0 0 2.133.179l12.608-6.31 12.608 6.31a2.054 2.054 0 0 0 2.134-.178 2.08 2.08 0 0 0 .828-1.984l-2.075-14 9.868-10.1a2.082 2.082 0 0 0 .49-2.095zM63.546 44.035a2.08 2.08 0 0 0-.569 1.76l1.643 11.084-9.982-4.996a2.057 2.057 0 0 0-1.84 0l-9.983 4.996 1.643-11.085a2.08 2.08 0 0 0-.569-1.759l-7.813-7.997 10.998-1.854a2.065 2.065 0 0 0 1.49-1.087l5.153-9.938 5.154 9.938c.3.577.85.98 1.49 1.087l10.998 1.855-7.813 7.996z" fill="#004880"/><path d="M84.989 43.891a2.065 2.065 0 0 0-2.318 1.784C80.756 60.2 68.309 71.151 53.717 71.151c-16.105 0-29.208-13.167-29.208-29.352 0-16.185 13.103-29.352 29.208-29.352 14.592 0 27.04 10.952 28.954 25.475a2.066 2.066 0 0 0 2.318 1.784 2.073 2.073 0 0 0 1.775-2.329C84.578 20.8 70.37 8.297 53.717 8.297c-18.382 0-33.337 15.03-33.337 33.502 0 18.473 14.955 33.5 33.337 33.5 16.654 0 30.861-12.501 33.047-29.08a2.073 2.073 0 0 0-1.775-2.328z" fill="#004880"/></svg>