<svg width="60" height="60" viewBox="0 0 60 60" fill="none" xmlns="http://www.w3.org/2000/svg"><path d="M1.165 2.33a1.165 1.165 0 1 0 0-2.33 1.165 1.165 0 0 0 0 2.33zM52.427 2.33a1.165 1.165 0 1 0 0-2.33 1.165 1.165 0 0 0 0 2.33zM39.612 9.32a1.748 1.748 0 1 0 0-3.495 1.748 1.748 0 0 0 0 3.495zM13.98 16.748a2.767 2.767 0 1 0 0-5.535 2.767 2.767 0 0 0 0 5.535zM20.388 16.748a2.767 2.767 0 1 0 0-5.534 2.767 2.767 0 0 0 0 5.534zM29.563 13.98a2.767 2.767 0 1 1-5.534 0 2.767 2.767 0 0 1 5.534 0zM33.204 16.748a2.767 2.767 0 1 0 0-5.535 2.767 2.767 0 0 0 0 5.535zM42.379 13.98a2.767 2.767 0 1 1-5.534 0 2.767 2.767 0 0 1 5.534 0zM46.02 16.748a2.767 2.767 0 1 0 0-5.535 2.767 2.767 0 0 0 0 5.535zM16.748 20.388a2.767 2.767 0 1 1-5.534 0 2.767 2.767 0 0 1 5.534 0zM39.612 22.136a1.748 1.748 0 1 0 0-3.495 1.748 1.748 0 0 0 0 3.495zM34.952 20.388a1.748 1.748 0 1 1-3.496 0 1.748 1.748 0 0 1 3.496 0zM26.796 22.136a1.748 1.748 0 1 0 0-3.495 1.748 1.748 0 0 0 0 3.495zM22.136 20.388a1.748 1.748 0 1 1-3.495 0 1.748 1.748 0 0 1 3.495 0zM39.612 28.544a1.748 1.748 0 1 0 0-3.496 1.748 1.748 0 0 0 0 3.496zM34.952 26.796a1.748 1.748 0 1 1-3.496 0 1.748 1.748 0 0 1 3.496 0zM26.796 28.544a1.748 1.748 0 1 0 0-3.496 1.748 1.748 0 0 0 0 3.496zM22.136 26.796a1.748 1.748 0 1 1-3.495 0 1.748 1.748 0 0 1 3.495 0zM39.612 34.952a1.748 1.748 0 1 0 0-3.496 1.748 1.748 0 0 0 0 3.496zM34.952 33.204a1.748 1.748 0 1 1-3.496 0 1.748 1.748 0 0 1 3.496 0zM26.796 34.952a1.748 1.748 0 1 0 0-3.496 1.748 1.748 0 0 0 0 3.496zM22.136 33.204a1.748 1.748 0 1 1-3.495 0 1.748 1.748 0 0 1 3.495 0zM39.612 41.36a1.748 1.748 0 1 0 0-3.496 1.748 1.748 0 0 0 0 3.495zM34.952 39.612a1.748 1.748 0 1 1-3.496 0 1.748 1.748 0 0 1 3.496 0zM26.796 41.36a1.748 1.748 0 1 0 0-3.496 1.748 1.748 0 0 0 0 3.495zM22.136 39.612a1.748 1.748 0 1 1-3.495 0 1.748 1.748 0 0 1 3.495 0zM39.612 54.175a1.748 1.748 0 1 0 0-3.496 1.748 1.748 0 0 0 0 3.496zM47.767 52.427a1.748 1.748 0 1 1-3.495 0 1.748 1.748 0 0 1 3.495 0zM52.427 54.175a1.748 1.748 0 1 0 0-3.496 1.748 1.748 0 0 0 0 3.496zM34.952 52.427a1.748 1.748 0 1 1-3.496 0 1.748 1.748 0 0 1 3.496 0zM26.796 54.175a1.748 1.748 0 1 0 0-3.496 1.748 1.748 0 0 0 0 3.496zM22.136 52.427a1.748 1.748 0 1 1-3.495 0 1.748 1.748 0 0 1 3.495 0zM13.98 54.175a1.748 1.748 0 1 0 0-3.496 1.748 1.748 0 0 0 0 3.496zM9.32 52.427a1.748 1.748 0 1 1-3.495 0 1.748 1.748 0 0 1 3.495 0zM47.767 7.573a1.748 1.748 0 1 1-3.495 0 1.748 1.748 0 0 1 3.495 0zM52.427 9.32a1.748 1.748 0 1 0 0-3.495 1.748 1.748 0 0 0 0 3.495zM34.952 7.573a1.748 1.748 0 1 1-3.496 0 1.748 1.748 0 0 1 3.496 0zM28.544 7.573a1.748 1.748 0 1 1-3.496 0 1.748 1.748 0 0 1 3.496 0zM20.388 9.32a1.748 1.748 0 1 0 0-3.495 1.748 1.748 0 0 0 0 3.495zM15.728 7.573a1.748 1.748 0 1 1-3.495 0 1.748 1.748 0 0 1 3.495 0zM5.825 39.612a1.748 1.748 0 1 0 3.495 0 1.748 1.748 0 0 0-3.495 0zM7.573 47.767a1.748 1.748 0 1 1 0-3.495 1.748 1.748 0 0 1 0 3.495zM5.825 33.204a1.748 1.748 0 1 0 3.496 0 1.748 1.748 0 0 0-3.496 0zM5.825 26.796a1.748 1.748 0 1 0 3.495 0 1.748 1.748 0 0 0-3.495 0zM7.573 22.136a1.748 1.748 0 1 1 0-3.495 1.748 1.748 0 0 1 0 3.495zM5.825 13.98a1.748 1.748 0 1 0 3.496 0 1.748 1.748 0 0 0-3.496 0zM52.427 41.36a1.748 1.748 0 1 1 0-3.496 1.748 1.748 0 0 1 0 3.495zM50.68 46.02a1.748 1.748 0 1 0 3.495 0 1.748 1.748 0 0 0-3.495 0zM52.427 34.952a1.748 1.748 0 1 1 0-3.496 1.748 1.748 0 0 1 0 3.496zM50.68 26.796a1.748 1.748 0 1 0 3.495 0 1.748 1.748 0 0 0-3.495 0zM52.427 22.136a1.748 1.748 0 1 1 0-3.495 1.748 1.748 0 0 1 0 3.495zM50.68 13.98a1.748 1.748 0 1 0 3.495 0 1.748 1.748 0 0 0-3.495 0zM9.32 7.573a1.748 1.748 0 1 1-3.495 0 1.748 1.748 0 0 1 3.495 0zM60 1.165a1.165 1.165 0 1 1-2.33 0 1.165 1.165 0 0 1 2.33 0zM58.835 8.738a1.165 1.165 0 1 0 0-2.33 1.165 1.165 0 0 0 0 2.33zM60 13.98a1.165 1.165 0 1 1-2.33 0 1.165 1.165 0 0 1 2.33 0zM58.835 21.553a1.165 1.165 0 1 0 0-2.33 1.165 1.165 0 0 0 0 2.33zM60 26.796a1.165 1.165 0 1 1-2.33 0 1.165 1.165 0 0 1 2.33 0zM58.835 34.369a1.165 1.165 0 1 0 0-2.33 1.165 1.165 0 0 0 0 2.33zM60 39.612a1.165 1.165 0 1 1-2.33 0 1.165 1.165 0 0 1 2.33 0zM58.835 47.184a1.165 1.165 0 1 0 0-2.33 1.165 1.165 0 0 0 0 2.33zM60 52.427a1.165 1.165 0 1 1-2.33 0 1.165 1.165 0 0 1 2.33 0zM58.835 60a1.165 1.165 0 1 0 0-2.33 1.165 1.165 0 0 0 0 2.33zM47.184 1.165a1.165 1.165 0 1 1-2.33 0 1.165 1.165 0 0 1 2.33 0zM39.612 2.33a1.165 1.165 0 1 0 0-2.33 1.165 1.165 0 0 0 0 2.33zM34.369 1.165a1.165 1.165 0 1 1-2.33 0 1.165 1.165 0 0 1 2.33 0zM26.796 2.33a1.165 1.165 0 1 0 0-2.33 1.165 1.165 0 0 0 0 2.33zM21.553 1.165a1.165 1.165 0 1 1-2.33 0 1.165 1.165 0 0 1 2.33 0zM13.98 2.33a1.165 1.165 0 1 0 0-2.33 1.165 1.165 0 0 0 0 2.33zM8.738 1.165a1.165 1.165 0 1 1-2.33 0 1.165 1.165 0 0 1 2.33 0zM6.408 58.835a1.165 1.165 0 1 1 2.33 0 1.165 1.165 0 0 1-2.33 0zM1.165 57.67a1.165 1.165 0 1 0 0 2.33 1.165 1.165 0 0 0 0-2.33zM0 52.427a1.165 1.165 0 1 1 2.33 0 1.165 1.165 0 0 1-2.33 0zM1.165 44.854a1.165 1.165 0 1 0 0 2.33 1.165 1.165 0 0 0 0-2.33zM0 39.612a1.165 1.165 0 1 1 2.33 0 1.165 1.165 0 0 1-2.33 0zM1.165 32.039a1.165 1.165 0 1 0 0 2.33 1.165 1.165 0 0 0 0-2.33zM0 26.796a1.165 1.165 0 1 1 2.33 0 1.165 1.165 0 0 1-2.33 0zM1.165 19.223a1.165 1.165 0 1 0 0 2.33 1.165 1.165 0 0 0 0-2.33zM0 13.98a1.165 1.165 0 1 1 2.33 0 1.165 1.165 0 0 1-2.33 0zM1.165 6.408a1.165 1.165 0 1 0 0 2.33 1.165 1.165 0 0 0 0-2.33zM12.816 58.835a1.165 1.165 0 1 1 2.33 0 1.165 1.165 0 0 1-2.33 0zM20.388 57.67a1.165 1.165 0 1 0 0 2.33 1.165 1.165 0 0 0 0-2.33zM25.631 58.835a1.165 1.165 0 1 1 2.33 0 1.165 1.165 0 0 1-2.33 0zM33.204 57.67a1.165 1.165 0 1 0 0 2.33 1.165 1.165 0 0 0 0-2.33zM38.447 58.835a1.165 1.165 0 1 1 2.33 0 1.165 1.165 0 0 1-2.33 0zM46.02 57.67a1.165 1.165 0 1 0 0 2.33 1.165 1.165 0 0 0 0-2.33zM51.262 58.835a1.165 1.165 0 1 1 2.33 0 1.165 1.165 0 0 1-2.33 0zM46.02 23.155a2.767 2.767 0 1 0 0-5.534 2.767 2.767 0 0 0 0 5.534zM16.748 26.796a2.767 2.767 0 1 1-5.534 0 2.767 2.767 0 0 1 5.534 0zM46.02 29.563a2.767 2.767 0 1 0 0-5.534 2.767 2.767 0 0 0 0 5.534zM16.748 33.204a2.767 2.767 0 1 1-5.535 0 2.767 2.767 0 0 1 5.535 0zM46.02 35.97a2.767 2.767 0 1 0 0-5.533 2.767 2.767 0 0 0 0 5.534zM16.748 39.612a2.767 2.767 0 1 1-5.534 0 2.767 2.767 0 0 1 5.534 0zM46.02 42.379a2.767 2.767 0 1 0 0-5.534 2.767 2.767 0 0 0 0 5.534zM16.748 46.02a2.767 2.767 0 1 1-5.534 0 2.767 2.767 0 0 1 5.534 0zM20.388 48.786a2.767 2.767 0 1 0 0-5.534 2.767 2.767 0 0 0 0 5.534zM29.563 46.02a2.767 2.767 0 1 1-5.534 0 2.767 2.767 0 0 1 5.534 0zM33.204 48.786a2.767 2.767 0 1 0 0-5.534 2.767 2.767 0 0 0 0 5.534zM42.379 46.02a2.767 2.767 0 1 1-5.534 0 2.767 2.767 0 0 1 5.534 0zM46.02 48.786a2.767 2.767 0 1 0 0-5.534 2.767 2.767 0 0 0 0 5.534z" fill="#fff"/></svg>