<svg width="14" height="14" viewBox="0 0 14 14" fill="none" xmlns="http://www.w3.org/2000/svg"><path fill-rule="evenodd" clip-rule="evenodd" d="M14 7A7 7 0 1 1 0 7a7 7 0 0 1 14 0zm-3.673-1.706c.339-.04.661-.13.961-.263-.223.335-.508.63-.835.866.003.071.005.144.005.216 0 2.211-1.683 4.76-4.76 4.76a4.735 4.735 0 0 1-2.565-.75 3.38 3.38 0 0 0 2.477-.694 1.676 1.676 0 0 1-1.563-1.162 1.674 1.674 0 0 0 .756-.029 1.674 1.674 0 0 1-1.343-1.64v-.021c.226.125.484.2.758.21A1.674 1.674 0 0 1 3.7 4.551a4.75 4.75 0 0 0 3.45 1.749 1.674 1.674 0 0 1 2.852-1.526c.38-.076.738-.215 1.061-.407-.126.391-.39.719-.736.926z" fill="#D3CFE5"/></svg>